<?xml version="1.0" encoding="utf-8" standalone="no"?>
<!DOCTYPE svg PUBLIC "-//W3C//DTD SVG 1.1//EN"
  "http://www.w3.org/Graphics/SVG/1.1/DTD/svg11.dtd">
<svg xmlns:xlink="http://www.w3.org/1999/xlink" width="460.8pt" height="345.6pt" viewBox="0 0 460.8 345.6" xmlns="http://www.w3.org/2000/svg" version="1.1">
 <metadata>
  <rdf:RDF xmlns:dc="http://purl.org/dc/elements/1.1/" xmlns:cc="http://creativecommons.org/ns#" xmlns:rdf="http://www.w3.org/1999/02/22-rdf-syntax-ns#">
   <cc:Work>
    <dc:type rdf:resource="http://purl.org/dc/dcmitype/StillImage"/>
    <dc:date>2025-08-18T23:40:12.523566</dc:date>
    <dc:format>image/svg+xml</dc:format>
    <dc:creator>
     <cc:Agent>
      <dc:title>Matplotlib v3.10.5, https://matplotlib.org/</dc:title>
     </cc:Agent>
    </dc:creator>
   </cc:Work>
  </rdf:RDF>
 </metadata>
 <defs>
  <style type="text/css">*{stroke-linejoin: round; stroke-linecap: butt}</style>
 </defs>
 <g id="figure_1">
  <g id="patch_1">
   <path d="M 0 345.6 
L 460.8 345.6 
L 460.8 0 
L 0 0 
z
" style="fill: #ffffff"/>
  </g>
  <g id="axes_1">
   <g id="patch_2">
    <path d="M 57.6 307.584 
L 414.72 307.584 
L 414.72 41.472 
L 57.6 41.472 
z
" style="fill: #e5e5e5"/>
   </g>
   <g id="matplotlib.axis_1">
    <g id="xtick_1">
     <g id="line2d_1">
      <defs>
       <path id="m7d9a1aa5a3" d="M 0 0 
L 0 3.5 
" style="stroke: #555555; stroke-width: 0.8"/>
      </defs>
      <g>
       <use xlink:href="#m7d9a1aa5a3" x="64.127073" y="307.584" style="fill: #555555; stroke: #555555; stroke-width: 0.8"/>
      </g>
     </g>
     <g id="text_1">
      <!-- -15 -->
      <g style="fill: #555555" transform="translate(56.627073 321.459) scale(0.1 -0.1)">
       <defs>
        <path id="SimHei-2d" d="M 2975 2125 
L 125 2125 
L 125 2525 
L 2975 2525 
L 2975 2125 
z
" transform="scale(0.015625)"/>
        <path id="SimHei-31" d="M 1400 3600 
Q 1075 3275 575 2975 
L 575 3450 
Q 1200 3875 1600 4450 
L 1900 4450 
L 1900 150 
L 1400 150 
L 1400 3600 
z
" transform="scale(0.015625)"/>
        <path id="SimHei-35" d="M 550 1325 
Q 725 650 1150 575 
Q 1575 500 1837 662 
Q 2100 825 2212 1087 
Q 2325 1350 2312 1675 
Q 2300 2000 2137 2225 
Q 1975 2450 1725 2525 
Q 1475 2600 1162 2525 
Q 850 2450 650 2175 
L 225 2225 
Q 275 2375 700 4375 
L 2675 4375 
L 2675 3925 
L 1075 3925 
Q 950 3250 825 2850 
Q 1200 3025 1525 3012 
Q 1850 3000 2150 2862 
Q 2450 2725 2587 2487 
Q 2725 2250 2787 2012 
Q 2850 1775 2837 1500 
Q 2825 1225 2725 937 
Q 2625 650 2425 462 
Q 2225 275 1937 162 
Q 1650 50 1275 75 
Q 900 100 562 350 
Q 225 600 100 1200 
L 550 1325 
z
" transform="scale(0.015625)"/>
       </defs>
       <use xlink:href="#SimHei-2d"/>
       <use xlink:href="#SimHei-31" transform="translate(50 0)"/>
       <use xlink:href="#SimHei-35" transform="translate(100 0)"/>
      </g>
     </g>
    </g>
    <g id="xtick_2">
     <g id="line2d_2">
      <g>
       <use xlink:href="#m7d9a1aa5a3" x="122.005278" y="307.584" style="fill: #555555; stroke: #555555; stroke-width: 0.8"/>
      </g>
     </g>
     <g id="text_2">
      <!-- -10 -->
      <g style="fill: #555555" transform="translate(114.505278 321.459) scale(0.1 -0.1)">
       <defs>
        <path id="SimHei-30" d="M 225 2537 
Q 250 3200 412 3587 
Q 575 3975 875 4225 
Q 1175 4475 1612 4475 
Q 2050 4475 2375 4112 
Q 2700 3750 2800 3200 
Q 2900 2650 2862 1937 
Q 2825 1225 2612 775 
Q 2400 325 1975 150 
Q 1550 -25 1125 187 
Q 700 400 525 750 
Q 350 1100 275 1487 
Q 200 1875 225 2537 
z
M 750 2687 
Q 675 2000 800 1462 
Q 925 925 1212 700 
Q 1500 475 1800 612 
Q 2100 750 2237 1162 
Q 2375 1575 2375 2062 
Q 2375 2550 2337 2950 
Q 2300 3350 2112 3675 
Q 1925 4000 1612 4012 
Q 1300 4025 1062 3700 
Q 825 3375 750 2687 
z
" transform="scale(0.015625)"/>
       </defs>
       <use xlink:href="#SimHei-2d"/>
       <use xlink:href="#SimHei-31" transform="translate(50 0)"/>
       <use xlink:href="#SimHei-30" transform="translate(100 0)"/>
      </g>
     </g>
    </g>
    <g id="xtick_3">
     <g id="line2d_3">
      <g>
       <use xlink:href="#m7d9a1aa5a3" x="179.883483" y="307.584" style="fill: #555555; stroke: #555555; stroke-width: 0.8"/>
      </g>
     </g>
     <g id="text_3">
      <!-- -5 -->
      <g style="fill: #555555" transform="translate(174.883483 321.459) scale(0.1 -0.1)">
       <use xlink:href="#SimHei-2d"/>
       <use xlink:href="#SimHei-35" transform="translate(50 0)"/>
      </g>
     </g>
    </g>
    <g id="xtick_4">
     <g id="line2d_4">
      <g>
       <use xlink:href="#m7d9a1aa5a3" x="237.761688" y="307.584" style="fill: #555555; stroke: #555555; stroke-width: 0.8"/>
      </g>
     </g>
     <g id="text_4">
      <!-- 0 -->
      <g style="fill: #555555" transform="translate(235.261688 321.459) scale(0.1 -0.1)">
       <use xlink:href="#SimHei-30"/>
      </g>
     </g>
    </g>
    <g id="xtick_5">
     <g id="line2d_5">
      <g>
       <use xlink:href="#m7d9a1aa5a3" x="295.639893" y="307.584" style="fill: #555555; stroke: #555555; stroke-width: 0.8"/>
      </g>
     </g>
     <g id="text_5">
      <!-- 5 -->
      <g style="fill: #555555" transform="translate(293.139893 321.459) scale(0.1 -0.1)">
       <use xlink:href="#SimHei-35"/>
      </g>
     </g>
    </g>
    <g id="xtick_6">
     <g id="line2d_6">
      <g>
       <use xlink:href="#m7d9a1aa5a3" x="353.518098" y="307.584" style="fill: #555555; stroke: #555555; stroke-width: 0.8"/>
      </g>
     </g>
     <g id="text_6">
      <!-- 10 -->
      <g style="fill: #555555" transform="translate(348.518098 321.459) scale(0.1 -0.1)">
       <use xlink:href="#SimHei-31"/>
       <use xlink:href="#SimHei-30" transform="translate(50 0)"/>
      </g>
     </g>
    </g>
    <g id="xtick_7">
     <g id="line2d_7">
      <g>
       <use xlink:href="#m7d9a1aa5a3" x="411.396303" y="307.584" style="fill: #555555; stroke: #555555; stroke-width: 0.8"/>
      </g>
     </g>
     <g id="text_7">
      <!-- 15 -->
      <g style="fill: #555555" transform="translate(406.396303 321.459) scale(0.1 -0.1)">
       <use xlink:href="#SimHei-31"/>
       <use xlink:href="#SimHei-35" transform="translate(50 0)"/>
      </g>
     </g>
    </g>
   </g>
   <g id="matplotlib.axis_2">
    <g id="ytick_1">
     <g id="line2d_8">
      <defs>
       <path id="m20c2f142d5" d="M 0 0 
L -3.5 0 
" style="stroke: #555555; stroke-width: 0.8"/>
      </defs>
      <g>
       <use xlink:href="#m20c2f142d5" x="57.6" y="291.866455" style="fill: #555555; stroke: #555555; stroke-width: 0.8"/>
      </g>
     </g>
     <g id="text_8">
      <!-- -10 -->
      <g style="fill: #555555" transform="translate(35.6 295.303955) scale(0.1 -0.1)">
       <use xlink:href="#SimHei-2d"/>
       <use xlink:href="#SimHei-31" transform="translate(50 0)"/>
       <use xlink:href="#SimHei-30" transform="translate(100 0)"/>
      </g>
     </g>
    </g>
    <g id="ytick_2">
     <g id="line2d_9">
      <g>
       <use xlink:href="#m20c2f142d5" x="57.6" y="233.98825" style="fill: #555555; stroke: #555555; stroke-width: 0.8"/>
      </g>
     </g>
     <g id="text_9">
      <!-- -5 -->
      <g style="fill: #555555" transform="translate(40.6 237.42575) scale(0.1 -0.1)">
       <use xlink:href="#SimHei-2d"/>
       <use xlink:href="#SimHei-35" transform="translate(50 0)"/>
      </g>
     </g>
    </g>
    <g id="ytick_3">
     <g id="line2d_10">
      <g>
       <use xlink:href="#m20c2f142d5" x="57.6" y="176.110045" style="fill: #555555; stroke: #555555; stroke-width: 0.8"/>
      </g>
     </g>
     <g id="text_10">
      <!-- 0 -->
      <g style="fill: #555555" transform="translate(45.6 179.547545) scale(0.1 -0.1)">
       <use xlink:href="#SimHei-30"/>
      </g>
     </g>
    </g>
    <g id="ytick_4">
     <g id="line2d_11">
      <g>
       <use xlink:href="#m20c2f142d5" x="57.6" y="118.23184" style="fill: #555555; stroke: #555555; stroke-width: 0.8"/>
      </g>
     </g>
     <g id="text_11">
      <!-- 5 -->
      <g style="fill: #555555" transform="translate(45.6 121.66934) scale(0.1 -0.1)">
       <use xlink:href="#SimHei-35"/>
      </g>
     </g>
    </g>
    <g id="ytick_5">
     <g id="line2d_12">
      <g>
       <use xlink:href="#m20c2f142d5" x="57.6" y="60.353635" style="fill: #555555; stroke: #555555; stroke-width: 0.8"/>
      </g>
     </g>
     <g id="text_12">
      <!-- 10 -->
      <g style="fill: #555555" transform="translate(40.6 63.791135) scale(0.1 -0.1)">
       <use xlink:href="#SimHei-31"/>
       <use xlink:href="#SimHei-30" transform="translate(50 0)"/>
      </g>
     </g>
    </g>
   </g>
   <g id="line2d_13">
    <path d="M 237.761688 176.110045 
L 238.053756 176.019091 
L 238.26532 175.762683 
L 238.328049 175.387948 
L 238.196417 174.966264 
L 237.855423 174.583406 
L 237.324384 174.327485 
L 236.656231 174.276138 
L 235.932273 174.484579 
L 235.252962 174.976029 
L 234.725638 175.735811 
L 234.508803 176.36631 
L 234.429693 177.067748 
L 234.50762 177.808886 
L 234.754649 178.553721 
L 235.174495 179.26318 
L 235.761821 179.897067 
L 236.501982 180.416145 
L 237.371254 180.784277 
L 238.337542 180.970496 
L 239.361552 180.950904 
L 240.398392 180.7103 
L 241.399529 180.243435 
L 242.315012 179.555835 
L 243.095878 178.664111 
L 243.696613 177.595737 
L 244.077554 176.388289 
L 244.207109 175.088152 
L 244.063694 173.748738 
L 243.637255 172.428299 
L 242.930324 171.1874 
L 241.9585 170.086188 
L 240.750349 169.181551 
L 239.346677 168.524325 
L 237.799205 168.15666 
L 236.168684 168.109692 
L 234.522507 168.401623 
L 232.931927 169.036332 
L 231.468988 170.002587 
L 230.203301 171.27391 
L 229.198804 172.809151 
L 228.510666 174.553729 
L 228.182467 176.441543 
L 228.243805 178.397461 
L 228.708435 180.340314 
L 229.573066 182.18626 
L 230.81686 183.852386 
L 232.401716 185.260395 
L 234.27331 186.340213 
L 235.295652 186.738235 
L 236.362904 187.03335 
L 237.464631 187.220544 
L 238.589843 187.295867 
L 239.727108 187.256498 
L 240.864663 187.100789 
L 241.990539 186.828307 
L 243.092684 186.439856 
L 244.159096 185.937491 
L 245.177947 185.324513 
L 246.13772 184.605456 
L 247.027332 183.786056 
L 247.836263 182.873212 
L 248.554676 181.874927 
L 249.173537 180.800241 
L 249.684719 179.659148 
L 250.081107 178.462509 
L 250.356687 177.221943 
L 250.506631 175.949719 
L 250.527361 174.65863 
L 250.416612 173.361871 
L 250.17347 172.072897 
L 249.798406 170.805289 
L 249.29329 169.572607 
L 248.661392 168.38825 
L 247.907365 167.265305 
L 247.037219 166.21641 
L 246.058275 165.253608 
L 244.979107 164.388212 
L 243.809465 163.630679 
L 242.560195 162.990479 
L 241.243131 162.475988 
L 239.87099 162.09438 
L 238.457248 161.851535 
L 237.016004 161.751963 
L 235.561846 161.79873 
L 234.109695 161.993415 
L 232.674662 162.336066 
L 231.271881 162.825182 
L 229.916357 163.457709 
L 228.622801 164.229052 
L 227.405474 165.1331 
L 226.278032 166.162274 
L 225.253368 167.307586 
L 224.343475 168.558719 
L 223.559302 169.904112 
L 222.910628 171.331071 
L 222.405944 172.825887 
L 222.052347 174.373967 
L 221.855449 175.959978 
L 221.8193 177.567993 
L 221.946325 179.18166 
L 222.237279 180.784359 
L 222.691218 182.35938 
L 223.30549 183.890094 
L 224.075742 185.36013 
L 224.995944 186.753546 
L 226.058431 188.055005 
L 227.253968 189.249941 
L 228.571825 190.32472 
L 229.999872 191.266796 
L 231.52469 192.064852 
L 233.131696 192.708934 
L 234.805284 193.19057 
L 236.528973 193.502877 
L 238.285571 193.640648 
L 240.057347 193.600429 
L 241.826208 193.380573 
L 243.573887 192.981278 
L 245.282127 192.404604 
L 246.932877 191.654473 
L 248.508476 190.736649 
L 249.991848 189.658701 
L 251.36668 188.429937 
L 252.617607 187.061331 
L 253.730376 185.565427 
L 254.69201 183.956223 
L 255.490954 182.249042 
L 256.117214 180.460385 
L 256.562474 178.607775 
L 256.820203 176.709583 
L 256.885739 174.784847 
L 256.756358 172.853082 
L 256.431323 170.934078 
L 255.911912 169.047702 
L 255.201424 167.213691 
L 254.305168 165.451445 
L 253.230427 163.779821 
L 251.986399 162.216936 
L 250.584128 160.779967 
L 249.036403 159.484966 
L 247.357642 158.346682 
L 245.563761 157.378392 
L 243.672025 156.591755 
L 241.700879 155.99667 
L 239.669769 155.601158 
L 237.598954 155.41126 
L 235.509298 155.430958 
L 233.422065 155.662108 
L 231.3587 156.104408 
L 229.340609 156.755373 
L 227.388937 157.610346 
L 225.524348 158.662523 
L 223.766805 159.903001 
L 222.135359 161.320854 
L 220.647939 162.903227 
L 219.321163 164.635449 
L 218.170147 166.501168 
L 217.20834 168.482505 
L 216.447367 170.560227 
L 215.896893 172.71393 
L 215.564507 174.92224 
L 215.455622 177.163027 
L 215.573399 179.413625 
L 215.918698 181.65106 
L 216.490046 183.85229 
L 217.283631 185.994434 
L 218.293323 188.055017 
L 219.510713 190.012201 
L 220.925185 191.845019 
L 222.524001 193.533597 
L 224.292416 195.059367 
L 226.213814 196.405274 
L 228.269863 197.555962 
L 230.440686 198.497949 
L 232.705058 199.219779 
L 235.040608 199.712159 
L 237.424043 199.968076 
L 239.83138 199.982883 
L 242.238187 199.754371 
L 244.61983 199.282811 
L 246.951726 198.57097 
L 249.209598 197.624107 
L 251.369724 196.449937 
L 253.40919 195.058572 
L 255.30613 193.462437 
L 257.039958 191.676161 
L 258.591597 189.716444 
L 259.943679 187.601903 
L 261.080745 185.352894 
L 261.989413 182.991317 
L 262.658539 180.540407 
L 263.079343 178.024499 
L 263.245523 175.46879 
L 263.153339 172.899089 
L 262.801667 170.34155 
L 262.192036 167.822414 
L 261.328634 165.367732 
L 260.218279 163.003099 
L 258.870377 160.753391 
L 257.296841 158.642497 
L 255.511988 156.69307 
L 253.532414 154.926284 
L 251.376835 153.361604 
L 249.065916 152.016576 
L 246.622071 150.906627 
L 244.069247 150.044896 
L 241.432689 149.442078 
L 238.738691 149.106297 
L 236.014333 149.043004 
L 233.28721 149.2549 
L 230.585151 149.741888 
L 227.935937 150.501055 
L 225.367014 151.526676 
L 222.905209 152.81026 
L 220.576449 154.34061 
L 218.405491 156.103922 
L 216.415659 158.083905 
L 214.628591 160.261933 
L 213.064008 162.617216 
L 211.739499 165.127002 
L 210.67032 167.766791 
L 209.869226 170.51058 
L 209.34632 173.331111 
L 209.108932 176.200151 
L 209.161522 179.088766 
L 209.505616 181.96762 
L 210.139768 184.807267 
L 211.059557 187.578456 
L 212.257608 190.25243 
L 213.723649 192.801227 
L 215.444597 195.197968 
L 217.404669 197.417144 
L 219.585531 199.434883 
L 221.966462 201.229211 
L 224.524557 202.780285 
L 227.234938 204.070613 
L 230.071005 205.08525 
L 233.00469 205.811966 
L 236.006737 206.241393 
L 239.046994 206.367138 
L 242.094715 206.185866 
L 245.118872 205.69736 
L 248.08847 204.904541 
L 250.972864 203.813457 
L 253.742079 202.433247 
L 256.367114 200.776062 
L 258.820252 198.856965 
L 261.075351 196.693792 
L 263.108118 194.30699 
L 264.896373 191.719427 
L 266.420291 188.956165 
L 267.662616 186.044229 
L 268.608858 183.012335 
L 269.247456 179.890608 
L 269.569919 176.710287 
L 269.570927 173.50341 
L 269.24841 170.302487 
L 268.603589 167.140178 
L 267.640982 164.048955 
L 266.368383 161.060771 
L 264.796797 158.206725 
L 262.940354 155.516747 
L 260.816178 153.019277 
L 258.444234 150.740967 
L 255.847141 148.706401 
L 253.049956 146.937824 
L 250.079936 145.454907 
L 246.966267 144.274524 
L 243.739783 143.410569 
L 240.432658 142.873788 
L 237.078086 142.671656 
L 233.709947 142.808279 
L 230.362466 143.284329 
L 227.069866 144.097021 
L 223.866016 145.240116 
L 220.784081 146.703967 
L 217.856187 148.475599 
L 215.113075 150.538815 
L 212.58379 152.87435 
L 210.295364 155.460043 
L 208.272535 158.271053 
L 206.537479 161.28009 
L 205.109564 164.457686 
L 204.005144 167.772478 
L 203.237366 171.191522 
L 202.816021 174.680614 
L 202.747426 178.204641 
L 203.034334 181.727925 
L 203.675891 185.214591 
L 204.667622 188.62893 
L 206.001453 191.935763 
L 207.665776 195.100805 
L 209.645549 198.091023 
L 211.922424 200.874973 
L 214.474922 203.42314 
L 217.27863 205.708239 
L 220.306436 207.705518 
L 223.52879 209.393015 
L 226.913993 210.751805 
L 230.428506 211.766206 
L 234.037285 212.423959 
L 237.704129 212.716371 
L 241.392044 212.638427 
L 245.063613 212.188856 
L 248.68138 211.370169 
L 252.208231 210.188653 
L 255.607772 208.654327 
L 258.844707 206.780862 
L 261.885204 204.585459 
L 264.697247 202.088693 
L 267.250975 199.314324 
L 269.518993 196.289069 
L 271.476674 193.042347 
L 273.102415 189.605993 
L 274.377882 186.013945 
L 275.288208 182.30191 
L 275.822171 178.507011 
L 275.972318 174.667411 
L 275.73507 170.821936 
L 275.110776 167.009674 
L 274.103726 163.269586 
L 272.722137 159.640103 
L 270.97808 156.158731 
L 268.887384 152.861668 
L 266.469493 149.783421 
L 263.747284 146.956452 
L 260.746854 144.410831 
L 257.49727 142.173923 
L 254.030288 140.270086 
L 250.380041 138.720416 
L 246.582707 137.54251 
L 242.676149 136.750269 
L 238.699536 136.353738 
L 234.692951 136.358986 
L 230.696989 136.768019 
L 226.752344 137.578742 
L 222.899394 138.78496 
L 219.17779 140.37642 
L 215.626043 142.338891 
L 212.281135 144.654296 
L 209.178123 147.300872 
L 206.34978 150.253374 
L 203.826249 153.483316 
L 201.634716 156.959246 
L 199.799127 160.647048 
L 198.339921 164.510282 
L 197.273808 168.510539 
L 196.613579 172.607825 
L 196.367957 176.760961 
L 196.541485 180.927996 
L 197.134465 185.066631 
L 198.14293 189.134649 
L 199.558662 193.090345 
L 201.369261 196.892954 
L 203.558244 200.503067 
L 206.1052 203.883049 
L 208.985974 206.997419 
L 212.172895 209.813231 
L 215.635046 212.300416 
L 219.338558 214.432109 
L 223.246943 216.184929 
L 227.321453 217.539241 
L 231.521467 218.479371 
L 235.804889 218.993787 
L 240.128577 219.075231 
L 244.448773 218.720819 
L 248.721548 217.932087 
L 252.903247 216.714999 
L 256.950938 215.079905 
L 260.82285 213.041456 
L 264.478802 210.618478 
L 267.880625 207.833794 
L 270.992558 204.714018 
L 273.781621 201.289294 
L 276.217966 197.593011 
L 278.275195 193.661473 
L 279.930646 189.533547 
L 281.165638 185.250277 
L 281.965684 180.854477 
L 282.320652 176.390301 
L 282.224893 171.902802 
L 281.677318 167.437477 
L 280.681428 163.039802 
L 279.2453 158.754775 
L 277.381526 154.626452 
L 275.107105 150.697493 
L 272.443292 147.008724 
L 269.415394 143.598714 
L 266.05254 140.503366 
L 262.387392 137.755548 
L 258.455838 135.384739 
L 254.296631 133.416714 
L 249.951017 131.873269 
L 245.462316 130.771976 
L 240.875501 130.125992 
L 236.23674 129.943897 
L 231.592931 130.229597 
L 226.991234 130.982253 
L 222.478586 132.196276 
L 218.101226 133.86136 
L 213.904219 135.962568 
L 209.930993 138.480461 
L 206.222891 141.39128 
L 202.818739 144.667165 
L 199.754443 148.276424 
L 197.062605 152.183838 
L 194.772185 156.351003 
L 192.908183 160.736709 
L 191.491375 165.297347 
L 190.538076 169.987339 
L 190.059959 174.7596 
L 190.063917 179.566004 
L 190.55197 184.357874 
L 191.521225 189.086474 
L 192.963885 193.703501 
L 194.867306 198.161584 
L 197.214107 202.414767 
L 199.982326 206.418982 
L 203.145624 210.132506 
L 206.673535 213.516397 
L 210.531757 216.534899 
L 214.682488 219.155821 
L 219.084796 221.350879 
L 223.695016 223.096001 
L 228.467193 224.371586 
L 233.353531 225.162727 
L 238.304877 225.459378 
L 243.271214 225.256479 
L 248.202164 224.554024 
L 253.047504 223.357089 
L 257.757672 221.675794 
L 262.284278 219.525223 
L 266.580598 216.925294 
L 270.602061 213.900571 
L 274.306703 210.480039 
L 277.655612 206.696821 
L 280.613333 202.587862 
L 283.148243 198.193567 
L 285.232887 193.557404 
L 286.844278 188.725475 
L 287.964142 183.746059 
L 288.57913 178.669125 
L 288.680969 173.545837 
L 288.266567 168.428031 
L 287.338066 163.367699 
L 285.902844 158.416454 
L 283.973453 153.625005 
L 281.567519 149.042641 
L 278.707581 144.716721 
L 275.42088 140.692185 
L 271.7391 137.011089 
L 267.698066 133.712165 
L 263.337395 130.830412 
L 258.700106 128.396731 
L 253.832197 126.437588 
L 248.782191 124.974734 
L 243.60065 124.024959 
L 238.339669 123.599908 
L 233.052353 123.705938 
L 227.792282 124.344035 
L 222.612965 125.509785 
L 217.567298 127.193393 
L 212.707025 129.379766 
L 208.082202 132.048646 
L 203.74069 135.174792 
L 199.727651 138.728223 
L 196.085087 142.674502 
L 192.851393 146.975068 
L 190.060959 151.587615 
L 187.743802 156.466504 
L 185.925246 161.563221 
L 184.625644 166.82685 
L 183.860156 172.20459 
L 183.638573 177.642281 
L 183.965196 183.084948 
L 184.838776 188.477359 
L 186.252502 193.764585 
L 188.194049 198.892561 
L 190.645687 203.808635 
L 193.584435 208.462111 
L 196.982282 212.804773 
L 200.806446 216.791381 
L 205.019694 220.380144 
L 209.580703 223.533157 
L 214.444466 226.216801 
L 219.562731 228.402099 
L 224.884485 230.065032 
L 230.356462 231.186795 
L 235.923671 231.754011 
L 241.529953 231.758889 
L 247.118549 231.199317 
L 252.632669 230.078912 
L 258.016073 228.406998 
L 263.213645 226.198536 
L 268.171954 223.473987 
L 272.839807 220.259133 
L 277.168774 216.584826 
L 281.113693 212.486696 
L 284.633137 208.004806 
L 287.689855 203.183261 
L 290.251156 198.069774 
L 292.289267 192.715195 
L 293.781626 187.173002 
L 294.711136 181.498774 
L 295.066351 175.749624 
L 294.841618 169.983634 
L 294.037154 164.259261 
L 292.659064 158.634749 
L 290.719298 153.167532 
L 288.235553 147.913653 
L 285.231112 142.927183 
L 281.73463 138.259672 
L 277.779856 133.959609 
L 273.405314 130.071926 
L 268.653923 126.637522 
L 263.572581 123.692839 
L 258.2117 121.269471 
L 252.624705 119.393832 
L 246.867506 118.086863 
L 240.997932 117.363807 
L 235.075157 117.234029 
L 229.159098 117.700903 
L 223.309812 118.761755 
L 217.586886 120.407874 
L 212.04883 122.624575 
L 206.752476 125.391327 
L 201.752399 128.681948 
L 197.100353 132.464843 
L 192.844735 136.703313 
L 189.030083 141.355909 
L 185.69661 146.376833 
L 182.87978 151.716394 
L 180.609934 157.321496 
L 178.911961 163.136167 
L 177.805029 169.102117 
L 177.302371 175.159323 
L 177.411128 181.246635 
L 178.132261 187.302387 
L 179.460514 193.265029 
L 181.384452 199.073749 
L 183.886553 204.669092 
L 186.943367 209.993571 
L 190.525737 214.992257 
L 194.599068 219.613344 
L 199.12367 223.808687 
L 204.055138 227.534302 
L 209.34479 230.750829 
L 214.940146 233.423944 
L 220.785448 235.524726 
L 226.822218 237.029969 
L 232.989841 237.922434 
L 239.226173 238.191047 
L 245.468169 237.831031 
L 251.65252 236.843973 
L 257.716292 235.23783 
L 263.597573 233.026871 
L 269.236097 230.231549 
L 274.573868 226.878317 
L 279.555754 222.999375 
L 284.130054 218.632367 
L 288.249037 213.820011 
L 291.869441 208.609685 
L 294.952923 203.052958 
L 297.466465 197.205085 
L 299.382729 191.12445 
L 300.680351 184.871992 
L 301.344176 178.510587 
L 301.365435 172.10442 
L 300.741853 165.718336 
L 299.477692 159.417182 
L 297.583727 153.265152 
L 295.077164 147.325131 
L 291.981478 141.658053 
L 288.326199 136.322274 
L 284.14663 131.372973 
L 279.483507 126.861584 
L 274.382603 122.835256 
L 268.894279 119.336366 
L 263.072986 116.402071 
L 256.976726 114.063916 
L 250.666475 112.347493 
L 244.205569 111.272167 
L 237.659077 110.850856 
L 231.093134 111.089881 
L 224.574285 111.988882 
L 218.1688 113.540799 
L 211.942008 115.731925 
L 205.957627 118.542023 
L 200.277111 121.944512 
L 194.959024 125.906715 
L 190.058432 130.390177 
L 185.626333 135.351032 
L 181.70913 140.740434 
L 178.348144 146.505039 
L 175.579177 152.58753 
L 173.432135 158.927188 
L 171.930703 165.460499 
L 171.092089 172.121789 
L 170.926827 178.843883 
L 171.438648 185.558787 
L 172.624427 192.19837 
L 174.47419 198.695058 
L 176.971192 204.982524 
L 180.092072 210.996358 
L 183.807069 216.674737 
L 188.080299 221.959051 
L 192.870109 226.794512 
L 198.129477 231.130723 
L 203.806475 234.9222 
L 209.84478 238.128849 
L 216.184235 240.716391 
L 222.761448 242.656724 
L 229.510422 243.928231 
L 236.363221 244.516017 
L 243.250654 244.412078 
L 250.10297 243.615405 
L 256.850569 242.132017 
L 263.424704 239.974917 
L 269.758187 237.163982 
L 275.786071 233.725782 
L 281.446317 229.693331 
L 286.680433 225.105769 
L 291.434079 220.007984 
L 295.65763 214.450173 
L 299.306691 208.487348 
L 302.342567 202.178793 
L 304.732672 195.587471 
L 306.450874 188.7794 
L 307.477783 181.822991 
L 307.800966 174.788357 
L 307.415092 167.746613 
L 306.322011 160.76915 
L 304.53075 153.926916 
L 302.057449 147.289691 
L 298.925212 140.925381 
L 295.163896 134.899316 
L 290.809826 129.273585 
L 285.905445 124.106396 
L 280.498904 119.451471 
L 274.643583 115.35749 
L 268.397572 111.867581 
L 261.823089 109.018871 
L 254.985864 106.842084 
L 247.954479 105.361219 
L 240.799683 104.593281 
L 233.593679 104.548093 
L 226.409395 105.228173 
L 219.319745 106.628687 
L 212.396892 108.737483 
L 205.711511 111.535184 
L 199.332067 114.995373 
L 193.324117 119.084838 
L 187.749634 123.763886 
L 182.666368 128.986735 
L 178.12725 134.701956 
L 174.179838 140.85298 
L 170.865823 147.378658 
L 168.220586 154.21387 
L 166.272826 161.290173 
L 165.044244 168.536488 
L 164.549307 175.879811 
L 164.795082 183.24595 
L 165.78114 190.560278 
L 167.499541 197.748483 
L 169.934898 204.737327 
L 173.064505 211.45539 
L 176.858552 217.833802 
L 181.280406 223.806948 
L 186.286966 229.313141 
L 191.829081 234.295262 
L 197.852031 238.701349 
L 204.296069 242.485141 
L 211.097012 245.606562 
L 218.18688 248.032144 
L 225.494579 249.735386 
L 232.946607 250.697041 
L 240.467801 250.905332 
L 247.982087 250.35609 
L 255.413259 249.05282 
L 262.685741 247.006683 
L 269.725366 244.236406 
L 276.460124 240.768113 
L 282.820905 236.635077 
L 288.742202 231.877403 
L 294.162791 226.541642 
L 299.026359 220.680333 
L 303.282094 214.351486 
L 306.885209 207.618012 
L 309.797418 200.547092 
L 311.987339 193.209512 
L 313.43083 185.678951 
L 314.111259 178.031245 
L 314.019684 170.343619 
L 313.154973 162.693909 
L 311.52383 155.159775 
L 309.140751 147.817911 
L 306.027897 140.743266 
L 302.21489 134.008277 
L 297.738529 127.682129 
L 292.642441 121.830042 
L 286.976653 116.512603 
L 280.797102 111.785137 
L 274.165082 107.697128 
L 267.146641 104.29171 
L 259.811915 101.605203 
L 252.234436 99.666736 
L 244.490389 98.497924 
L 236.657848 98.112635 
L 228.815991 98.516828 
L 221.044295 99.708469 
L 213.421735 101.677534 
L 206.025977 104.406088 
L 198.932592 107.868447 
L 192.21428 112.031419 
L 185.940125 116.854619 
L 180.174888 122.290863 
L 174.978335 128.286627 
L 170.404621 134.782575 
L 166.501723 141.714145 
L 163.31094 149.012189 
L 160.866455 156.603666 
L 159.194972 164.41237 
L 158.315424 172.359698 
L 158.238761 180.365438 
L 158.967819 188.348579 
L 160.497273 196.228134 
L 162.813663 203.923957 
L 165.89552 211.357562 
L 169.713552 218.45292 
L 174.230931 225.137241 
L 179.403643 231.341716 
L 185.180914 237.002227 
L 191.505713 242.06001 
L 198.315312 246.462264 
L 205.541906 250.162703 
L 213.113293 253.122037 
L 220.953588 255.308396 
L 228.983993 256.697665 
L 237.123579 257.273753 
L 245.290108 257.028773 
L 253.400863 255.963146 
L 261.373484 254.085614 
L 269.126805 251.413173 
L 276.581682 247.970924 
L 283.661796 243.791837 
L 290.294441 238.916435 
L 296.411266 233.392401 
L 301.948979 227.274118 
L 306.850004 220.622128 
L 311.063078 213.502533 
L 314.543785 205.986344 
L 317.255027 198.148769 
L 319.167415 190.068459 
L 320.259588 181.826722 
L 320.518449 173.506704 
L 319.939318 165.19255 
L 318.526002 156.968551 
L 316.290773 148.918294 
L 313.25427 141.123808 
L 309.445304 133.66473 
L 304.900593 126.617493 
L 299.664402 120.054538 
L 293.788117 114.043577 
L 287.329738 108.646887 
L 280.35331 103.92067 
L 272.928288 99.914467 
L 265.128842 96.670638 
L 257.03312 94.223919 
L 248.722463 92.601044 
L 240.280589 91.820462 
L 231.792751 91.892124 
L 223.34487 92.817367 
L 215.022674 94.588874 
L 206.910821 97.19073 
L 199.092041 100.598566 
L 191.646292 104.779778 
L 184.649941 109.693846 
L 178.174983 115.29272 
L 172.2883 121.521293 
L 167.050968 128.31794 
L 162.517627 135.61513 
L 158.735909 143.340095 
L 155.74594 151.415558 
L 153.579914 159.760502 
L 152.261748 168.290985 
L 151.80682 176.920986 
L 152.221791 185.563268 
L 153.50452 194.130264 
L 155.644063 202.534963 
L 158.620762 210.691793 
L 162.406427 218.517493 
L 166.964597 225.931961 
L 172.250895 232.859077 
L 178.213458 239.227482 
L 184.793442 244.971313 
L 191.925607 250.030885 
L 199.538962 254.353309 
L 207.55747 257.893048 
L 215.900808 260.612389 
L 224.485173 262.481853 
L 233.224122 263.480504 
L 242.029443 263.596188 
L 250.812046 262.825673 
L 259.482862 261.174706 
L 267.953751 258.65797 
L 276.138391 255.298963 
L 283.953167 251.129774 
L 291.318015 246.19078 
L 298.157249 240.530256 
L 304.400337 234.203905 
L 309.982626 227.274307 
L 314.846014 219.810303 
L 318.939554 211.886308 
L 322.219984 203.581576 
L 324.652188 194.979398 
L 326.209566 186.166277 
L 326.874327 177.231048 
L 326.637689 168.26399 
L 325.499986 159.355912 
L 323.470689 150.597231 
L 320.568329 142.077056 
L 316.820328 133.882284 
L 312.262745 126.096709 
L 306.939928 118.800167 
L 300.904084 112.067719 
L 294.214764 105.968878 
L 286.938282 100.566893 
L 279.147053 95.918089 
L 270.918873 92.071285 
L 262.336145 89.067281 
L 253.485051 86.938425 
L 244.454689 85.708265 
L 235.336174 85.391293 
L 226.22172 85.992777 
L 217.203709 87.508685 
L 208.373749 89.925709 
L 199.82175 93.221373 
L 191.635005 97.364246 
L 183.897299 102.314238 
L 176.688055 108.022987 
L 170.081513 114.434334 
L 164.145972 121.484869 
L 158.943078 129.104565 
L 154.527191 137.217466 
L 150.944813 145.74245 
L 148.234098 154.594038 
L 146.424451 163.68325 
L 145.536209 172.918498 
L 145.580412 182.206514 
L 146.558673 191.453289 
L 148.463141 200.565021 
L 151.276559 209.449074 
L 154.972418 218.014913 
L 159.515205 226.175031 
L 164.860746 233.84584 
L 170.956632 240.948529 
L 177.742731 247.409873 
L 185.151787 253.162987 
L 193.110079 258.148018 
L 201.538159 262.312768 
L 210.351642 265.613241 
L 219.462055 268.014105 
L 228.77772 269.489068 
L 238.20468 270.021168 
L 247.647645 269.602962 
L 257.010957 268.236623 
L 266.199555 265.933942 
L 275.119947 262.716223 
L 283.681153 258.614093 
L 291.795639 253.667208 
L 299.380211 247.923875 
L 306.356865 241.440576 
L 312.65359 234.281416 
L 318.205114 226.517487 
L 322.953575 218.226166 
L 326.84913 209.490341 
L 329.850471 200.397582 
L 331.925266 191.039268 
L 333.050505 181.509663 
L 333.212755 171.904968 
L 332.408313 162.322353 
L 330.643266 152.858971 
L 327.933452 143.610973 
L 324.304317 134.672532 
L 319.790681 126.134884 
L 314.436402 118.085398 
L 308.293952 110.606677 
L 301.423901 103.77572 
L 293.894326 97.663118 
L 285.78013 92.332333 
L 277.162299 87.839038 
L 268.127098 84.230534 
L 258.765201 81.545254 
L 249.170786 79.812354 
L 239.440587 79.051401 
L 229.672916 79.272151 
L 219.966672 80.474428 
L 210.420339 82.648111 
L 201.130987 85.773211 
L 192.193285 89.820053 
L 183.698535 94.74956 
L 175.733741 100.513625 
L 168.380719 107.055584 
L 161.715253 114.310769 
L 155.806317 122.207149 
L 150.715361 130.666046 
L 146.495674 139.602915 
L 143.191824 148.928191 
L 140.839188 158.548189 
L 139.463578 168.36604 
L 139.080957 178.282671 
L 139.697256 188.197801 
L 141.308294 198.01096 
L 143.899802 207.6225 
L 147.44754 216.934614 
L 151.917532 225.852327 
L 157.266383 234.284465 
L 163.441699 242.14459 
L 170.382606 249.351881 
L 178.020344 255.831969 
L 186.278951 261.517703 
L 195.076016 266.349844 
L 204.323502 270.277683 
L 213.928628 273.259574 
L 223.794799 275.26337 
L 233.822576 276.266772 
L 243.910683 276.257577 
L 253.957021 275.233816 
L 263.859713 273.2038 
L 273.518125 270.186053 
L 282.833898 266.209151 
L 291.711946 261.311443 
L 300.061425 255.540693 
L 307.796665 248.953605 
L 314.838048 241.615274 
L 321.112826 233.598539 
L 326.555875 224.983259 
L 331.110369 215.855523 
L 334.728369 206.306785 
L 337.371336 196.43295 
L 339.01053 186.333411 
L 339.627329 176.110045 
L 339.627329 176.110045 
" clip-path="url(#p7b40e9fe81)" style="fill: none; stroke-dasharray: 9.6,2.4,1.5,2.4; stroke-dashoffset: 0; stroke: #800080; stroke-width: 1.5"/>
   </g>
   <g id="line2d_14">
    <path d="M 320.484447 172.240946 
L 312.761926 140.047184 
L 302.763476 123.773419 
L 289.326543 110.199429 
L 273.161581 100.026016 
L 255.114733 93.77177 
L 236.122316 91.7488 
L 217.161542 94.04953 
L 199.200089 100.544949 
L 183.147102 110.894144 
L 169.808073 124.564351 
L 159.845769 140.860262 
L 153.749011 158.960918 
L 151.810675 177.962156 
L 154.115785 196.922395 
L 160.54004 214.909421 
L 170.758608 231.045871 
L 184.264524 244.551216 
L 200.395569 254.778311 
L 218.368152 261.242857 
L 237.316397 263.644543 
L 256.334469 261.879035 
L 274.520044 256.040465 
L 291.016857 246.414499 
L 305.054336 233.462542 
L 315.982555 217.797995 
L 323.300962 200.15586 
L 326.67971 181.357241 
L 325.972759 162.270487 
L 321.222335 143.770827 
L 312.654731 126.700381 
L 300.667817 111.83035 
L 285.811028 99.827028 
L 268.758854 91.223118 
L 250.279194 86.395479 
L 231.198068 85.550195 
L 212.362329 88.715445 
L 194.602077 95.742345 
L 178.694417 106.313541 
L 165.330115 119.959027 
L 155.084561 136.078346 
L 148.394177 153.96808 
L 145.539204 172.853337 
L 146.633455 191.921804 
L 151.621342 210.358853 
L 160.282145 227.382198 
L 172.241207 242.274632 
L 186.987435 254.413517 
L 203.896251 263.295841 
L 222.25693 268.557897 
L 241.303086 269.988866 
L 260.245005 267.537866 
L 278.302439 261.314297 
L 294.736507 251.581615 
L 308.879434 238.744897 
L 320.160936 223.332844 
L 328.130271 205.97504 
L 332.473135 187.375491 
L 333.022825 168.283569 
L 329.765342 149.463567 
L 322.838336 131.664123 
L 312.524055 115.588699 
L 299.236688 101.868294 
L 283.504712 91.037387 
L 265.949014 83.51402 
L 247.257731 79.584701 
L 228.158844 79.394639 
L 209.391622 82.943577 
L 191.678039 90.087283 
L 175.695263 100.544551 
L 162.05025 113.909325 
L 151.25736 129.667405 
L 143.719802 147.217014 
L 139.715533 165.892382 
L 139.388056 184.989405 
L 142.742385 203.792384 
L 149.646229 221.600822 
L 159.836255 237.755292 
L 172.929112 251.661426 
L 188.436736 262.811184 
L 205.785277 270.800655 
L 224.336911 275.343818 
L 243.413694 276.281822 
L 262.322534 273.587521 
L 280.38039 267.365198 
L 296.938765 257.845552 
L 311.406638 245.376225 
L 323.27103 230.408271 
L 332.114531 213.479126 
L 337.629201 195.192742 
L 339.62642 176.197623 
L 338.042419 157.163591 
L 332.939347 138.7581 
L 324.501942 121.622943 
L 313.029963 106.352151 
L 298.926742 93.471833 
L 282.684302 83.422628 
L 264.865607 76.545309 
L 246.084614 73.070013 
L 226.984828 73.109371 
L 208.217126 76.655743 
L 190.417611 83.582549 
L 174.186241 93.649623 
L 160.066942 106.512312 
L 148.529855 121.733974 
L 139.956265 138.801396 
L 134.626679 157.142575 
L 132.712403 176.14623 
L 134.270827 195.182371 
L 139.24453 213.623239 
L 147.464168 230.863914 
L 158.654992 246.341924 
L 172.446722 259.555231 
L 188.386415 270.078039 
L 205.953854 277.573932 
L 224.57892 281.80598 
L 243.660373 282.643507 
L 262.585398 280.065387 
L 280.749296 274.159788 
L 297.574676 265.120435 
L 312.529559 253.239578 
L 325.143833 238.897913 
L 335.02356 222.551835 
L 341.862724 204.718464 
L 345.452088 185.95894 
L 345.684925 166.860536 
L 342.559494 148.018165 
L 336.17823 130.015867 
L 326.743725 113.40884 
L 314.551663 98.706565 
L 299.980983 86.357536 
L 283.481601 76.736016 
L 265.560107 70.131224 
L 246.763896 66.739221 
L 227.664247 66.657715 
L 208.838865 69.883894 
L 190.854428 76.315318 
L 174.249653 85.753786 
L 159.519399 97.912027 
L 147.100245 112.422983 
L 137.357964 128.851348 
L 130.577234 146.707016 
L 126.95386 165.459999 
L 126.5897 184.556349 
L 129.490403 203.43462 
L 135.565992 221.542365 
L 144.634229 238.352191 
L 156.426633 253.376916 
L 170.596931 266.183393 
L 186.731667 276.404619 
L 204.362642 283.749815 
L 222.980784 288.012202 
L 242.051053 289.074291 
L 261.027918 286.910556 
L 279.370982 281.587477 
L 296.560284 273.26095 
L 312.11087 262.171205 
L 325.586219 248.635397 
L 336.610169 233.0381 
L 344.877019 215.820018 
L 350.159563 197.46524 
L 352.314842 178.487413 
L 351.287503 159.415242 
L 347.110687 140.777717 
L 339.904467 123.089486 
L 329.871897 106.836773 
L 317.292831 92.464222 
L 302.515693 80.36301 
L 285.947461 70.860548 
L 268.042149 64.212019 
L 249.288141 60.593965 
L 230.194708 60.100073 
L 211.278103 62.739231 
L 193.047605 68.435901 
L 175.991891 77.032745 
L 160.566094 88.295422 
L 147.179885 101.91939 
L 136.186886 117.538515 
L 127.87567 134.735223 
L 122.462581 153.051925 
L 120.086525 172.003375 
L 120.805849 191.089644 
L 124.597377 209.80935 
L 131.357578 227.672798 
L 140.905827 244.214684 
L 152.989643 259.006049 
L 167.291738 271.665163 
L 183.438681 281.867089 
L 201.010927 289.35169 
L 219.553938 293.929879 
L 238.590096 295.488 
L 257.631097 293.99022 
L 276.190495 289.478923 
L 293.796086 282.073098 
L 310.001806 271.9648 
L 324.398865 259.413794 
L 336.625823 244.740534 
L 346.377386 228.317683 
L 353.411707 210.560392 
L 357.556025 191.915616 
L 358.710528 172.850722 
L 356.850359 153.841703 
L 352.025743 135.361277 
L 344.360241 117.867189 
L 334.047218 101.790977 
L 321.344611 87.527499 
L 306.568159 75.425453 
L 290.08328 65.779117 
L 272.295796 58.821499 
L 253.641765 54.719042 
L 234.576663 53.568 
L 215.564193 55.392552 
L 197.064995 60.144681 
L 179.525537 67.705794 
L 163.367435 77.890035 
L 148.977478 90.449181 
L 136.698571 105.078994 
L 126.821809 121.426856 
L 119.57986 139.100486 
L 115.141795 157.677531 
L 113.609472 176.715781 
L 115.01555 195.763772 
L 119.323148 214.371502 
L 126.427147 232.101031 
L 126.427147 232.101031 
" clip-path="url(#p7b40e9fe81)" style="fill: none; stroke: #a52a2a; stroke-width: 1.5; stroke-linecap: square"/>
   </g>
   <g id="patch_3">
    <path d="M 57.6 307.584 
L 57.6 41.472 
" style="fill: none; stroke: #ffffff; stroke-linejoin: miter; stroke-linecap: square"/>
   </g>
   <g id="patch_4">
    <path d="M 414.72 307.584 
L 414.72 41.472 
" style="fill: none; stroke: #ffffff; stroke-linejoin: miter; stroke-linecap: square"/>
   </g>
   <g id="patch_5">
    <path d="M 57.6 307.584 
L 414.72 307.584 
" style="fill: none; stroke: #ffffff; stroke-linejoin: miter; stroke-linecap: square"/>
   </g>
   <g id="patch_6">
    <path d="M 57.6 41.472 
L 414.72 41.472 
" style="fill: none; stroke: #ffffff; stroke-linejoin: miter; stroke-linecap: square"/>
   </g>
   <g id="PathCollection_1">
    <defs>
     <path id="m4f73ac7fbd" d="M 0 1.224745 
C 0.324806 1.224745 0.636353 1.095698 0.866025 0.866025 
C 1.095698 0.636353 1.224745 0.324806 1.224745 0 
C 1.224745 -0.324806 1.095698 -0.636353 0.866025 -0.866025 
C 0.636353 -1.095698 0.324806 -1.224745 0 -1.224745 
C -0.324806 -1.224745 -0.636353 -1.095698 -0.866025 -0.866025 
C -1.095698 -0.636353 -1.224745 -0.324806 -1.224745 0 
C -1.224745 0.324806 -1.095698 0.636353 -0.866025 0.866025 
C -0.636353 1.095698 -0.324806 1.224745 0 1.224745 
z
" style="stroke: #000000; stroke-width: 0.5"/>
    </defs>
    <g clip-path="url(#p7b40e9fe81)">
     <use xlink:href="#m4f73ac7fbd" x="320.484447" y="172.240946" style="stroke: #000000; stroke-width: 0.5"/>
     <use xlink:href="#m4f73ac7fbd" x="312.761926" y="140.047184" style="stroke: #000000; stroke-width: 0.5"/>
     <use xlink:href="#m4f73ac7fbd" x="302.763476" y="123.773419" style="stroke: #000000; stroke-width: 0.5"/>
     <use xlink:href="#m4f73ac7fbd" x="289.326543" y="110.199429" style="stroke: #000000; stroke-width: 0.5"/>
     <use xlink:href="#m4f73ac7fbd" x="273.161581" y="100.026016" style="stroke: #000000; stroke-width: 0.5"/>
     <use xlink:href="#m4f73ac7fbd" x="255.114733" y="93.77177" style="stroke: #000000; stroke-width: 0.5"/>
     <use xlink:href="#m4f73ac7fbd" x="236.122316" y="91.7488" style="stroke: #000000; stroke-width: 0.5"/>
     <use xlink:href="#m4f73ac7fbd" x="217.161542" y="94.04953" style="stroke: #000000; stroke-width: 0.5"/>
     <use xlink:href="#m4f73ac7fbd" x="199.200089" y="100.544949" style="stroke: #000000; stroke-width: 0.5"/>
     <use xlink:href="#m4f73ac7fbd" x="183.147102" y="110.894144" style="stroke: #000000; stroke-width: 0.5"/>
     <use xlink:href="#m4f73ac7fbd" x="169.808073" y="124.564351" style="stroke: #000000; stroke-width: 0.5"/>
     <use xlink:href="#m4f73ac7fbd" x="159.845769" y="140.860262" style="stroke: #000000; stroke-width: 0.5"/>
     <use xlink:href="#m4f73ac7fbd" x="153.749011" y="158.960918" style="stroke: #000000; stroke-width: 0.5"/>
     <use xlink:href="#m4f73ac7fbd" x="151.810675" y="177.962156" style="stroke: #000000; stroke-width: 0.5"/>
     <use xlink:href="#m4f73ac7fbd" x="154.115785" y="196.922395" style="stroke: #000000; stroke-width: 0.5"/>
     <use xlink:href="#m4f73ac7fbd" x="160.54004" y="214.909421" style="stroke: #000000; stroke-width: 0.5"/>
     <use xlink:href="#m4f73ac7fbd" x="170.758608" y="231.045871" style="stroke: #000000; stroke-width: 0.5"/>
     <use xlink:href="#m4f73ac7fbd" x="184.264524" y="244.551216" style="stroke: #000000; stroke-width: 0.5"/>
     <use xlink:href="#m4f73ac7fbd" x="200.395569" y="254.778311" style="stroke: #000000; stroke-width: 0.5"/>
     <use xlink:href="#m4f73ac7fbd" x="218.368152" y="261.242857" style="stroke: #000000; stroke-width: 0.5"/>
     <use xlink:href="#m4f73ac7fbd" x="237.316397" y="263.644543" style="stroke: #000000; stroke-width: 0.5"/>
     <use xlink:href="#m4f73ac7fbd" x="256.334469" y="261.879035" style="stroke: #000000; stroke-width: 0.5"/>
     <use xlink:href="#m4f73ac7fbd" x="274.520044" y="256.040465" style="stroke: #000000; stroke-width: 0.5"/>
     <use xlink:href="#m4f73ac7fbd" x="291.016857" y="246.414499" style="stroke: #000000; stroke-width: 0.5"/>
     <use xlink:href="#m4f73ac7fbd" x="305.054336" y="233.462542" style="stroke: #000000; stroke-width: 0.5"/>
     <use xlink:href="#m4f73ac7fbd" x="315.982555" y="217.797995" style="stroke: #000000; stroke-width: 0.5"/>
     <use xlink:href="#m4f73ac7fbd" x="323.300962" y="200.15586" style="stroke: #000000; stroke-width: 0.5"/>
     <use xlink:href="#m4f73ac7fbd" x="326.67971" y="181.357241" style="stroke: #000000; stroke-width: 0.5"/>
     <use xlink:href="#m4f73ac7fbd" x="325.972759" y="162.270487" style="stroke: #000000; stroke-width: 0.5"/>
     <use xlink:href="#m4f73ac7fbd" x="321.222335" y="143.770827" style="stroke: #000000; stroke-width: 0.5"/>
     <use xlink:href="#m4f73ac7fbd" x="312.654731" y="126.700381" style="stroke: #000000; stroke-width: 0.5"/>
     <use xlink:href="#m4f73ac7fbd" x="300.667817" y="111.83035" style="stroke: #000000; stroke-width: 0.5"/>
     <use xlink:href="#m4f73ac7fbd" x="285.811028" y="99.827028" style="stroke: #000000; stroke-width: 0.5"/>
     <use xlink:href="#m4f73ac7fbd" x="268.758854" y="91.223118" style="stroke: #000000; stroke-width: 0.5"/>
     <use xlink:href="#m4f73ac7fbd" x="250.279194" y="86.395479" style="stroke: #000000; stroke-width: 0.5"/>
     <use xlink:href="#m4f73ac7fbd" x="231.198068" y="85.550195" style="stroke: #000000; stroke-width: 0.5"/>
     <use xlink:href="#m4f73ac7fbd" x="212.362329" y="88.715445" style="stroke: #000000; stroke-width: 0.5"/>
     <use xlink:href="#m4f73ac7fbd" x="194.602077" y="95.742345" style="stroke: #000000; stroke-width: 0.5"/>
     <use xlink:href="#m4f73ac7fbd" x="178.694417" y="106.313541" style="stroke: #000000; stroke-width: 0.5"/>
     <use xlink:href="#m4f73ac7fbd" x="165.330115" y="119.959027" style="stroke: #000000; stroke-width: 0.5"/>
     <use xlink:href="#m4f73ac7fbd" x="155.084561" y="136.078346" style="stroke: #000000; stroke-width: 0.5"/>
     <use xlink:href="#m4f73ac7fbd" x="148.394177" y="153.96808" style="stroke: #000000; stroke-width: 0.5"/>
     <use xlink:href="#m4f73ac7fbd" x="145.539204" y="172.853337" style="stroke: #000000; stroke-width: 0.5"/>
     <use xlink:href="#m4f73ac7fbd" x="146.633455" y="191.921804" style="stroke: #000000; stroke-width: 0.5"/>
     <use xlink:href="#m4f73ac7fbd" x="151.621342" y="210.358853" style="stroke: #000000; stroke-width: 0.5"/>
     <use xlink:href="#m4f73ac7fbd" x="160.282145" y="227.382198" style="stroke: #000000; stroke-width: 0.5"/>
     <use xlink:href="#m4f73ac7fbd" x="172.241207" y="242.274632" style="stroke: #000000; stroke-width: 0.5"/>
     <use xlink:href="#m4f73ac7fbd" x="186.987435" y="254.413517" style="stroke: #000000; stroke-width: 0.5"/>
     <use xlink:href="#m4f73ac7fbd" x="203.896251" y="263.295841" style="stroke: #000000; stroke-width: 0.5"/>
     <use xlink:href="#m4f73ac7fbd" x="222.25693" y="268.557897" style="stroke: #000000; stroke-width: 0.5"/>
     <use xlink:href="#m4f73ac7fbd" x="241.303086" y="269.988866" style="stroke: #000000; stroke-width: 0.5"/>
     <use xlink:href="#m4f73ac7fbd" x="260.245005" y="267.537866" style="stroke: #000000; stroke-width: 0.5"/>
     <use xlink:href="#m4f73ac7fbd" x="278.302439" y="261.314297" style="stroke: #000000; stroke-width: 0.5"/>
     <use xlink:href="#m4f73ac7fbd" x="294.736507" y="251.581615" style="stroke: #000000; stroke-width: 0.5"/>
     <use xlink:href="#m4f73ac7fbd" x="308.879434" y="238.744897" style="stroke: #000000; stroke-width: 0.5"/>
     <use xlink:href="#m4f73ac7fbd" x="320.160936" y="223.332844" style="stroke: #000000; stroke-width: 0.5"/>
     <use xlink:href="#m4f73ac7fbd" x="328.130271" y="205.97504" style="stroke: #000000; stroke-width: 0.5"/>
     <use xlink:href="#m4f73ac7fbd" x="332.473135" y="187.375491" style="stroke: #000000; stroke-width: 0.5"/>
     <use xlink:href="#m4f73ac7fbd" x="333.022825" y="168.283569" style="stroke: #000000; stroke-width: 0.5"/>
     <use xlink:href="#m4f73ac7fbd" x="329.765342" y="149.463567" style="stroke: #000000; stroke-width: 0.5"/>
     <use xlink:href="#m4f73ac7fbd" x="322.838336" y="131.664123" style="stroke: #000000; stroke-width: 0.5"/>
     <use xlink:href="#m4f73ac7fbd" x="312.524055" y="115.588699" style="stroke: #000000; stroke-width: 0.5"/>
     <use xlink:href="#m4f73ac7fbd" x="299.236688" y="101.868294" style="stroke: #000000; stroke-width: 0.5"/>
     <use xlink:href="#m4f73ac7fbd" x="283.504712" y="91.037387" style="stroke: #000000; stroke-width: 0.5"/>
     <use xlink:href="#m4f73ac7fbd" x="265.949014" y="83.51402" style="stroke: #000000; stroke-width: 0.5"/>
     <use xlink:href="#m4f73ac7fbd" x="247.257731" y="79.584701" style="stroke: #000000; stroke-width: 0.5"/>
     <use xlink:href="#m4f73ac7fbd" x="228.158844" y="79.394639" style="stroke: #000000; stroke-width: 0.5"/>
     <use xlink:href="#m4f73ac7fbd" x="209.391622" y="82.943577" style="stroke: #000000; stroke-width: 0.5"/>
     <use xlink:href="#m4f73ac7fbd" x="191.678039" y="90.087283" style="stroke: #000000; stroke-width: 0.5"/>
     <use xlink:href="#m4f73ac7fbd" x="175.695263" y="100.544551" style="stroke: #000000; stroke-width: 0.5"/>
     <use xlink:href="#m4f73ac7fbd" x="162.05025" y="113.909325" style="stroke: #000000; stroke-width: 0.5"/>
     <use xlink:href="#m4f73ac7fbd" x="151.25736" y="129.667405" style="stroke: #000000; stroke-width: 0.5"/>
     <use xlink:href="#m4f73ac7fbd" x="143.719802" y="147.217014" style="stroke: #000000; stroke-width: 0.5"/>
     <use xlink:href="#m4f73ac7fbd" x="139.715533" y="165.892382" style="stroke: #000000; stroke-width: 0.5"/>
     <use xlink:href="#m4f73ac7fbd" x="139.388056" y="184.989405" style="stroke: #000000; stroke-width: 0.5"/>
     <use xlink:href="#m4f73ac7fbd" x="142.742385" y="203.792384" style="stroke: #000000; stroke-width: 0.5"/>
     <use xlink:href="#m4f73ac7fbd" x="149.646229" y="221.600822" style="stroke: #000000; stroke-width: 0.5"/>
     <use xlink:href="#m4f73ac7fbd" x="159.836255" y="237.755292" style="stroke: #000000; stroke-width: 0.5"/>
     <use xlink:href="#m4f73ac7fbd" x="172.929112" y="251.661426" style="stroke: #000000; stroke-width: 0.5"/>
     <use xlink:href="#m4f73ac7fbd" x="188.436736" y="262.811184" style="stroke: #000000; stroke-width: 0.5"/>
     <use xlink:href="#m4f73ac7fbd" x="205.785277" y="270.800655" style="stroke: #000000; stroke-width: 0.5"/>
     <use xlink:href="#m4f73ac7fbd" x="224.336911" y="275.343818" style="stroke: #000000; stroke-width: 0.5"/>
     <use xlink:href="#m4f73ac7fbd" x="243.413694" y="276.281822" style="stroke: #000000; stroke-width: 0.5"/>
     <use xlink:href="#m4f73ac7fbd" x="262.322534" y="273.587521" style="stroke: #000000; stroke-width: 0.5"/>
     <use xlink:href="#m4f73ac7fbd" x="280.38039" y="267.365198" style="stroke: #000000; stroke-width: 0.5"/>
     <use xlink:href="#m4f73ac7fbd" x="296.938765" y="257.845552" style="stroke: #000000; stroke-width: 0.5"/>
     <use xlink:href="#m4f73ac7fbd" x="311.406638" y="245.376225" style="stroke: #000000; stroke-width: 0.5"/>
     <use xlink:href="#m4f73ac7fbd" x="323.27103" y="230.408271" style="stroke: #000000; stroke-width: 0.5"/>
     <use xlink:href="#m4f73ac7fbd" x="332.114531" y="213.479126" style="stroke: #000000; stroke-width: 0.5"/>
     <use xlink:href="#m4f73ac7fbd" x="337.629201" y="195.192742" style="stroke: #000000; stroke-width: 0.5"/>
     <use xlink:href="#m4f73ac7fbd" x="339.62642" y="176.197623" style="stroke: #000000; stroke-width: 0.5"/>
     <use xlink:href="#m4f73ac7fbd" x="338.042419" y="157.163591" style="stroke: #000000; stroke-width: 0.5"/>
     <use xlink:href="#m4f73ac7fbd" x="332.939347" y="138.7581" style="stroke: #000000; stroke-width: 0.5"/>
     <use xlink:href="#m4f73ac7fbd" x="324.501942" y="121.622943" style="stroke: #000000; stroke-width: 0.5"/>
     <use xlink:href="#m4f73ac7fbd" x="313.029963" y="106.352151" style="stroke: #000000; stroke-width: 0.5"/>
     <use xlink:href="#m4f73ac7fbd" x="298.926742" y="93.471833" style="stroke: #000000; stroke-width: 0.5"/>
     <use xlink:href="#m4f73ac7fbd" x="282.684302" y="83.422628" style="stroke: #000000; stroke-width: 0.5"/>
     <use xlink:href="#m4f73ac7fbd" x="264.865607" y="76.545309" style="stroke: #000000; stroke-width: 0.5"/>
     <use xlink:href="#m4f73ac7fbd" x="246.084614" y="73.070013" style="stroke: #000000; stroke-width: 0.5"/>
     <use xlink:href="#m4f73ac7fbd" x="226.984828" y="73.109371" style="stroke: #000000; stroke-width: 0.5"/>
     <use xlink:href="#m4f73ac7fbd" x="208.217126" y="76.655743" style="stroke: #000000; stroke-width: 0.5"/>
     <use xlink:href="#m4f73ac7fbd" x="190.417611" y="83.582549" style="stroke: #000000; stroke-width: 0.5"/>
     <use xlink:href="#m4f73ac7fbd" x="174.186241" y="93.649623" style="stroke: #000000; stroke-width: 0.5"/>
     <use xlink:href="#m4f73ac7fbd" x="160.066942" y="106.512312" style="stroke: #000000; stroke-width: 0.5"/>
     <use xlink:href="#m4f73ac7fbd" x="148.529855" y="121.733974" style="stroke: #000000; stroke-width: 0.5"/>
     <use xlink:href="#m4f73ac7fbd" x="139.956265" y="138.801396" style="stroke: #000000; stroke-width: 0.5"/>
     <use xlink:href="#m4f73ac7fbd" x="134.626679" y="157.142575" style="stroke: #000000; stroke-width: 0.5"/>
     <use xlink:href="#m4f73ac7fbd" x="132.712403" y="176.14623" style="stroke: #000000; stroke-width: 0.5"/>
     <use xlink:href="#m4f73ac7fbd" x="134.270827" y="195.182371" style="stroke: #000000; stroke-width: 0.5"/>
     <use xlink:href="#m4f73ac7fbd" x="139.24453" y="213.623239" style="stroke: #000000; stroke-width: 0.5"/>
     <use xlink:href="#m4f73ac7fbd" x="147.464168" y="230.863914" style="stroke: #000000; stroke-width: 0.5"/>
     <use xlink:href="#m4f73ac7fbd" x="158.654992" y="246.341924" style="stroke: #000000; stroke-width: 0.5"/>
     <use xlink:href="#m4f73ac7fbd" x="172.446722" y="259.555231" style="stroke: #000000; stroke-width: 0.5"/>
     <use xlink:href="#m4f73ac7fbd" x="188.386415" y="270.078039" style="stroke: #000000; stroke-width: 0.5"/>
     <use xlink:href="#m4f73ac7fbd" x="205.953854" y="277.573932" style="stroke: #000000; stroke-width: 0.5"/>
     <use xlink:href="#m4f73ac7fbd" x="224.57892" y="281.80598" style="stroke: #000000; stroke-width: 0.5"/>
     <use xlink:href="#m4f73ac7fbd" x="243.660373" y="282.643507" style="stroke: #000000; stroke-width: 0.5"/>
     <use xlink:href="#m4f73ac7fbd" x="262.585398" y="280.065387" style="stroke: #000000; stroke-width: 0.5"/>
     <use xlink:href="#m4f73ac7fbd" x="280.749296" y="274.159788" style="stroke: #000000; stroke-width: 0.5"/>
     <use xlink:href="#m4f73ac7fbd" x="297.574676" y="265.120435" style="stroke: #000000; stroke-width: 0.5"/>
     <use xlink:href="#m4f73ac7fbd" x="312.529559" y="253.239578" style="stroke: #000000; stroke-width: 0.5"/>
     <use xlink:href="#m4f73ac7fbd" x="325.143833" y="238.897913" style="stroke: #000000; stroke-width: 0.5"/>
     <use xlink:href="#m4f73ac7fbd" x="335.02356" y="222.551835" style="stroke: #000000; stroke-width: 0.5"/>
     <use xlink:href="#m4f73ac7fbd" x="341.862724" y="204.718464" style="stroke: #000000; stroke-width: 0.5"/>
     <use xlink:href="#m4f73ac7fbd" x="345.452088" y="185.95894" style="stroke: #000000; stroke-width: 0.5"/>
     <use xlink:href="#m4f73ac7fbd" x="345.684925" y="166.860536" style="stroke: #000000; stroke-width: 0.5"/>
     <use xlink:href="#m4f73ac7fbd" x="342.559494" y="148.018165" style="stroke: #000000; stroke-width: 0.5"/>
     <use xlink:href="#m4f73ac7fbd" x="336.17823" y="130.015867" style="stroke: #000000; stroke-width: 0.5"/>
     <use xlink:href="#m4f73ac7fbd" x="326.743725" y="113.40884" style="stroke: #000000; stroke-width: 0.5"/>
     <use xlink:href="#m4f73ac7fbd" x="314.551663" y="98.706565" style="stroke: #000000; stroke-width: 0.5"/>
     <use xlink:href="#m4f73ac7fbd" x="299.980983" y="86.357536" style="stroke: #000000; stroke-width: 0.5"/>
     <use xlink:href="#m4f73ac7fbd" x="283.481601" y="76.736016" style="stroke: #000000; stroke-width: 0.5"/>
     <use xlink:href="#m4f73ac7fbd" x="265.560107" y="70.131224" style="stroke: #000000; stroke-width: 0.5"/>
     <use xlink:href="#m4f73ac7fbd" x="246.763896" y="66.739221" style="stroke: #000000; stroke-width: 0.5"/>
     <use xlink:href="#m4f73ac7fbd" x="227.664247" y="66.657715" style="stroke: #000000; stroke-width: 0.5"/>
     <use xlink:href="#m4f73ac7fbd" x="208.838865" y="69.883894" style="stroke: #000000; stroke-width: 0.5"/>
     <use xlink:href="#m4f73ac7fbd" x="190.854428" y="76.315318" style="stroke: #000000; stroke-width: 0.5"/>
     <use xlink:href="#m4f73ac7fbd" x="174.249653" y="85.753786" style="stroke: #000000; stroke-width: 0.5"/>
     <use xlink:href="#m4f73ac7fbd" x="159.519399" y="97.912027" style="stroke: #000000; stroke-width: 0.5"/>
     <use xlink:href="#m4f73ac7fbd" x="147.100245" y="112.422983" style="stroke: #000000; stroke-width: 0.5"/>
     <use xlink:href="#m4f73ac7fbd" x="137.357964" y="128.851348" style="stroke: #000000; stroke-width: 0.5"/>
     <use xlink:href="#m4f73ac7fbd" x="130.577234" y="146.707016" style="stroke: #000000; stroke-width: 0.5"/>
     <use xlink:href="#m4f73ac7fbd" x="126.95386" y="165.459999" style="stroke: #000000; stroke-width: 0.5"/>
     <use xlink:href="#m4f73ac7fbd" x="126.5897" y="184.556349" style="stroke: #000000; stroke-width: 0.5"/>
     <use xlink:href="#m4f73ac7fbd" x="129.490403" y="203.43462" style="stroke: #000000; stroke-width: 0.5"/>
     <use xlink:href="#m4f73ac7fbd" x="135.565992" y="221.542365" style="stroke: #000000; stroke-width: 0.5"/>
     <use xlink:href="#m4f73ac7fbd" x="144.634229" y="238.352191" style="stroke: #000000; stroke-width: 0.5"/>
     <use xlink:href="#m4f73ac7fbd" x="156.426633" y="253.376916" style="stroke: #000000; stroke-width: 0.5"/>
     <use xlink:href="#m4f73ac7fbd" x="170.596931" y="266.183393" style="stroke: #000000; stroke-width: 0.5"/>
     <use xlink:href="#m4f73ac7fbd" x="186.731667" y="276.404619" style="stroke: #000000; stroke-width: 0.5"/>
     <use xlink:href="#m4f73ac7fbd" x="204.362642" y="283.749815" style="stroke: #000000; stroke-width: 0.5"/>
     <use xlink:href="#m4f73ac7fbd" x="222.980784" y="288.012202" style="stroke: #000000; stroke-width: 0.5"/>
     <use xlink:href="#m4f73ac7fbd" x="242.051053" y="289.074291" style="stroke: #000000; stroke-width: 0.5"/>
     <use xlink:href="#m4f73ac7fbd" x="261.027918" y="286.910556" style="stroke: #000000; stroke-width: 0.5"/>
     <use xlink:href="#m4f73ac7fbd" x="279.370982" y="281.587477" style="stroke: #000000; stroke-width: 0.5"/>
     <use xlink:href="#m4f73ac7fbd" x="296.560284" y="273.26095" style="stroke: #000000; stroke-width: 0.5"/>
     <use xlink:href="#m4f73ac7fbd" x="312.11087" y="262.171205" style="stroke: #000000; stroke-width: 0.5"/>
     <use xlink:href="#m4f73ac7fbd" x="325.586219" y="248.635397" style="stroke: #000000; stroke-width: 0.5"/>
     <use xlink:href="#m4f73ac7fbd" x="336.610169" y="233.0381" style="stroke: #000000; stroke-width: 0.5"/>
     <use xlink:href="#m4f73ac7fbd" x="344.877019" y="215.820018" style="stroke: #000000; stroke-width: 0.5"/>
     <use xlink:href="#m4f73ac7fbd" x="350.159563" y="197.46524" style="stroke: #000000; stroke-width: 0.5"/>
     <use xlink:href="#m4f73ac7fbd" x="352.314842" y="178.487413" style="stroke: #000000; stroke-width: 0.5"/>
     <use xlink:href="#m4f73ac7fbd" x="351.287503" y="159.415242" style="stroke: #000000; stroke-width: 0.5"/>
     <use xlink:href="#m4f73ac7fbd" x="347.110687" y="140.777717" style="stroke: #000000; stroke-width: 0.5"/>
     <use xlink:href="#m4f73ac7fbd" x="339.904467" y="123.089486" style="stroke: #000000; stroke-width: 0.5"/>
     <use xlink:href="#m4f73ac7fbd" x="329.871897" y="106.836773" style="stroke: #000000; stroke-width: 0.5"/>
     <use xlink:href="#m4f73ac7fbd" x="317.292831" y="92.464222" style="stroke: #000000; stroke-width: 0.5"/>
     <use xlink:href="#m4f73ac7fbd" x="302.515693" y="80.36301" style="stroke: #000000; stroke-width: 0.5"/>
     <use xlink:href="#m4f73ac7fbd" x="285.947461" y="70.860548" style="stroke: #000000; stroke-width: 0.5"/>
     <use xlink:href="#m4f73ac7fbd" x="268.042149" y="64.212019" style="stroke: #000000; stroke-width: 0.5"/>
     <use xlink:href="#m4f73ac7fbd" x="249.288141" y="60.593965" style="stroke: #000000; stroke-width: 0.5"/>
     <use xlink:href="#m4f73ac7fbd" x="230.194708" y="60.100073" style="stroke: #000000; stroke-width: 0.5"/>
     <use xlink:href="#m4f73ac7fbd" x="211.278103" y="62.739231" style="stroke: #000000; stroke-width: 0.5"/>
     <use xlink:href="#m4f73ac7fbd" x="193.047605" y="68.435901" style="stroke: #000000; stroke-width: 0.5"/>
     <use xlink:href="#m4f73ac7fbd" x="175.991891" y="77.032745" style="stroke: #000000; stroke-width: 0.5"/>
     <use xlink:href="#m4f73ac7fbd" x="160.566094" y="88.295422" style="stroke: #000000; stroke-width: 0.5"/>
     <use xlink:href="#m4f73ac7fbd" x="147.179885" y="101.91939" style="stroke: #000000; stroke-width: 0.5"/>
     <use xlink:href="#m4f73ac7fbd" x="136.186886" y="117.538515" style="stroke: #000000; stroke-width: 0.5"/>
     <use xlink:href="#m4f73ac7fbd" x="127.87567" y="134.735223" style="stroke: #000000; stroke-width: 0.5"/>
     <use xlink:href="#m4f73ac7fbd" x="122.462581" y="153.051925" style="stroke: #000000; stroke-width: 0.5"/>
     <use xlink:href="#m4f73ac7fbd" x="120.086525" y="172.003375" style="stroke: #000000; stroke-width: 0.5"/>
     <use xlink:href="#m4f73ac7fbd" x="120.805849" y="191.089644" style="stroke: #000000; stroke-width: 0.5"/>
     <use xlink:href="#m4f73ac7fbd" x="124.597377" y="209.80935" style="stroke: #000000; stroke-width: 0.5"/>
     <use xlink:href="#m4f73ac7fbd" x="131.357578" y="227.672798" style="stroke: #000000; stroke-width: 0.5"/>
     <use xlink:href="#m4f73ac7fbd" x="140.905827" y="244.214684" style="stroke: #000000; stroke-width: 0.5"/>
     <use xlink:href="#m4f73ac7fbd" x="152.989643" y="259.006049" style="stroke: #000000; stroke-width: 0.5"/>
     <use xlink:href="#m4f73ac7fbd" x="167.291738" y="271.665163" style="stroke: #000000; stroke-width: 0.5"/>
     <use xlink:href="#m4f73ac7fbd" x="183.438681" y="281.867089" style="stroke: #000000; stroke-width: 0.5"/>
     <use xlink:href="#m4f73ac7fbd" x="201.010927" y="289.35169" style="stroke: #000000; stroke-width: 0.5"/>
     <use xlink:href="#m4f73ac7fbd" x="219.553938" y="293.929879" style="stroke: #000000; stroke-width: 0.5"/>
     <use xlink:href="#m4f73ac7fbd" x="238.590096" y="295.488" style="stroke: #000000; stroke-width: 0.5"/>
     <use xlink:href="#m4f73ac7fbd" x="257.631097" y="293.99022" style="stroke: #000000; stroke-width: 0.5"/>
     <use xlink:href="#m4f73ac7fbd" x="276.190495" y="289.478923" style="stroke: #000000; stroke-width: 0.5"/>
     <use xlink:href="#m4f73ac7fbd" x="293.796086" y="282.073098" style="stroke: #000000; stroke-width: 0.5"/>
     <use xlink:href="#m4f73ac7fbd" x="310.001806" y="271.9648" style="stroke: #000000; stroke-width: 0.5"/>
     <use xlink:href="#m4f73ac7fbd" x="324.398865" y="259.413794" style="stroke: #000000; stroke-width: 0.5"/>
     <use xlink:href="#m4f73ac7fbd" x="336.625823" y="244.740534" style="stroke: #000000; stroke-width: 0.5"/>
     <use xlink:href="#m4f73ac7fbd" x="346.377386" y="228.317683" style="stroke: #000000; stroke-width: 0.5"/>
     <use xlink:href="#m4f73ac7fbd" x="353.411707" y="210.560392" style="stroke: #000000; stroke-width: 0.5"/>
     <use xlink:href="#m4f73ac7fbd" x="357.556025" y="191.915616" style="stroke: #000000; stroke-width: 0.5"/>
     <use xlink:href="#m4f73ac7fbd" x="358.710528" y="172.850722" style="stroke: #000000; stroke-width: 0.5"/>
     <use xlink:href="#m4f73ac7fbd" x="356.850359" y="153.841703" style="stroke: #000000; stroke-width: 0.5"/>
     <use xlink:href="#m4f73ac7fbd" x="352.025743" y="135.361277" style="stroke: #000000; stroke-width: 0.5"/>
     <use xlink:href="#m4f73ac7fbd" x="344.360241" y="117.867189" style="stroke: #000000; stroke-width: 0.5"/>
     <use xlink:href="#m4f73ac7fbd" x="334.047218" y="101.790977" style="stroke: #000000; stroke-width: 0.5"/>
     <use xlink:href="#m4f73ac7fbd" x="321.344611" y="87.527499" style="stroke: #000000; stroke-width: 0.5"/>
     <use xlink:href="#m4f73ac7fbd" x="306.568159" y="75.425453" style="stroke: #000000; stroke-width: 0.5"/>
     <use xlink:href="#m4f73ac7fbd" x="290.08328" y="65.779117" style="stroke: #000000; stroke-width: 0.5"/>
     <use xlink:href="#m4f73ac7fbd" x="272.295796" y="58.821499" style="stroke: #000000; stroke-width: 0.5"/>
     <use xlink:href="#m4f73ac7fbd" x="253.641765" y="54.719042" style="stroke: #000000; stroke-width: 0.5"/>
     <use xlink:href="#m4f73ac7fbd" x="234.576663" y="53.568" style="stroke: #000000; stroke-width: 0.5"/>
     <use xlink:href="#m4f73ac7fbd" x="215.564193" y="55.392552" style="stroke: #000000; stroke-width: 0.5"/>
     <use xlink:href="#m4f73ac7fbd" x="197.064995" y="60.144681" style="stroke: #000000; stroke-width: 0.5"/>
     <use xlink:href="#m4f73ac7fbd" x="179.525537" y="67.705794" style="stroke: #000000; stroke-width: 0.5"/>
     <use xlink:href="#m4f73ac7fbd" x="163.367435" y="77.890035" style="stroke: #000000; stroke-width: 0.5"/>
     <use xlink:href="#m4f73ac7fbd" x="148.977478" y="90.449181" style="stroke: #000000; stroke-width: 0.5"/>
     <use xlink:href="#m4f73ac7fbd" x="136.698571" y="105.078994" style="stroke: #000000; stroke-width: 0.5"/>
     <use xlink:href="#m4f73ac7fbd" x="126.821809" y="121.426856" style="stroke: #000000; stroke-width: 0.5"/>
     <use xlink:href="#m4f73ac7fbd" x="119.57986" y="139.100486" style="stroke: #000000; stroke-width: 0.5"/>
     <use xlink:href="#m4f73ac7fbd" x="115.141795" y="157.677531" style="stroke: #000000; stroke-width: 0.5"/>
     <use xlink:href="#m4f73ac7fbd" x="113.609472" y="176.715781" style="stroke: #000000; stroke-width: 0.5"/>
     <use xlink:href="#m4f73ac7fbd" x="115.01555" y="195.763772" style="stroke: #000000; stroke-width: 0.5"/>
     <use xlink:href="#m4f73ac7fbd" x="119.323148" y="214.371502" style="stroke: #000000; stroke-width: 0.5"/>
     <use xlink:href="#m4f73ac7fbd" x="126.427147" y="232.101031" style="stroke: #000000; stroke-width: 0.5"/>
    </g>
   </g>
   <g id="text_13">
    <!--  -->
    <g transform="translate(200.16 35.472) scale(0.144 -0.144)">
     <defs>
      <path id="SimHei-9f99" d="M 3200 5100 
Q 3075 4875 3062 4537 
Q 3050 4200 3000 3650 
L 5025 3650 
Q 5475 3650 5925 3700 
L 5925 3200 
Q 5475 3225 5025 3225 
L 3800 3225 
L 3800 950 
Q 4100 1300 4400 1737 
Q 4700 2175 4875 2625 
Q 5200 2475 5500 2375 
Q 5150 2025 4800 1475 
Q 4450 925 3825 375 
Q 3800 -50 3887 -75 
Q 3975 -100 4175 -125 
L 4975 -125 
Q 5275 -100 5400 -75 
Q 5525 -50 5625 575 
Q 5875 325 6200 275 
Q 5950 -275 5825 -400 
Q 5700 -525 5400 -525 
L 3925 -525 
Q 3525 -525 3425 -412 
Q 3325 -300 3325 50 
Q 3175 -75 2862 -250 
Q 2550 -425 2325 -550 
Q 2250 -400 1950 -150 
Q 2300 -25 2700 200 
Q 3100 425 3325 625 
L 3325 3225 
L 2975 3225 
Q 2850 2500 2700 2050 
Q 2550 1600 2325 1187 
Q 2100 775 1750 362 
Q 1400 -50 775 -575 
Q 775 -425 300 -150 
Q 725 75 1087 437 
Q 1450 800 1737 1225 
Q 2025 1650 2200 2150 
Q 2375 2650 2450 3225 
L 1475 3225 
Q 1025 3225 550 3200 
L 550 3675 
Q 1050 3650 1475 3650 
L 2525 3650 
Q 2550 3950 2562 4375 
Q 2575 4800 2525 5250 
Q 3050 5125 3200 5100 
z
M 5050 4175 
Q 4925 4075 4650 3825 
Q 4400 4200 3975 4650 
Q 4150 4775 4350 4975 
Q 4675 4675 5050 4175 
z
" transform="scale(0.015625)"/>
      <path id="SimHei-961f" d="M 1050 4425 
L 1050 -625 
L 550 -625 
Q 575 -50 575 425 
L 575 3675 
Q 575 4175 550 4850 
L 2750 4850 
Q 2525 4100 2400 3737 
Q 2275 3375 2100 2900 
Q 2475 2375 2600 2037 
Q 2725 1700 2700 1387 
Q 2675 1075 2475 825 
Q 2275 575 1525 450 
Q 1450 775 1300 1025 
Q 1750 1025 1950 1100 
Q 2150 1175 2187 1437 
Q 2225 1700 2037 2075 
Q 1850 2450 1575 2875 
Q 1775 3275 2100 4425 
L 1050 4425 
z
M 4300 5075 
Q 4250 4750 4237 4375 
Q 4225 4000 4275 3400 
Q 4325 2800 4575 2162 
Q 4825 1525 5112 1062 
Q 5400 600 5662 325 
Q 5925 50 6175 -125 
Q 5925 -325 5775 -550 
Q 5350 -175 4887 512 
Q 4425 1200 4050 2400 
Q 3875 1550 3687 1137 
Q 3500 725 3162 250 
Q 2825 -225 2350 -625 
Q 2200 -375 1925 -225 
Q 2550 175 2912 700 
Q 3275 1225 3450 1825 
Q 3625 2425 3675 3000 
Q 3725 3575 3725 4050 
Q 3725 4550 3675 5125 
Q 4100 5075 4300 5075 
z
" transform="scale(0.015625)"/>
      <path id="SimHei-4f4d" d="M 2125 4925 
Q 1950 4750 1625 3750 
L 1625 575 
Q 1625 -225 1650 -650 
L 1100 -650 
Q 1150 -200 1150 550 
L 1150 2950 
Q 775 2275 550 1950 
Q 375 2275 200 2425 
Q 525 2775 912 3575 
Q 1300 4375 1500 5200 
Q 1825 5000 2125 4925 
z
M 5375 3025 
Q 5275 2875 5100 2250 
Q 4925 1625 4600 300 
L 5450 300 
Q 5925 300 6100 325 
L 6100 -175 
Q 5875 -150 5450 -150 
L 2900 -150 
Q 2275 -150 2050 -175 
L 2050 325 
Q 2275 300 2850 300 
L 4075 300 
Q 4400 1400 4700 3175 
Q 5100 3075 5375 3025 
z
M 5250 4025 
Q 5700 4025 5925 4050 
L 5925 3575 
Q 5700 3600 5225 3600 
L 3000 3600 
Q 2650 3600 2275 3575 
L 2275 4050 
Q 2675 4025 3000 4025 
L 5250 4025 
z
M 3050 3050 
Q 3500 1775 3750 725 
Q 3450 625 3250 550 
Q 3125 1125 2962 1675 
Q 2800 2225 2550 2875 
Q 2800 2925 3050 3050 
z
M 3875 5200 
Q 4175 4675 4400 4300 
Q 4200 4250 3875 4075 
Q 3700 4525 3400 4950 
Q 3650 5050 3875 5200 
z
" transform="scale(0.015625)"/>
      <path id="SimHei-7f6e" d="M 3600 3650 
Q 3525 3475 3475 3325 
L 4750 3325 
Q 5100 3325 5675 3350 
L 5675 2925 
Q 5125 2950 4750 2950 
L 3400 2950 
L 3350 2600 
L 5000 2600 
Q 4975 1975 4975 1550 
L 4975 -50 
Q 5575 -50 6025 -25 
L 6025 -400 
Q 5475 -375 5000 -375 
L 1400 -375 
Q 900 -375 400 -400 
L 400 -25 
Q 925 -50 1450 -50 
L 1450 1550 
Q 1450 1975 1425 2600 
L 2875 2600 
L 2925 2950 
L 1600 2950 
Q 1150 2950 650 2925 
L 650 3350 
Q 1150 3325 1600 3325 
L 2975 3325 
Q 3000 3525 3000 3700 
Q 3250 3650 3600 3650 
z
M 5575 4950 
Q 5550 4600 5550 4300 
Q 5550 4000 5575 3775 
L 900 3775 
Q 925 4075 925 4325 
Q 925 4600 900 4950 
L 5575 4950 
z
M 4575 1900 
L 4575 2250 
L 1850 2250 
L 1850 1900 
L 4575 1900 
z
M 4575 1250 
L 4575 1575 
L 1850 1575 
L 1850 1250 
L 4575 1250 
z
M 4575 -50 
L 4575 275 
L 1850 275 
L 1850 -50 
L 4575 -50 
z
M 4575 625 
L 4575 875 
L 1850 875 
L 1850 625 
L 4575 625 
z
M 3700 4100 
L 3700 4625 
L 2700 4625 
L 2700 4100 
L 3700 4100 
z
M 5075 4100 
L 5075 4625 
L 4100 4625 
L 4100 4100 
L 5075 4100 
z
M 2350 4100 
L 2350 4625 
L 1400 4625 
L 1400 4100 
L 2350 4100 
z
" transform="scale(0.015625)"/>
      <path id="SimHei-56fe" d="M 5800 4975 
Q 5775 4350 5775 3600 
L 5775 925 
Q 5775 150 5800 -600 
L 5300 -600 
L 5300 -275 
L 1125 -275 
L 1125 -650 
L 625 -650 
Q 650 125 650 950 
L 650 3600 
Q 650 4325 625 4975 
L 5800 4975 
z
M 5300 150 
L 5300 4575 
L 1125 4575 
L 1125 150 
L 5300 150 
z
M 3225 4250 
Q 3075 4100 2950 3925 
L 4625 3925 
Q 4525 3700 4300 3375 
Q 4075 3050 3600 2600 
Q 4350 2225 5075 2150 
Q 4900 1925 4775 1675 
Q 3850 1950 3225 2350 
Q 2500 1875 1675 1650 
Q 1600 1875 1400 2075 
Q 2200 2200 2875 2600 
Q 2525 2925 2375 3150 
Q 2150 2900 1900 2650 
Q 1725 2850 1525 2950 
Q 1950 3300 2250 3737 
Q 2550 4175 2675 4475 
Q 2925 4350 3225 4250 
z
M 2450 1275 
Q 3550 950 4100 725 
Q 3975 525 3850 300 
Q 2825 725 2275 850 
Q 2375 1050 2450 1275 
z
M 2925 2050 
Q 3775 1700 4075 1600 
Q 3950 1400 3850 1150 
Q 3000 1550 2700 1650 
Q 2825 1825 2925 2050 
z
M 2625 3450 
Q 3000 3025 3275 2850 
Q 3600 3100 3875 3525 
L 2675 3525 
L 2625 3450 
z
" transform="scale(0.015625)"/>
     </defs>
     <use xlink:href="#SimHei-9f99"/>
     <use xlink:href="#SimHei-961f" transform="translate(100 0)"/>
     <use xlink:href="#SimHei-4f4d" transform="translate(200 0)"/>
     <use xlink:href="#SimHei-7f6e" transform="translate(300 0)"/>
     <use xlink:href="#SimHei-56fe" transform="translate(400 0)"/>
    </g>
   </g>
   <g id="legend_1">
    <g id="patch_7">
     <path d="M 335.72 92.050125 
L 407.72 92.050125 
Q 409.72 92.050125 409.72 90.050125 
L 409.72 48.472 
Q 409.72 46.472 407.72 46.472 
L 335.72 46.472 
Q 333.72 46.472 333.72 48.472 
L 333.72 90.050125 
Q 333.72 92.050125 335.72 92.050125 
z
" style="fill: #e5e5e5; opacity: 0.8; stroke: #cccccc; stroke-width: 0.5; stroke-linejoin: miter"/>
    </g>
    <g id="line2d_15">
     <path d="M 337.72 55.175125 
L 347.72 55.175125 
L 357.72 55.175125 
" style="fill: none; stroke-dasharray: 9.6,2.4,1.5,2.4; stroke-dashoffset: 0; stroke: #800080; stroke-width: 1.5"/>
    </g>
    <g id="text_14">
     <!--  -->
     <g transform="translate(365.72 58.675125) scale(0.1 -0.1)">
      <defs>
       <path id="SimHei-76d8" d="M 5425 -125 
Q 5775 -125 6200 -100 
L 6200 -550 
Q 5450 -525 4750 -525 
L 1475 -525 
Q 700 -525 200 -550 
L 200 -100 
Q 625 -125 975 -125 
L 975 625 
Q 975 1025 950 1400 
L 5450 1400 
Q 5425 1025 5425 625 
L 5425 -125 
z
M 3925 2050 
Q 4325 2050 4462 2075 
Q 4600 2100 4600 2275 
L 4600 2825 
L 1975 2825 
Q 1900 2400 1750 2100 
Q 1600 1800 1250 1450 
Q 1075 1650 775 1775 
Q 1100 2000 1262 2250 
Q 1425 2500 1475 2825 
Q 800 2825 425 2800 
L 425 3275 
Q 925 3250 1500 3250 
L 1500 3950 
Q 1500 4275 1475 4625 
L 2450 4625 
Q 2550 4925 2600 5250 
Q 2950 5175 3225 5125 
Q 3150 5050 3087 4900 
Q 3025 4750 2975 4625 
L 5100 4625 
Q 5075 4225 5075 3800 
L 5075 3250 
Q 5650 3250 6025 3275 
L 6025 2800 
Q 5650 2825 5050 2825 
L 5050 2175 
Q 5050 1750 4800 1662 
Q 4550 1575 4150 1525 
Q 4125 1750 3925 2050 
z
M 4625 3250 
L 4625 4200 
L 2025 4200 
L 2025 3250 
L 4625 3250 
z
M 3625 1000 
L 2750 1000 
L 2750 -125 
L 3625 -125 
L 3625 1000 
z
M 4925 1000 
L 4050 1000 
L 4050 -125 
L 4925 -125 
L 4925 1000 
z
M 2325 1000 
L 1475 1000 
L 1475 -125 
L 2325 -125 
L 2325 1000 
z
M 3425 1775 
Q 3075 2075 2525 2300 
Q 2650 2500 2725 2675 
Q 3225 2450 3700 2200 
Q 3550 2050 3425 1775 
z
M 3500 3300 
Q 3125 3575 2750 3750 
Q 2900 3925 3000 4100 
Q 3350 3925 3775 3675 
Q 3625 3500 3500 3300 
z
" transform="scale(0.015625)"/>
       <path id="SimHei-5165" d="M 5650 -375 
Q 5050 25 4500 650 
Q 3950 1275 3275 3050 
Q 2575 975 675 -475 
Q 575 -225 225 50 
Q 1850 825 2975 3525 
Q 2900 3725 2525 4125 
Q 2150 4525 1750 4675 
Q 2025 4900 2175 5125 
Q 2800 4650 3175 4225 
Q 3550 3800 4125 2375 
Q 4700 950 6125 250 
Q 5775 0 5650 -375 
z
" transform="scale(0.015625)"/>
       <path id="SimHei-87ba" d="M 4575 1025 
L 4575 -25 
Q 4575 -425 4337 -512 
Q 4100 -600 3675 -650 
Q 3625 -375 3500 -100 
Q 3925 -100 4025 -62 
Q 4125 -25 4125 200 
L 4125 1025 
Q 3725 1000 3487 962 
Q 3250 925 3025 850 
Q 2975 1075 2875 1350 
Q 3200 1400 3500 1550 
Q 3800 1700 4175 2000 
Q 3925 2000 3650 1962 
Q 3375 1925 3100 1850 
Q 3000 2150 2925 2325 
Q 3225 2400 3400 2575 
Q 3575 2750 3725 2975 
L 2750 2975 
Q 2800 3375 2800 3700 
L 2800 4300 
Q 2800 4725 2750 5075 
L 5875 5075 
Q 5825 4750 5825 4300 
L 5825 3700 
Q 5825 3350 5875 2975 
L 5075 2975 
Q 5300 2775 5525 2625 
Q 5300 2525 4912 2162 
Q 4525 1800 4025 1400 
L 5275 1450 
Q 5125 1650 5025 1750 
Q 5125 1825 5375 2050 
Q 5750 1625 6175 1075 
Q 5975 900 5750 750 
Q 5625 900 5525 1075 
L 4575 1025 
z
M 1200 4175 
Q 1200 4800 1150 5300 
L 1700 5300 
Q 1625 5000 1650 4175 
L 2425 4175 
Q 2400 3675 2400 3300 
L 2400 2650 
Q 2400 2325 2425 1850 
L 1975 1850 
L 1975 2125 
L 1650 2125 
L 1650 800 
Q 1850 825 2150 875 
Q 2075 1125 2000 1400 
Q 2200 1475 2425 1525 
Q 2575 1000 2750 375 
Q 2475 300 2300 225 
Q 2250 425 2225 575 
Q 1975 500 1425 362 
Q 875 225 375 50 
Q 275 350 200 625 
Q 750 675 1200 725 
L 1200 2125 
L 850 2125 
L 850 1775 
L 375 1775 
Q 400 2325 400 2625 
L 400 3300 
Q 400 3775 375 4175 
L 1200 4175 
z
M 2275 -175 
Q 2600 50 2887 275 
Q 3175 500 3375 725 
Q 3575 550 3750 350 
Q 3475 175 3187 -62 
Q 2900 -300 2600 -550 
Q 2450 -350 2275 -175 
z
M 5175 775 
Q 5325 650 5562 437 
Q 5800 225 6125 -100 
Q 5900 -275 5725 -475 
Q 5450 -100 5225 100 
Q 5000 300 4850 400 
Q 4950 525 5175 775 
z
M 4125 4150 
L 4125 4700 
L 3225 4700 
L 3225 4150 
L 4125 4150 
z
M 4500 2375 
Q 4800 2625 5025 2975 
L 4275 2975 
Q 4050 2675 3675 2325 
L 4500 2375 
z
M 5400 4150 
L 5400 4700 
L 4525 4700 
L 4525 4150 
L 5400 4150 
z
M 1200 2475 
L 1200 3825 
L 850 3825 
L 850 2475 
L 1200 2475 
z
M 1975 2475 
L 1975 3825 
L 1650 3825 
L 1650 2475 
L 1975 2475 
z
M 4125 3325 
L 4125 3800 
L 3225 3800 
L 3225 3325 
L 4125 3325 
z
M 5400 3325 
L 5400 3800 
L 4525 3800 
L 4525 3325 
L 5400 3325 
z
" transform="scale(0.015625)"/>
       <path id="SimHei-7ebf" d="M 3450 4300 
Q 3450 4675 3375 5125 
Q 3700 5100 4050 5050 
Q 3975 4900 3950 4562 
Q 3925 4225 3950 3600 
L 4800 3750 
Q 5225 3850 5650 3975 
L 5750 3500 
Q 5325 3450 4875 3375 
L 3975 3200 
Q 3975 2800 4025 2500 
L 5000 2675 
Q 5500 2775 5950 2925 
L 6025 2450 
Q 5575 2375 5075 2275 
L 4100 2100 
Q 4150 1600 4350 1175 
Q 4575 1350 4787 1575 
Q 5000 1800 5175 2075 
Q 5550 1775 5750 1675 
Q 5425 1525 5237 1337 
Q 5050 1150 4625 750 
Q 4925 250 5162 112 
Q 5400 -25 5500 100 
Q 5600 225 5675 625 
Q 5900 450 6200 350 
Q 5775 -750 5275 -537 
Q 4775 -325 4225 450 
Q 3875 175 3537 -62 
Q 3200 -300 2700 -550 
Q 2575 -300 2325 -100 
Q 2825 75 3175 275 
Q 3525 475 3975 850 
Q 3750 1350 3650 2025 
Q 2900 1900 2600 1800 
L 2525 2275 
Q 2825 2275 3550 2425 
Q 3500 2825 3500 3100 
Q 2825 2950 2575 2875 
L 2475 3350 
Q 2725 3350 3450 3500 
L 3450 4300 
z
M 1950 4875 
Q 1700 4650 1462 4237 
Q 1225 3825 825 3225 
Q 1425 3250 1650 3250 
Q 1875 3625 2050 4075 
Q 2300 3900 2600 3800 
Q 2350 3550 2087 3125 
Q 1825 2700 1175 1675 
Q 1850 1725 2375 1775 
Q 2300 1525 2300 1350 
Q 2125 1350 1525 1287 
Q 925 1225 550 1125 
Q 525 1375 400 1650 
Q 700 1725 950 2050 
Q 1200 2375 1475 2875 
Q 650 2825 425 2675 
Q 350 2950 200 3225 
Q 525 3450 825 3962 
Q 1125 4475 1375 5150 
Q 1625 4975 1950 4875 
z
M 2575 875 
Q 2550 600 2575 450 
Q 1950 325 1450 200 
Q 950 75 525 -75 
Q 450 200 250 475 
Q 950 550 1325 612 
Q 1700 675 2575 875 
z
M 4850 4025 
Q 4675 4300 4375 4675 
L 4775 4875 
Q 4875 4750 5275 4275 
Q 5025 4175 4850 4025 
z
" transform="scale(0.015625)"/>
      </defs>
      <use xlink:href="#SimHei-76d8"/>
      <use xlink:href="#SimHei-5165" transform="translate(100 0)"/>
      <use xlink:href="#SimHei-87ba" transform="translate(200 0)"/>
      <use xlink:href="#SimHei-7ebf" transform="translate(300 0)"/>
     </g>
    </g>
    <g id="line2d_16">
     <path d="M 337.72 69.354813 
L 347.72 69.354813 
L 357.72 69.354813 
" style="fill: none; stroke: #a52a2a; stroke-width: 1.5; stroke-linecap: square"/>
    </g>
    <g id="text_15">
     <!--  -->
     <g transform="translate(365.72 72.854813) scale(0.1 -0.1)">
      <use xlink:href="#SimHei-9f99"/>
      <use xlink:href="#SimHei-961f" transform="translate(100 0)"/>
     </g>
    </g>
    <g id="PathCollection_2">
     <g>
      <use xlink:href="#m4f73ac7fbd" x="347.72" y="84.175125" style="stroke: #000000; stroke-width: 0.5"/>
     </g>
    </g>
    <g id="text_16">
     <!--  -->
     <g transform="translate(365.72 86.800125) scale(0.1 -0.1)">
      <defs>
       <path id="SimHei-628a" d="M 5725 4650 
Q 5700 4300 5700 3075 
Q 5700 1850 5725 1475 
L 5225 1475 
L 5225 1875 
L 3300 1875 
L 3300 300 
Q 3300 -100 3650 -125 
L 5075 -125 
Q 5375 -125 5475 25 
Q 5575 175 5650 700 
Q 5900 500 6175 425 
Q 6000 -150 5825 -325 
Q 5650 -500 5375 -500 
L 3500 -500 
Q 2825 -500 2850 250 
L 2850 3750 
Q 2850 4425 2825 4650 
L 5725 4650 
z
M 1325 3875 
Q 1325 4675 1300 5125 
L 1800 5125 
Q 1775 4775 1775 3875 
Q 2150 3875 2650 3900 
L 2650 3475 
Q 2025 3500 1775 3500 
L 1775 2375 
Q 2000 2450 2500 2775 
Q 2550 2550 2650 2350 
Q 2200 2150 1775 1925 
L 1775 225 
Q 1800 -275 1550 -400 
Q 1300 -525 700 -600 
Q 625 -250 500 -100 
Q 1100 -100 1212 -25 
Q 1325 50 1325 300 
L 1325 1750 
Q 700 1450 500 1325 
Q 425 1550 250 1800 
Q 625 1900 1325 2200 
L 1325 3500 
Q 800 3500 325 3475 
L 325 3900 
Q 775 3875 1325 3875 
z
M 5225 2275 
L 5225 4275 
L 4475 4275 
L 4475 2275 
L 5225 2275 
z
M 4025 2275 
L 4025 4275 
L 3300 4275 
L 3300 2275 
L 4025 2275 
z
" transform="scale(0.015625)"/>
       <path id="SimHei-624b" d="M 5525 4425 
Q 5175 4400 3550 4250 
L 3550 3250 
L 4675 3250 
Q 5100 3250 5525 3275 
L 5525 2800 
Q 5100 2800 4675 2825 
L 3550 2825 
L 3550 1900 
L 5325 1900 
Q 5700 1900 6100 1925 
L 6100 1450 
Q 5700 1475 5325 1475 
L 3550 1475 
L 3550 125 
Q 3575 -250 3312 -400 
Q 3050 -550 2425 -600 
Q 2400 -300 2175 -25 
Q 2650 -25 2850 37 
Q 3050 100 3025 350 
L 3025 1475 
L 1225 1475 
Q 775 1450 375 1450 
L 375 1925 
Q 800 1900 1225 1900 
L 3025 1900 
L 3025 2825 
L 1925 2825 
Q 1475 2825 1000 2800 
L 1000 3275 
Q 1450 3250 1925 3250 
L 3025 3250 
L 3025 4200 
Q 1725 4125 1050 4100 
Q 975 4375 825 4575 
Q 1725 4550 3162 4662 
Q 4600 4775 5200 5000 
Q 5350 4650 5525 4425 
z
" transform="scale(0.015625)"/>
      </defs>
      <use xlink:href="#SimHei-628a"/>
      <use xlink:href="#SimHei-624b" transform="translate(100 0)"/>
     </g>
    </g>
   </g>
  </g>
 </g>
 <defs>
  <clipPath id="p7b40e9fe81">
   <rect x="57.6" y="41.472" width="357.12" height="266.112"/>
  </clipPath>
 </defs>
</svg>
