<?xml version="1.0" encoding="utf-8" standalone="no"?>
<!DOCTYPE svg PUBLIC "-//W3C//DTD SVG 1.1//EN"
  "http://www.w3.org/Graphics/SVG/1.1/DTD/svg11.dtd">
<svg xmlns:xlink="http://www.w3.org/1999/xlink" width="460.8pt" height="345.6pt" viewBox="0 0 460.8 345.6" xmlns="http://www.w3.org/2000/svg" version="1.1">
 <metadata>
  <rdf:RDF xmlns:dc="http://purl.org/dc/elements/1.1/" xmlns:cc="http://creativecommons.org/ns#" xmlns:rdf="http://www.w3.org/1999/02/22-rdf-syntax-ns#">
   <cc:Work>
    <dc:type rdf:resource="http://purl.org/dc/dcmitype/StillImage"/>
    <dc:date>2025-08-18T23:44:12.264452</dc:date>
    <dc:format>image/svg+xml</dc:format>
    <dc:creator>
     <cc:Agent>
      <dc:title>Matplotlib v3.10.5, https://matplotlib.org/</dc:title>
     </cc:Agent>
    </dc:creator>
   </cc:Work>
  </rdf:RDF>
 </metadata>
 <defs>
  <style type="text/css">*{stroke-linejoin: round; stroke-linecap: butt}</style>
 </defs>
 <g id="figure_1">
  <g id="patch_1">
   <path d="M 0 345.6 
L 460.8 345.6 
L 460.8 0 
L 0 0 
z
" style="fill: #ffffff"/>
  </g>
  <g id="axes_1">
   <g id="patch_2">
    <path d="M 57.6 307.584 
L 414.72 307.584 
L 414.72 41.472 
L 57.6 41.472 
z
" style="fill: #e5e5e5"/>
   </g>
   <g id="matplotlib.axis_1">
    <g id="xtick_1">
     <g id="line2d_1">
      <path d="M 72.367619 307.584 
L 72.367619 41.472 
" clip-path="url(#p7949d58f49)" style="fill: none; stroke: #ffffff; stroke-width: 0.8; stroke-linecap: square"/>
     </g>
     <g id="line2d_2">
      <defs>
       <path id="md134f98b11" d="M 0 0 
L 0 3.5 
" style="stroke: #555555; stroke-width: 0.8"/>
      </defs>
      <g>
       <use xlink:href="#md134f98b11" x="72.367619" y="307.584" style="fill: #555555; stroke: #555555; stroke-width: 0.8"/>
      </g>
     </g>
     <g id="text_1">
      <!-- 402.5 -->
      <g style="fill: #555555" transform="translate(59.867619 321.459) scale(0.1 -0.1)">
       <defs>
        <path id="SimHei-34" d="M 2000 1100 
L 75 1100 
L 75 1525 
L 2100 4450 
L 2475 4450 
L 2475 1525 
L 3075 1525 
L 3075 1100 
L 2475 1100 
L 2475 150 
L 2000 150 
L 2000 1100 
z
M 2000 1525 
L 2000 3500 
L 600 1525 
L 2000 1525 
z
" transform="scale(0.015625)"/>
        <path id="SimHei-30" d="M 225 2537 
Q 250 3200 412 3587 
Q 575 3975 875 4225 
Q 1175 4475 1612 4475 
Q 2050 4475 2375 4112 
Q 2700 3750 2800 3200 
Q 2900 2650 2862 1937 
Q 2825 1225 2612 775 
Q 2400 325 1975 150 
Q 1550 -25 1125 187 
Q 700 400 525 750 
Q 350 1100 275 1487 
Q 200 1875 225 2537 
z
M 750 2687 
Q 675 2000 800 1462 
Q 925 925 1212 700 
Q 1500 475 1800 612 
Q 2100 750 2237 1162 
Q 2375 1575 2375 2062 
Q 2375 2550 2337 2950 
Q 2300 3350 2112 3675 
Q 1925 4000 1612 4012 
Q 1300 4025 1062 3700 
Q 825 3375 750 2687 
z
" transform="scale(0.015625)"/>
        <path id="SimHei-32" d="M 300 250 
Q 325 625 650 925 
Q 975 1225 1475 1862 
Q 1975 2500 2125 2850 
Q 2275 3200 2237 3450 
Q 2200 3700 2000 3862 
Q 1800 4025 1537 4000 
Q 1275 3975 1037 3800 
Q 800 3625 675 3275 
L 200 3350 
Q 400 3925 712 4187 
Q 1025 4450 1450 4475 
Q 1700 4500 1900 4462 
Q 2100 4425 2312 4287 
Q 2525 4150 2662 3875 
Q 2800 3600 2762 3212 
Q 2725 2825 2375 2287 
Q 2025 1750 1025 600 
L 2825 600 
L 2825 150 
L 300 150 
L 300 250 
z
" transform="scale(0.015625)"/>
        <path id="SimHei-2e" d="M 1075 125 
L 500 125 
L 500 675 
L 1075 675 
L 1075 125 
z
" transform="scale(0.015625)"/>
        <path id="SimHei-35" d="M 550 1325 
Q 725 650 1150 575 
Q 1575 500 1837 662 
Q 2100 825 2212 1087 
Q 2325 1350 2312 1675 
Q 2300 2000 2137 2225 
Q 1975 2450 1725 2525 
Q 1475 2600 1162 2525 
Q 850 2450 650 2175 
L 225 2225 
Q 275 2375 700 4375 
L 2675 4375 
L 2675 3925 
L 1075 3925 
Q 950 3250 825 2850 
Q 1200 3025 1525 3012 
Q 1850 3000 2150 2862 
Q 2450 2725 2587 2487 
Q 2725 2250 2787 2012 
Q 2850 1775 2837 1500 
Q 2825 1225 2725 937 
Q 2625 650 2425 462 
Q 2225 275 1937 162 
Q 1650 50 1275 75 
Q 900 100 562 350 
Q 225 600 100 1200 
L 550 1325 
z
" transform="scale(0.015625)"/>
       </defs>
       <use xlink:href="#SimHei-34"/>
       <use xlink:href="#SimHei-30" transform="translate(50 0)"/>
       <use xlink:href="#SimHei-32" transform="translate(100 0)"/>
       <use xlink:href="#SimHei-2e" transform="translate(150 0)"/>
       <use xlink:href="#SimHei-35" transform="translate(200 0)"/>
      </g>
     </g>
    </g>
    <g id="xtick_2">
     <g id="line2d_3">
      <path d="M 112.949437 307.584 
L 112.949437 41.472 
" clip-path="url(#p7949d58f49)" style="fill: none; stroke: #ffffff; stroke-width: 0.8; stroke-linecap: square"/>
     </g>
     <g id="line2d_4">
      <g>
       <use xlink:href="#md134f98b11" x="112.949437" y="307.584" style="fill: #555555; stroke: #555555; stroke-width: 0.8"/>
      </g>
     </g>
     <g id="text_2">
      <!-- 405.0 -->
      <g style="fill: #555555" transform="translate(100.449437 321.459) scale(0.1 -0.1)">
       <use xlink:href="#SimHei-34"/>
       <use xlink:href="#SimHei-30" transform="translate(50 0)"/>
       <use xlink:href="#SimHei-35" transform="translate(100 0)"/>
       <use xlink:href="#SimHei-2e" transform="translate(150 0)"/>
       <use xlink:href="#SimHei-30" transform="translate(200 0)"/>
      </g>
     </g>
    </g>
    <g id="xtick_3">
     <g id="line2d_5">
      <path d="M 153.531256 307.584 
L 153.531256 41.472 
" clip-path="url(#p7949d58f49)" style="fill: none; stroke: #ffffff; stroke-width: 0.8; stroke-linecap: square"/>
     </g>
     <g id="line2d_6">
      <g>
       <use xlink:href="#md134f98b11" x="153.531256" y="307.584" style="fill: #555555; stroke: #555555; stroke-width: 0.8"/>
      </g>
     </g>
     <g id="text_3">
      <!-- 407.5 -->
      <g style="fill: #555555" transform="translate(141.031256 321.459) scale(0.1 -0.1)">
       <defs>
        <path id="SimHei-37" d="M 850 150 
Q 1300 2050 2425 3925 
L 275 3925 
L 275 4375 
L 2950 4375 
L 2950 3950 
Q 1775 2050 1400 150 
L 850 150 
z
" transform="scale(0.015625)"/>
       </defs>
       <use xlink:href="#SimHei-34"/>
       <use xlink:href="#SimHei-30" transform="translate(50 0)"/>
       <use xlink:href="#SimHei-37" transform="translate(100 0)"/>
       <use xlink:href="#SimHei-2e" transform="translate(150 0)"/>
       <use xlink:href="#SimHei-35" transform="translate(200 0)"/>
      </g>
     </g>
    </g>
    <g id="xtick_4">
     <g id="line2d_7">
      <path d="M 194.113074 307.584 
L 194.113074 41.472 
" clip-path="url(#p7949d58f49)" style="fill: none; stroke: #ffffff; stroke-width: 0.8; stroke-linecap: square"/>
     </g>
     <g id="line2d_8">
      <g>
       <use xlink:href="#md134f98b11" x="194.113074" y="307.584" style="fill: #555555; stroke: #555555; stroke-width: 0.8"/>
      </g>
     </g>
     <g id="text_4">
      <!-- 410.0 -->
      <g style="fill: #555555" transform="translate(181.613074 321.459) scale(0.1 -0.1)">
       <defs>
        <path id="SimHei-31" d="M 1400 3600 
Q 1075 3275 575 2975 
L 575 3450 
Q 1200 3875 1600 4450 
L 1900 4450 
L 1900 150 
L 1400 150 
L 1400 3600 
z
" transform="scale(0.015625)"/>
       </defs>
       <use xlink:href="#SimHei-34"/>
       <use xlink:href="#SimHei-31" transform="translate(50 0)"/>
       <use xlink:href="#SimHei-30" transform="translate(100 0)"/>
       <use xlink:href="#SimHei-2e" transform="translate(150 0)"/>
       <use xlink:href="#SimHei-30" transform="translate(200 0)"/>
      </g>
     </g>
    </g>
    <g id="xtick_5">
     <g id="line2d_9">
      <path d="M 234.694892 307.584 
L 234.694892 41.472 
" clip-path="url(#p7949d58f49)" style="fill: none; stroke: #ffffff; stroke-width: 0.8; stroke-linecap: square"/>
     </g>
     <g id="line2d_10">
      <g>
       <use xlink:href="#md134f98b11" x="234.694892" y="307.584" style="fill: #555555; stroke: #555555; stroke-width: 0.8"/>
      </g>
     </g>
     <g id="text_5">
      <!-- 412.5 -->
      <g style="fill: #555555" transform="translate(222.194892 321.459) scale(0.1 -0.1)">
       <use xlink:href="#SimHei-34"/>
       <use xlink:href="#SimHei-31" transform="translate(50 0)"/>
       <use xlink:href="#SimHei-32" transform="translate(100 0)"/>
       <use xlink:href="#SimHei-2e" transform="translate(150 0)"/>
       <use xlink:href="#SimHei-35" transform="translate(200 0)"/>
      </g>
     </g>
    </g>
    <g id="xtick_6">
     <g id="line2d_11">
      <path d="M 275.27671 307.584 
L 275.27671 41.472 
" clip-path="url(#p7949d58f49)" style="fill: none; stroke: #ffffff; stroke-width: 0.8; stroke-linecap: square"/>
     </g>
     <g id="line2d_12">
      <g>
       <use xlink:href="#md134f98b11" x="275.27671" y="307.584" style="fill: #555555; stroke: #555555; stroke-width: 0.8"/>
      </g>
     </g>
     <g id="text_6">
      <!-- 415.0 -->
      <g style="fill: #555555" transform="translate(262.77671 321.459) scale(0.1 -0.1)">
       <use xlink:href="#SimHei-34"/>
       <use xlink:href="#SimHei-31" transform="translate(50 0)"/>
       <use xlink:href="#SimHei-35" transform="translate(100 0)"/>
       <use xlink:href="#SimHei-2e" transform="translate(150 0)"/>
       <use xlink:href="#SimHei-30" transform="translate(200 0)"/>
      </g>
     </g>
    </g>
    <g id="xtick_7">
     <g id="line2d_13">
      <path d="M 315.858528 307.584 
L 315.858528 41.472 
" clip-path="url(#p7949d58f49)" style="fill: none; stroke: #ffffff; stroke-width: 0.8; stroke-linecap: square"/>
     </g>
     <g id="line2d_14">
      <g>
       <use xlink:href="#md134f98b11" x="315.858528" y="307.584" style="fill: #555555; stroke: #555555; stroke-width: 0.8"/>
      </g>
     </g>
     <g id="text_7">
      <!-- 417.5 -->
      <g style="fill: #555555" transform="translate(303.358528 321.459) scale(0.1 -0.1)">
       <use xlink:href="#SimHei-34"/>
       <use xlink:href="#SimHei-31" transform="translate(50 0)"/>
       <use xlink:href="#SimHei-37" transform="translate(100 0)"/>
       <use xlink:href="#SimHei-2e" transform="translate(150 0)"/>
       <use xlink:href="#SimHei-35" transform="translate(200 0)"/>
      </g>
     </g>
    </g>
    <g id="xtick_8">
     <g id="line2d_15">
      <path d="M 356.440346 307.584 
L 356.440346 41.472 
" clip-path="url(#p7949d58f49)" style="fill: none; stroke: #ffffff; stroke-width: 0.8; stroke-linecap: square"/>
     </g>
     <g id="line2d_16">
      <g>
       <use xlink:href="#md134f98b11" x="356.440346" y="307.584" style="fill: #555555; stroke: #555555; stroke-width: 0.8"/>
      </g>
     </g>
     <g id="text_8">
      <!-- 420.0 -->
      <g style="fill: #555555" transform="translate(343.940346 321.459) scale(0.1 -0.1)">
       <use xlink:href="#SimHei-34"/>
       <use xlink:href="#SimHei-32" transform="translate(50 0)"/>
       <use xlink:href="#SimHei-30" transform="translate(100 0)"/>
       <use xlink:href="#SimHei-2e" transform="translate(150 0)"/>
       <use xlink:href="#SimHei-30" transform="translate(200 0)"/>
      </g>
     </g>
    </g>
    <g id="xtick_9">
     <g id="line2d_17">
      <path d="M 397.022165 307.584 
L 397.022165 41.472 
" clip-path="url(#p7949d58f49)" style="fill: none; stroke: #ffffff; stroke-width: 0.8; stroke-linecap: square"/>
     </g>
     <g id="line2d_18">
      <g>
       <use xlink:href="#md134f98b11" x="397.022165" y="307.584" style="fill: #555555; stroke: #555555; stroke-width: 0.8"/>
      </g>
     </g>
     <g id="text_9">
      <!-- 422.5 -->
      <g style="fill: #555555" transform="translate(384.522165 321.459) scale(0.1 -0.1)">
       <use xlink:href="#SimHei-34"/>
       <use xlink:href="#SimHei-32" transform="translate(50 0)"/>
       <use xlink:href="#SimHei-32" transform="translate(100 0)"/>
       <use xlink:href="#SimHei-2e" transform="translate(150 0)"/>
       <use xlink:href="#SimHei-35" transform="translate(200 0)"/>
      </g>
     </g>
    </g>
    <g id="text_10">
     <!-- 自然坐标 s (m) -->
     <g style="fill: #555555" transform="translate(194.16 336.2715) scale(0.12 -0.12)">
      <defs>
       <path id="SimHei-81ea" d="M 3200 5075 
Q 3050 4850 2900 4225 
L 5400 4225 
Q 5375 3650 5375 3175 
L 5375 375 
Q 5375 -75 5400 -525 
L 4900 -525 
L 4900 75 
L 1550 75 
L 1550 -525 
L 1050 -525 
Q 1075 -50 1075 350 
L 1075 3200 
Q 1075 3650 1050 4225 
L 2425 4225 
Q 2525 4900 2550 5225 
Q 2850 5125 3200 5075 
z
M 4900 475 
L 4900 1375 
L 1550 1375 
L 1550 475 
L 4900 475 
z
M 4900 2975 
L 4900 3800 
L 1550 3800 
L 1550 2975 
L 4900 2975 
z
M 4900 1775 
L 4900 2575 
L 1550 2575 
L 1550 1775 
L 4900 1775 
z
" transform="scale(0.015625)"/>
       <path id="SimHei-7136" d="M 2025 4950 
Q 1875 4750 1650 4325 
L 3100 4325 
Q 3025 3850 2837 3187 
Q 2650 2525 2087 1862 
Q 1525 1200 900 825 
Q 750 1025 450 1150 
Q 1050 1450 1475 1925 
Q 1300 2175 850 2500 
Q 1025 2650 1150 2850 
Q 1550 2525 1800 2250 
Q 1975 2450 2125 2700 
Q 1775 3050 1400 3300 
Q 1550 3475 1650 3650 
Q 2075 3350 2325 3100 
Q 2475 3425 2550 3925 
L 1475 3925 
Q 1175 3400 675 2725 
Q 475 2900 200 2975 
Q 675 3475 987 4087 
Q 1300 4700 1450 5150 
Q 1700 5025 2025 4950 
z
M 5775 3100 
Q 5425 3125 4525 3125 
Q 4700 2500 5112 2025 
Q 5525 1550 6125 1300 
Q 5800 1100 5625 875 
Q 5100 1225 4775 1650 
Q 4450 2075 4225 2625 
Q 4050 2150 3725 1675 
Q 3400 1200 2900 800 
Q 2725 1000 2425 1175 
Q 2900 1425 3275 1912 
Q 3650 2400 3875 3125 
Q 3375 3125 3000 3100 
L 3000 3525 
Q 3475 3500 3925 3500 
Q 3950 4700 3900 5050 
Q 4200 5000 4450 5000 
Q 4400 4575 4400 3500 
Q 5350 3500 5775 3525 
L 5775 3100 
z
M 5600 -625 
Q 5325 -75 4750 600 
Q 4975 700 5175 875 
Q 5750 150 6050 -350 
Q 5800 -425 5600 -625 
z
M 1525 450 
Q 1150 -75 775 -675 
Q 625 -525 325 -425 
Q 675 25 1075 750 
Q 1225 625 1525 450 
z
M 4025 -550 
Q 3850 -75 3400 525 
L 3800 775 
Q 4325 50 4475 -325 
Q 4150 -475 4025 -550 
z
M 2475 -600 
Q 2375 -200 2050 500 
Q 2325 550 2500 675 
Q 2800 125 2950 -425 
Q 2600 -525 2475 -600 
z
M 5475 3725 
Q 5125 4200 4725 4550 
Q 4850 4650 5025 4850 
Q 5450 4500 5825 4025 
Q 5650 3900 5475 3725 
z
" transform="scale(0.015625)"/>
       <path id="SimHei-5750" d="M 3450 5100 
Q 3425 4675 3425 4150 
L 3425 1500 
L 4550 1500 
Q 4975 1500 5450 1525 
L 5450 1075 
Q 5000 1100 4500 1100 
L 3425 1100 
L 3425 50 
L 5075 50 
Q 5500 50 5975 75 
L 5975 -375 
Q 5525 -350 5075 -350 
L 1475 -350 
Q 925 -350 400 -375 
L 400 75 
Q 925 50 1475 50 
L 2925 50 
L 2925 1100 
L 2050 1100 
Q 1450 1100 950 1075 
L 950 1525 
Q 1450 1500 2050 1500 
L 2925 1500 
L 2925 4150 
Q 2925 4675 2900 5100 
L 3450 5100 
z
M 5200 4450 
Q 5050 4250 4825 3600 
Q 5200 3300 5975 2500 
Q 5775 2400 5575 2150 
Q 5075 2800 4650 3150 
Q 4375 2500 3975 1925 
Q 3725 2125 3525 2200 
Q 3875 2575 4212 3362 
Q 4550 4150 4600 4650 
Q 4900 4525 5200 4450 
z
M 350 2150 
Q 600 2375 950 3087 
Q 1300 3800 1450 4575 
Q 1625 4475 2050 4400 
Q 1950 4275 1862 4050 
Q 1775 3825 1700 3575 
Q 2400 2950 2700 2475 
Q 2425 2325 2250 2150 
Q 2025 2550 1887 2725 
Q 1750 2900 1500 3125 
Q 1250 2525 800 1875 
Q 575 2050 350 2150 
z
" transform="scale(0.015625)"/>
       <path id="SimHei-6807" d="M 1275 4400 
Q 1275 4800 1250 5175 
L 1750 5175 
Q 1725 4825 1725 4400 
L 1725 3800 
Q 2125 3800 2575 3825 
L 2575 3350 
Q 2125 3375 1725 3375 
L 1725 2525 
Q 1900 2650 2075 2800 
Q 2400 2275 2650 1775 
Q 2375 1650 2175 1500 
Q 2025 2000 1725 2425 
L 1725 475 
Q 1725 -50 1750 -575 
L 1250 -575 
Q 1275 -25 1275 475 
L 1275 2100 
Q 1025 1400 500 750 
Q 350 950 125 1125 
Q 550 1550 812 2187 
Q 1075 2825 1150 3375 
Q 675 3375 325 3325 
L 325 3825 
Q 800 3800 1275 3800 
L 1275 4400 
z
M 5175 3125 
Q 5675 3125 6050 3150 
L 6050 2675 
Q 5675 2700 5275 2700 
L 4500 2700 
L 4500 175 
Q 4500 -225 4275 -350 
Q 4050 -475 3475 -550 
Q 3425 -250 3275 25 
Q 3775 25 3900 62 
Q 4025 100 4025 350 
L 4025 2700 
L 3400 2700 
Q 2775 2700 2500 2650 
L 2500 3150 
Q 2825 3125 3400 3125 
L 5175 3125 
z
M 4900 4775 
Q 5425 4775 5750 4800 
L 5750 4300 
Q 5275 4350 4750 4350 
L 3525 4350 
Q 3125 4350 2750 4300 
L 2750 4800 
Q 3100 4775 3525 4775 
L 4900 4775 
z
M 5275 2025 
Q 5825 1175 6200 500 
Q 5925 375 5650 200 
Q 5375 925 4825 1725 
Q 5075 1850 5275 2025 
z
M 3600 1775 
Q 3500 1625 3225 975 
Q 2950 325 2800 50 
Q 2575 175 2300 275 
Q 2625 775 2787 1187 
Q 2950 1600 3050 2000 
Q 3325 1875 3600 1775 
z
" transform="scale(0.015625)"/>
       <path id="SimHei-20" transform="scale(0.015625)"/>
       <path id="SimHei-73" d="M 2750 900 
Q 2750 500 2437 287 
Q 2125 75 1650 75 
Q 1050 75 725 312 
Q 400 550 400 1000 
L 900 1000 
Q 900 700 1112 600 
Q 1325 500 1625 500 
Q 1925 500 2075 612 
Q 2225 725 2225 900 
Q 2225 1025 2100 1150 
Q 1975 1275 1475 1350 
Q 900 1425 687 1637 
Q 475 1850 475 2200 
Q 475 2500 762 2737 
Q 1050 2975 1600 2975 
Q 2100 2975 2387 2750 
Q 2675 2525 2675 2150 
L 2175 2150 
Q 2175 2375 2012 2462 
Q 1850 2550 1600 2550 
Q 1275 2550 1137 2437 
Q 1000 2325 1000 2175 
Q 1000 2000 1125 1900 
Q 1250 1800 1650 1750 
Q 2300 1650 2525 1437 
Q 2750 1225 2750 900 
z
" transform="scale(0.015625)"/>
       <path id="SimHei-28" d="M 2975 -200 
L 2700 -475 
Q 2075 125 1762 775 
Q 1450 1425 1450 2250 
Q 1450 3075 1762 3725 
Q 2075 4375 2700 5000 
L 2975 4725 
Q 2400 4175 2112 3587 
Q 1825 3000 1825 2250 
Q 1825 1500 2112 912 
Q 2400 325 2975 -200 
z
" transform="scale(0.015625)"/>
       <path id="SimHei-6d" d="M 3050 125 
L 2550 125 
L 2550 2150 
Q 2550 2300 2500 2400 
Q 2450 2500 2300 2500 
Q 2125 2500 1975 2312 
Q 1825 2125 1825 1825 
L 1825 125 
L 1325 125 
L 1325 2150 
Q 1325 2300 1275 2400 
Q 1225 2500 1075 2500 
Q 900 2500 750 2312 
Q 600 2125 600 1825 
L 600 125 
L 100 125 
L 100 2925 
L 600 2925 
L 600 2550 
Q 725 2750 900 2862 
Q 1075 2975 1275 2975 
Q 1475 2975 1612 2862 
Q 1750 2750 1800 2550 
Q 1925 2750 2087 2862 
Q 2250 2975 2450 2975 
Q 2750 2975 2900 2812 
Q 3050 2650 3050 2350 
L 3050 125 
z
" transform="scale(0.015625)"/>
       <path id="SimHei-29" d="M 1675 2250 
Q 1675 1425 1362 775 
Q 1050 125 425 -475 
L 150 -200 
Q 725 325 1012 912 
Q 1300 1500 1300 2250 
Q 1300 3000 1012 3587 
Q 725 4175 150 4725 
L 425 5000 
Q 1050 4375 1362 3725 
Q 1675 3075 1675 2250 
z
" transform="scale(0.015625)"/>
      </defs>
      <use xlink:href="#SimHei-81ea"/>
      <use xlink:href="#SimHei-7136" transform="translate(100 0)"/>
      <use xlink:href="#SimHei-5750" transform="translate(200 0)"/>
      <use xlink:href="#SimHei-6807" transform="translate(300 0)"/>
      <use xlink:href="#SimHei-20" transform="translate(400 0)"/>
      <use xlink:href="#SimHei-73" transform="translate(450 0)"/>
      <use xlink:href="#SimHei-20" transform="translate(500 0)"/>
      <use xlink:href="#SimHei-28" transform="translate(550 0)"/>
      <use xlink:href="#SimHei-6d" transform="translate(600 0)"/>
      <use xlink:href="#SimHei-29" transform="translate(650 0)"/>
     </g>
    </g>
   </g>
   <g id="matplotlib.axis_2">
    <g id="ytick_1">
     <g id="line2d_19">
      <path d="M 57.6 292.122013 
L 414.72 292.122013 
" clip-path="url(#p7949d58f49)" style="fill: none; stroke: #ffffff; stroke-width: 0.8; stroke-linecap: square"/>
     </g>
     <g id="line2d_20">
      <defs>
       <path id="ma9864be98e" d="M 0 0 
L -3.5 0 
" style="stroke: #555555; stroke-width: 0.8"/>
      </defs>
      <g>
       <use xlink:href="#ma9864be98e" x="57.6" y="292.122013" style="fill: #555555; stroke: #555555; stroke-width: 0.8"/>
      </g>
     </g>
     <g id="text_11">
      <!-- -0.04 -->
      <g style="fill: #555555" transform="translate(25.6 295.559513) scale(0.1 -0.1)">
       <defs>
        <path id="SimHei-2d" d="M 2975 2125 
L 125 2125 
L 125 2525 
L 2975 2525 
L 2975 2125 
z
" transform="scale(0.015625)"/>
       </defs>
       <use xlink:href="#SimHei-2d"/>
       <use xlink:href="#SimHei-30" transform="translate(50 0)"/>
       <use xlink:href="#SimHei-2e" transform="translate(100 0)"/>
       <use xlink:href="#SimHei-30" transform="translate(150 0)"/>
       <use xlink:href="#SimHei-34" transform="translate(200 0)"/>
      </g>
     </g>
    </g>
    <g id="ytick_2">
     <g id="line2d_21">
      <path d="M 57.6 238.154232 
L 414.72 238.154232 
" clip-path="url(#p7949d58f49)" style="fill: none; stroke: #ffffff; stroke-width: 0.8; stroke-linecap: square"/>
     </g>
     <g id="line2d_22">
      <g>
       <use xlink:href="#ma9864be98e" x="57.6" y="238.154232" style="fill: #555555; stroke: #555555; stroke-width: 0.8"/>
      </g>
     </g>
     <g id="text_12">
      <!-- -0.02 -->
      <g style="fill: #555555" transform="translate(25.6 241.591732) scale(0.1 -0.1)">
       <use xlink:href="#SimHei-2d"/>
       <use xlink:href="#SimHei-30" transform="translate(50 0)"/>
       <use xlink:href="#SimHei-2e" transform="translate(100 0)"/>
       <use xlink:href="#SimHei-30" transform="translate(150 0)"/>
       <use xlink:href="#SimHei-32" transform="translate(200 0)"/>
      </g>
     </g>
    </g>
    <g id="ytick_3">
     <g id="line2d_23">
      <path d="M 57.6 184.18645 
L 414.72 184.18645 
" clip-path="url(#p7949d58f49)" style="fill: none; stroke: #ffffff; stroke-width: 0.8; stroke-linecap: square"/>
     </g>
     <g id="line2d_24">
      <g>
       <use xlink:href="#ma9864be98e" x="57.6" y="184.18645" style="fill: #555555; stroke: #555555; stroke-width: 0.8"/>
      </g>
     </g>
     <g id="text_13">
      <!-- 0.00 -->
      <g style="fill: #555555" transform="translate(30.6 187.62395) scale(0.1 -0.1)">
       <use xlink:href="#SimHei-30"/>
       <use xlink:href="#SimHei-2e" transform="translate(50 0)"/>
       <use xlink:href="#SimHei-30" transform="translate(100 0)"/>
       <use xlink:href="#SimHei-30" transform="translate(150 0)"/>
      </g>
     </g>
    </g>
    <g id="ytick_4">
     <g id="line2d_25">
      <path d="M 57.6 130.218669 
L 414.72 130.218669 
" clip-path="url(#p7949d58f49)" style="fill: none; stroke: #ffffff; stroke-width: 0.8; stroke-linecap: square"/>
     </g>
     <g id="line2d_26">
      <g>
       <use xlink:href="#ma9864be98e" x="57.6" y="130.218669" style="fill: #555555; stroke: #555555; stroke-width: 0.8"/>
      </g>
     </g>
     <g id="text_14">
      <!-- 0.02 -->
      <g style="fill: #555555" transform="translate(30.6 133.656169) scale(0.1 -0.1)">
       <use xlink:href="#SimHei-30"/>
       <use xlink:href="#SimHei-2e" transform="translate(50 0)"/>
       <use xlink:href="#SimHei-30" transform="translate(100 0)"/>
       <use xlink:href="#SimHei-32" transform="translate(150 0)"/>
      </g>
     </g>
    </g>
    <g id="ytick_5">
     <g id="line2d_27">
      <path d="M 57.6 76.250888 
L 414.72 76.250888 
" clip-path="url(#p7949d58f49)" style="fill: none; stroke: #ffffff; stroke-width: 0.8; stroke-linecap: square"/>
     </g>
     <g id="line2d_28">
      <g>
       <use xlink:href="#ma9864be98e" x="57.6" y="76.250888" style="fill: #555555; stroke: #555555; stroke-width: 0.8"/>
      </g>
     </g>
     <g id="text_15">
      <!-- 0.04 -->
      <g style="fill: #555555" transform="translate(30.6 79.688388) scale(0.1 -0.1)">
       <use xlink:href="#SimHei-30"/>
       <use xlink:href="#SimHei-2e" transform="translate(50 0)"/>
       <use xlink:href="#SimHei-30" transform="translate(100 0)"/>
       <use xlink:href="#SimHei-34" transform="translate(150 0)"/>
      </g>
     </g>
    </g>
    <g id="text_16">
     <!-- 最小距离 (m) -->
     <g style="fill: #555555" transform="translate(20.1 210.528) rotate(-90) scale(0.12 -0.12)">
      <defs>
       <path id="SimHei-6700" d="M 475 275 
Q 675 300 1100 350 
L 1100 2450 
Q 775 2450 425 2425 
L 425 2850 
Q 775 2825 1125 2825 
L 5025 2825 
Q 5475 2825 5900 2850 
L 5900 2425 
Q 5475 2450 5025 2450 
L 3050 2450 
L 3050 675 
L 3400 775 
Q 3400 550 3425 400 
Q 3225 350 3050 325 
Q 3050 -125 3075 -550 
L 2600 -550 
Q 2625 -125 2625 250 
Q 2350 200 1812 87 
Q 1275 -25 650 -175 
Q 575 100 475 275 
z
M 5100 4925 
Q 5075 4600 5075 4325 
L 5075 3875 
Q 5075 3600 5100 3250 
L 1275 3250 
Q 1300 3600 1300 3875 
L 1300 4325 
Q 1300 4600 1275 4925 
L 5100 4925 
z
M 3300 2050 
Q 3750 2025 4125 2025 
L 5375 2025 
Q 5100 975 4725 400 
Q 5350 0 5925 -100 
Q 5700 -275 5650 -500 
Q 5025 -300 4475 150 
Q 4150 -200 3600 -575 
Q 3500 -425 3250 -275 
Q 3775 -100 4150 350 
Q 3725 775 3500 1675 
L 3300 1675 
L 3300 2050 
z
M 4600 4250 
L 4600 4600 
L 1750 4600 
L 1750 4250 
L 4600 4250 
z
M 4600 3575 
L 4600 3900 
L 1750 3900 
L 1750 3575 
L 4600 3575 
z
M 3900 1675 
Q 4000 1075 4400 625 
Q 4700 1050 4850 1675 
L 3900 1675 
z
M 2625 1250 
L 2625 1675 
L 1525 1675 
L 1525 1250 
L 2625 1250 
z
M 2625 575 
L 2625 925 
L 1525 925 
L 1525 425 
L 2625 575 
z
M 2625 2025 
L 2625 2450 
L 1525 2450 
L 1525 2025 
L 2625 2025 
z
" transform="scale(0.015625)"/>
       <path id="SimHei-5c0f" d="M 3500 5150 
Q 3475 4800 3475 4200 
L 3475 175 
Q 3475 -300 3225 -425 
Q 2975 -550 2375 -600 
Q 2325 -300 2150 -25 
Q 2700 -25 2837 0 
Q 2975 25 2975 300 
L 2975 4200 
Q 2975 4650 2950 5150 
L 3500 5150 
z
M 2075 3400 
Q 1850 2775 1550 1962 
Q 1250 1150 1025 750 
Q 775 950 500 1000 
Q 925 1750 1175 2487 
Q 1425 3225 1500 3575 
Q 1800 3425 2075 3400 
z
M 4675 3600 
Q 5675 1800 5875 1150 
Q 5625 1100 5375 925 
Q 5000 2000 4225 3325 
Q 4425 3425 4675 3600 
z
" transform="scale(0.015625)"/>
       <path id="SimHei-8ddd" d="M 3550 1275 
L 3550 25 
L 5250 25 
Q 5750 25 6125 50 
L 6125 -425 
Q 5750 -400 5275 -400 
L 3075 -400 
Q 3100 -75 3100 575 
L 3100 4075 
Q 3100 4575 3075 4950 
L 5200 4950 
Q 5550 4950 6000 4975 
L 6000 4525 
Q 5550 4550 5225 4550 
L 3550 4550 
L 3550 3325 
L 5650 3325 
Q 5625 3050 5625 2300 
Q 5625 1575 5650 1275 
L 3550 1275 
z
M 2650 4950 
Q 2625 4400 2625 3900 
Q 2625 3400 2650 3050 
L 2000 3050 
L 2000 2175 
Q 2375 2175 2875 2200 
L 2875 1725 
Q 2375 1750 2000 1750 
L 2000 525 
Q 2625 625 2875 700 
L 2875 250 
Q 1375 -50 1062 -150 
Q 750 -250 425 -375 
Q 350 -75 250 150 
L 625 225 
L 625 1775 
Q 625 2050 600 2325 
L 1100 2325 
Q 1075 2050 1075 1775 
L 1075 300 
L 1575 425 
L 1575 3050 
L 700 3050 
Q 725 3425 725 3900 
Q 725 4400 700 4950 
L 2650 4950 
z
M 5150 1700 
L 5150 2925 
L 3550 2925 
L 3550 1700 
L 5150 1700 
z
M 2200 3425 
L 2200 4575 
L 1150 4575 
L 1150 3425 
L 2200 3425 
z
" transform="scale(0.015625)"/>
       <path id="SimHei-79bb" d="M 3000 2275 
Q 3150 2175 3425 2050 
Q 3275 1900 3150 1725 
L 5825 1725 
L 5825 0 
Q 5825 -475 5612 -537 
Q 5400 -600 4850 -650 
Q 4775 -350 4650 -100 
Q 5225 -125 5300 -87 
Q 5375 -50 5375 175 
L 5375 1350 
L 2950 1350 
Q 2825 1150 2675 962 
Q 2525 775 2350 525 
Q 2650 525 4075 675 
Q 3975 800 3850 950 
Q 3975 1075 4200 1225 
Q 4350 1075 4537 825 
Q 4725 575 4900 300 
Q 4650 200 4475 50 
Q 4350 200 4275 350 
Q 3175 225 2700 150 
Q 2225 75 1850 -25 
Q 1800 275 1675 600 
Q 1875 700 2075 900 
Q 2275 1100 2450 1350 
L 1125 1350 
L 1125 -625 
L 650 -625 
Q 675 -225 675 225 
L 675 1000 
Q 675 1450 650 1725 
L 2625 1725 
Q 2800 2000 2925 2275 
L 1025 2275 
Q 1050 2525 1050 2725 
L 1050 3325 
Q 1050 3550 1025 3800 
L 1525 3800 
Q 1500 3525 1500 3275 
L 1500 2650 
L 5050 2650 
L 5050 3325 
Q 5050 3575 5025 3775 
L 5525 3775 
Q 5500 3575 5500 3325 
L 5500 2750 
Q 5500 2550 5525 2275 
L 3000 2275 
z
M 3300 5275 
Q 3400 5000 3525 4650 
L 4950 4650 
Q 5375 4650 5950 4675 
L 5950 4275 
Q 5375 4300 4775 4300 
L 1525 4300 
Q 1050 4300 475 4275 
L 475 4675 
Q 1025 4650 1050 4650 
L 2975 4650 
Q 2900 4900 2750 5150 
Q 3025 5200 3300 5275 
z
M 2175 4125 
Q 2450 4050 2750 3937 
Q 3050 3825 3350 3725 
Q 3850 4025 4125 4250 
Q 4375 4100 4650 3925 
Q 4200 3800 3825 3550 
Q 4250 3350 4800 3100 
Q 4625 2950 4375 2775 
Q 4025 3000 3787 3112 
Q 3550 3225 3325 3300 
Q 3125 3175 2825 3050 
Q 2525 2925 2150 2775 
Q 2000 2975 1800 3125 
Q 2175 3200 2412 3287 
Q 2650 3375 2950 3475 
Q 2625 3575 2425 3637 
Q 2225 3700 1850 3775 
Q 2050 3950 2175 4125 
z
" transform="scale(0.015625)"/>
      </defs>
      <use xlink:href="#SimHei-6700"/>
      <use xlink:href="#SimHei-5c0f" transform="translate(100 0)"/>
      <use xlink:href="#SimHei-8ddd" transform="translate(200 0)"/>
      <use xlink:href="#SimHei-79bb" transform="translate(300 0)"/>
      <use xlink:href="#SimHei-20" transform="translate(400 0)"/>
      <use xlink:href="#SimHei-28" transform="translate(450 0)"/>
      <use xlink:href="#SimHei-6d" transform="translate(500 0)"/>
      <use xlink:href="#SimHei-29" transform="translate(550 0)"/>
     </g>
    </g>
   </g>
   <g id="line2d_29">
    <path d="M 73.832727 128.955376 
L 75.464157 127.253854 
L 77.095587 125.220478 
L 78.727017 122.853295 
L 80.358447 120.15035 
L 81.989877 117.109686 
L 83.621307 113.729349 
L 85.252736 110.007382 
L 86.884166 105.941828 
L 88.515596 101.530732 
L 90.147026 96.772138 
L 93.409886 86.204639 
L 96.672746 74.223706 
L 99.935605 60.813739 
L 101.567035 53.568 
L 103.198465 57.328197 
L 106.461325 75.540433 
L 109.724185 92.323061 
L 112.987044 107.652195 
L 116.249904 121.503765 
L 119.512764 133.853523 
L 122.775624 144.677051 
L 124.407053 149.508802 
L 126.038483 153.949765 
L 127.669913 157.996843 
L 129.301343 161.646928 
L 130.932773 164.896907 
L 132.564203 167.743655 
L 134.195633 170.18404 
L 135.827063 172.214921 
L 137.458492 173.83315 
L 139.089922 175.035572 
L 140.721352 175.819025 
L 142.352782 176.180339 
L 143.984212 176.116338 
L 145.615642 175.623841 
L 147.247072 174.699661 
L 148.878502 173.340604 
L 150.509931 171.543474 
L 152.141361 169.305069 
L 153.772791 166.622183 
L 155.404221 163.491607 
L 157.035651 159.910129 
L 158.667081 155.874534 
L 160.298511 151.381606 
L 161.929941 146.428125 
L 163.56137 141.010872 
L 165.1928 135.126627 
L 166.82423 135.377905 
L 170.08709 146.731156 
L 171.71852 151.831027 
L 173.34995 156.542365 
L 174.98138 160.862134 
L 176.61281 164.787295 
L 178.244239 168.314799 
L 179.875669 171.441589 
L 181.507099 174.164602 
L 183.138529 176.480769 
L 184.769959 178.387015 
L 186.401389 179.880256 
L 188.032819 180.957407 
L 189.664249 181.615374 
L 191.295678 181.851061 
L 192.927108 181.661366 
L 194.558538 181.043183 
L 196.189968 179.993403 
L 197.821398 178.508914 
L 199.452828 176.586601 
L 201.084258 174.223347 
L 202.715688 171.416032 
L 204.347117 168.161538 
L 205.978547 164.456742 
L 207.609977 160.298523 
L 209.241407 155.683761 
L 210.872837 150.609335 
L 212.504267 145.072127 
L 214.135697 139.069019 
L 215.767127 132.596898 
L 219.029986 118.233175 
L 220.661416 110.335363 
L 222.292846 118.13105 
L 225.555706 138.782443 
L 228.818566 157.467315 
L 232.081425 174.144669 
L 235.344285 188.773099 
L 236.975715 195.305918 
L 238.607145 201.310798 
L 240.238575 206.782456 
L 241.870005 211.715581 
L 243.501434 216.104845 
L 245.132864 219.944896 
L 246.764294 223.230361 
L 248.395724 225.955849 
L 250.027154 228.115946 
L 251.658584 229.705224 
L 253.290014 230.718232 
L 254.921444 231.149507 
L 256.552873 230.993566 
L 258.184303 230.244912 
L 259.815733 228.898034 
L 261.447163 226.947408 
L 263.078593 224.387496 
L 264.710023 221.21275 
L 266.341453 217.417611 
L 267.972883 212.996512 
L 269.604312 207.943877 
L 271.235742 202.254124 
L 272.867172 195.921664 
L 274.498602 188.940905 
L 276.130032 181.306253 
L 277.761462 173.012111 
L 279.392892 174.774036 
L 282.655751 190.11024 
L 284.287181 197.009902 
L 285.918611 203.390611 
L 287.550041 209.247354 
L 289.181471 214.575098 
L 290.812901 219.368797 
L 292.444331 223.623389 
L 294.075761 227.333798 
L 295.70719 230.494935 
L 297.33862 233.101698 
L 298.97005 235.148975 
L 300.60148 236.631644 
L 302.23291 237.54457 
L 303.86434 237.882613 
L 305.49577 237.640624 
L 307.1272 236.813447 
L 308.75863 235.395924 
L 310.390059 233.382888 
L 312.021489 230.769172 
L 313.652919 227.549608 
L 315.284349 223.719025 
L 316.915779 219.272255 
L 318.547209 214.204131 
L 320.178639 208.509491 
L 321.810069 202.183178 
L 323.441498 195.220041 
L 325.072928 187.614937 
L 326.704358 179.362734 
L 329.967218 203.31268 
L 333.230078 225.076135 
L 334.861508 234.881458 
L 336.492937 243.956396 
L 338.124367 252.291279 
L 339.755797 259.876369 
L 341.387227 266.701863 
L 343.018657 272.757894 
L 344.650087 278.034532 
L 346.281517 282.521787 
L 347.912947 286.209605 
L 349.544376 289.087879 
L 351.175806 291.146442 
L 352.807236 292.375074 
L 354.438666 292.763501 
L 356.070096 292.3014 
L 357.701526 290.978397 
L 359.332956 288.784075 
L 360.964386 285.70797 
L 362.595815 281.739579 
L 364.227245 276.868359 
L 365.858675 271.083734 
L 367.490105 264.375091 
L 369.121535 256.731792 
L 370.752965 248.143169 
L 372.384395 238.598534 
L 374.015825 228.087177 
L 375.647254 216.598376 
L 377.278684 204.121396 
L 378.910114 208.185404 
L 382.172974 229.943991 
L 383.804404 239.780702 
L 385.435834 248.910988 
L 387.067264 257.326281 
L 388.698693 265.017984 
L 390.330123 271.977468 
L 391.961553 278.196082 
L 393.592983 283.665148 
L 395.224413 288.375969 
L 396.855843 292.31983 
L 398.487273 295.488 
L 398.487273 295.488 
" clip-path="url(#p7949d58f49)" style="fill: none; stroke: #e24a33; stroke-width: 1.5; stroke-linecap: square"/>
   </g>
   <g id="patch_3">
    <path d="M 57.6 307.584 
L 57.6 41.472 
" style="fill: none; stroke: #ffffff; stroke-linejoin: miter; stroke-linecap: square"/>
   </g>
   <g id="patch_4">
    <path d="M 414.72 307.584 
L 414.72 41.472 
" style="fill: none; stroke: #ffffff; stroke-linejoin: miter; stroke-linecap: square"/>
   </g>
   <g id="patch_5">
    <path d="M 57.6 307.584 
L 414.72 307.584 
" style="fill: none; stroke: #ffffff; stroke-linejoin: miter; stroke-linecap: square"/>
   </g>
   <g id="patch_6">
    <path d="M 57.6 41.472 
L 414.72 41.472 
" style="fill: none; stroke: #ffffff; stroke-linejoin: miter; stroke-linecap: square"/>
   </g>
   <g id="legend_1">
    <g id="patch_7">
     <path d="M 335.72 63.729813 
L 407.72 63.729813 
Q 409.72 63.729813 409.72 61.729813 
L 409.72 48.472 
Q 409.72 46.472 407.72 46.472 
L 335.72 46.472 
Q 333.72 46.472 333.72 48.472 
L 333.72 61.729813 
Q 333.72 63.729813 335.72 63.729813 
z
" style="fill: #e5e5e5; opacity: 0.8; stroke: #cccccc; stroke-width: 0.5; stroke-linejoin: miter"/>
    </g>
    <g id="line2d_30">
     <path d="M 337.72 54.979813 
L 347.72 54.979813 
L 357.72 54.979813 
" style="fill: none; stroke: #e24a33; stroke-width: 1.5; stroke-linecap: square"/>
    </g>
    <g id="text_17">
     <!-- 最小距离 -->
     <g transform="translate(365.72 58.479813) scale(0.1 -0.1)">
      <use xlink:href="#SimHei-6700"/>
      <use xlink:href="#SimHei-5c0f" transform="translate(100 0)"/>
      <use xlink:href="#SimHei-8ddd" transform="translate(200 0)"/>
      <use xlink:href="#SimHei-79bb" transform="translate(300 0)"/>
     </g>
    </g>
   </g>
  </g>
 </g>
 <defs>
  <clipPath id="p7949d58f49">
   <rect x="57.6" y="41.472" width="357.12" height="266.112"/>
  </clipPath>
 </defs>
</svg>
