<?xml version="1.0" encoding="utf-8" standalone="no"?>
<!DOCTYPE svg PUBLIC "-//W3C//DTD SVG 1.1//EN"
  "http://www.w3.org/Graphics/SVG/1.1/DTD/svg11.dtd">
<svg xmlns:xlink="http://www.w3.org/1999/xlink" width="460.8pt" height="345.6pt" viewBox="0 0 460.8 345.6" xmlns="http://www.w3.org/2000/svg" version="1.1">
 <metadata>
  <rdf:RDF xmlns:dc="http://purl.org/dc/elements/1.1/" xmlns:cc="http://creativecommons.org/ns#" xmlns:rdf="http://www.w3.org/1999/02/22-rdf-syntax-ns#">
   <cc:Work>
    <dc:type rdf:resource="http://purl.org/dc/dcmitype/StillImage"/>
    <dc:date>2025-08-20T20:44:33.433610</dc:date>
    <dc:format>image/svg+xml</dc:format>
    <dc:creator>
     <cc:Agent>
      <dc:title>Matplotlib v3.10.5, https://matplotlib.org/</dc:title>
     </cc:Agent>
    </dc:creator>
   </cc:Work>
  </rdf:RDF>
 </metadata>
 <defs>
  <style type="text/css">*{stroke-linejoin: round; stroke-linecap: butt}</style>
 </defs>
 <g id="figure_1">
  <g id="patch_1">
   <path d="M 0 345.6 
L 460.8 345.6 
L 460.8 0 
L 0 0 
z
" style="fill: #ffffff"/>
  </g>
  <g id="axes_1">
   <g id="patch_2">
    <path d="M 57.6 307.584 
L 414.72 307.584 
L 414.72 41.472 
L 57.6 41.472 
z
" style="fill: #e5e5e5"/>
   </g>
   <g id="matplotlib.axis_1">
    <g id="xtick_1">
     <g id="line2d_1">
      <path d="M 73.832727 307.584 
L 73.832727 41.472 
" clip-path="url(#pf721d5ddc3)" style="fill: none; stroke: #ffffff; stroke-width: 0.8; stroke-linecap: square"/>
     </g>
     <g id="line2d_2">
      <defs>
       <path id="m47376b28b8" d="M 0 0 
L 0 3.5 
" style="stroke: #555555; stroke-width: 0.8"/>
      </defs>
      <g>
       <use xlink:href="#m47376b28b8" x="73.832727" y="307.584" style="fill: #555555; stroke: #555555; stroke-width: 0.8"/>
      </g>
     </g>
     <g id="text_1">
      <!-- 0.0 -->
      <g style="fill: #555555" transform="translate(66.332727 321.459) scale(0.1 -0.1)">
       <defs>
        <path id="SimHei-30" d="M 225 2537 
Q 250 3200 412 3587 
Q 575 3975 875 4225 
Q 1175 4475 1612 4475 
Q 2050 4475 2375 4112 
Q 2700 3750 2800 3200 
Q 2900 2650 2862 1937 
Q 2825 1225 2612 775 
Q 2400 325 1975 150 
Q 1550 -25 1125 187 
Q 700 400 525 750 
Q 350 1100 275 1487 
Q 200 1875 225 2537 
z
M 750 2687 
Q 675 2000 800 1462 
Q 925 925 1212 700 
Q 1500 475 1800 612 
Q 2100 750 2237 1162 
Q 2375 1575 2375 2062 
Q 2375 2550 2337 2950 
Q 2300 3350 2112 3675 
Q 1925 4000 1612 4012 
Q 1300 4025 1062 3700 
Q 825 3375 750 2687 
z
" transform="scale(0.015625)"/>
        <path id="SimHei-2e" d="M 1075 125 
L 500 125 
L 500 675 
L 1075 675 
L 1075 125 
z
" transform="scale(0.015625)"/>
       </defs>
       <use xlink:href="#SimHei-30"/>
       <use xlink:href="#SimHei-2e" transform="translate(50 0)"/>
       <use xlink:href="#SimHei-30" transform="translate(100 0)"/>
      </g>
     </g>
    </g>
    <g id="xtick_2">
     <g id="line2d_3">
      <path d="M 114.414545 307.584 
L 114.414545 41.472 
" clip-path="url(#pf721d5ddc3)" style="fill: none; stroke: #ffffff; stroke-width: 0.8; stroke-linecap: square"/>
     </g>
     <g id="line2d_4">
      <g>
       <use xlink:href="#m47376b28b8" x="114.414545" y="307.584" style="fill: #555555; stroke: #555555; stroke-width: 0.8"/>
      </g>
     </g>
     <g id="text_2">
      <!-- 2.5 -->
      <g style="fill: #555555" transform="translate(106.914545 321.459) scale(0.1 -0.1)">
       <defs>
        <path id="SimHei-32" d="M 300 250 
Q 325 625 650 925 
Q 975 1225 1475 1862 
Q 1975 2500 2125 2850 
Q 2275 3200 2237 3450 
Q 2200 3700 2000 3862 
Q 1800 4025 1537 4000 
Q 1275 3975 1037 3800 
Q 800 3625 675 3275 
L 200 3350 
Q 400 3925 712 4187 
Q 1025 4450 1450 4475 
Q 1700 4500 1900 4462 
Q 2100 4425 2312 4287 
Q 2525 4150 2662 3875 
Q 2800 3600 2762 3212 
Q 2725 2825 2375 2287 
Q 2025 1750 1025 600 
L 2825 600 
L 2825 150 
L 300 150 
L 300 250 
z
" transform="scale(0.015625)"/>
        <path id="SimHei-35" d="M 550 1325 
Q 725 650 1150 575 
Q 1575 500 1837 662 
Q 2100 825 2212 1087 
Q 2325 1350 2312 1675 
Q 2300 2000 2137 2225 
Q 1975 2450 1725 2525 
Q 1475 2600 1162 2525 
Q 850 2450 650 2175 
L 225 2225 
Q 275 2375 700 4375 
L 2675 4375 
L 2675 3925 
L 1075 3925 
Q 950 3250 825 2850 
Q 1200 3025 1525 3012 
Q 1850 3000 2150 2862 
Q 2450 2725 2587 2487 
Q 2725 2250 2787 2012 
Q 2850 1775 2837 1500 
Q 2825 1225 2725 937 
Q 2625 650 2425 462 
Q 2225 275 1937 162 
Q 1650 50 1275 75 
Q 900 100 562 350 
Q 225 600 100 1200 
L 550 1325 
z
" transform="scale(0.015625)"/>
       </defs>
       <use xlink:href="#SimHei-32"/>
       <use xlink:href="#SimHei-2e" transform="translate(50 0)"/>
       <use xlink:href="#SimHei-35" transform="translate(100 0)"/>
      </g>
     </g>
    </g>
    <g id="xtick_3">
     <g id="line2d_5">
      <path d="M 154.996364 307.584 
L 154.996364 41.472 
" clip-path="url(#pf721d5ddc3)" style="fill: none; stroke: #ffffff; stroke-width: 0.8; stroke-linecap: square"/>
     </g>
     <g id="line2d_6">
      <g>
       <use xlink:href="#m47376b28b8" x="154.996364" y="307.584" style="fill: #555555; stroke: #555555; stroke-width: 0.8"/>
      </g>
     </g>
     <g id="text_3">
      <!-- 5.0 -->
      <g style="fill: #555555" transform="translate(147.496364 321.459) scale(0.1 -0.1)">
       <use xlink:href="#SimHei-35"/>
       <use xlink:href="#SimHei-2e" transform="translate(50 0)"/>
       <use xlink:href="#SimHei-30" transform="translate(100 0)"/>
      </g>
     </g>
    </g>
    <g id="xtick_4">
     <g id="line2d_7">
      <path d="M 195.578182 307.584 
L 195.578182 41.472 
" clip-path="url(#pf721d5ddc3)" style="fill: none; stroke: #ffffff; stroke-width: 0.8; stroke-linecap: square"/>
     </g>
     <g id="line2d_8">
      <g>
       <use xlink:href="#m47376b28b8" x="195.578182" y="307.584" style="fill: #555555; stroke: #555555; stroke-width: 0.8"/>
      </g>
     </g>
     <g id="text_4">
      <!-- 7.5 -->
      <g style="fill: #555555" transform="translate(188.078182 321.459) scale(0.1 -0.1)">
       <defs>
        <path id="SimHei-37" d="M 850 150 
Q 1300 2050 2425 3925 
L 275 3925 
L 275 4375 
L 2950 4375 
L 2950 3950 
Q 1775 2050 1400 150 
L 850 150 
z
" transform="scale(0.015625)"/>
       </defs>
       <use xlink:href="#SimHei-37"/>
       <use xlink:href="#SimHei-2e" transform="translate(50 0)"/>
       <use xlink:href="#SimHei-35" transform="translate(100 0)"/>
      </g>
     </g>
    </g>
    <g id="xtick_5">
     <g id="line2d_9">
      <path d="M 236.16 307.584 
L 236.16 41.472 
" clip-path="url(#pf721d5ddc3)" style="fill: none; stroke: #ffffff; stroke-width: 0.8; stroke-linecap: square"/>
     </g>
     <g id="line2d_10">
      <g>
       <use xlink:href="#m47376b28b8" x="236.16" y="307.584" style="fill: #555555; stroke: #555555; stroke-width: 0.8"/>
      </g>
     </g>
     <g id="text_5">
      <!-- 10.0 -->
      <g style="fill: #555555" transform="translate(226.16 321.459) scale(0.1 -0.1)">
       <defs>
        <path id="SimHei-31" d="M 1400 3600 
Q 1075 3275 575 2975 
L 575 3450 
Q 1200 3875 1600 4450 
L 1900 4450 
L 1900 150 
L 1400 150 
L 1400 3600 
z
" transform="scale(0.015625)"/>
       </defs>
       <use xlink:href="#SimHei-31"/>
       <use xlink:href="#SimHei-30" transform="translate(50 0)"/>
       <use xlink:href="#SimHei-2e" transform="translate(100 0)"/>
       <use xlink:href="#SimHei-30" transform="translate(150 0)"/>
      </g>
     </g>
    </g>
    <g id="xtick_6">
     <g id="line2d_11">
      <path d="M 276.741818 307.584 
L 276.741818 41.472 
" clip-path="url(#pf721d5ddc3)" style="fill: none; stroke: #ffffff; stroke-width: 0.8; stroke-linecap: square"/>
     </g>
     <g id="line2d_12">
      <g>
       <use xlink:href="#m47376b28b8" x="276.741818" y="307.584" style="fill: #555555; stroke: #555555; stroke-width: 0.8"/>
      </g>
     </g>
     <g id="text_6">
      <!-- 12.5 -->
      <g style="fill: #555555" transform="translate(266.741818 321.459) scale(0.1 -0.1)">
       <use xlink:href="#SimHei-31"/>
       <use xlink:href="#SimHei-32" transform="translate(50 0)"/>
       <use xlink:href="#SimHei-2e" transform="translate(100 0)"/>
       <use xlink:href="#SimHei-35" transform="translate(150 0)"/>
      </g>
     </g>
    </g>
    <g id="xtick_7">
     <g id="line2d_13">
      <path d="M 317.323636 307.584 
L 317.323636 41.472 
" clip-path="url(#pf721d5ddc3)" style="fill: none; stroke: #ffffff; stroke-width: 0.8; stroke-linecap: square"/>
     </g>
     <g id="line2d_14">
      <g>
       <use xlink:href="#m47376b28b8" x="317.323636" y="307.584" style="fill: #555555; stroke: #555555; stroke-width: 0.8"/>
      </g>
     </g>
     <g id="text_7">
      <!-- 15.0 -->
      <g style="fill: #555555" transform="translate(307.323636 321.459) scale(0.1 -0.1)">
       <use xlink:href="#SimHei-31"/>
       <use xlink:href="#SimHei-35" transform="translate(50 0)"/>
       <use xlink:href="#SimHei-2e" transform="translate(100 0)"/>
       <use xlink:href="#SimHei-30" transform="translate(150 0)"/>
      </g>
     </g>
    </g>
    <g id="xtick_8">
     <g id="line2d_15">
      <path d="M 357.905455 307.584 
L 357.905455 41.472 
" clip-path="url(#pf721d5ddc3)" style="fill: none; stroke: #ffffff; stroke-width: 0.8; stroke-linecap: square"/>
     </g>
     <g id="line2d_16">
      <g>
       <use xlink:href="#m47376b28b8" x="357.905455" y="307.584" style="fill: #555555; stroke: #555555; stroke-width: 0.8"/>
      </g>
     </g>
     <g id="text_8">
      <!-- 17.5 -->
      <g style="fill: #555555" transform="translate(347.905455 321.459) scale(0.1 -0.1)">
       <use xlink:href="#SimHei-31"/>
       <use xlink:href="#SimHei-37" transform="translate(50 0)"/>
       <use xlink:href="#SimHei-2e" transform="translate(100 0)"/>
       <use xlink:href="#SimHei-35" transform="translate(150 0)"/>
      </g>
     </g>
    </g>
    <g id="xtick_9">
     <g id="line2d_17">
      <path d="M 398.487273 307.584 
L 398.487273 41.472 
" clip-path="url(#pf721d5ddc3)" style="fill: none; stroke: #ffffff; stroke-width: 0.8; stroke-linecap: square"/>
     </g>
     <g id="line2d_18">
      <g>
       <use xlink:href="#m47376b28b8" x="398.487273" y="307.584" style="fill: #555555; stroke: #555555; stroke-width: 0.8"/>
      </g>
     </g>
     <g id="text_9">
      <!-- 20.0 -->
      <g style="fill: #555555" transform="translate(388.487273 321.459) scale(0.1 -0.1)">
       <use xlink:href="#SimHei-32"/>
       <use xlink:href="#SimHei-30" transform="translate(50 0)"/>
       <use xlink:href="#SimHei-2e" transform="translate(100 0)"/>
       <use xlink:href="#SimHei-30" transform="translate(150 0)"/>
      </g>
     </g>
    </g>
    <g id="text_10">
     <!-- 龙头位置 (s) -->
     <g style="fill: #555555" transform="translate(200.16 336.36525) scale(0.12 -0.12)">
      <defs>
       <path id="SimHei-9f99" d="M 3200 5100 
Q 3075 4875 3062 4537 
Q 3050 4200 3000 3650 
L 5025 3650 
Q 5475 3650 5925 3700 
L 5925 3200 
Q 5475 3225 5025 3225 
L 3800 3225 
L 3800 950 
Q 4100 1300 4400 1737 
Q 4700 2175 4875 2625 
Q 5200 2475 5500 2375 
Q 5150 2025 4800 1475 
Q 4450 925 3825 375 
Q 3800 -50 3887 -75 
Q 3975 -100 4175 -125 
L 4975 -125 
Q 5275 -100 5400 -75 
Q 5525 -50 5625 575 
Q 5875 325 6200 275 
Q 5950 -275 5825 -400 
Q 5700 -525 5400 -525 
L 3925 -525 
Q 3525 -525 3425 -412 
Q 3325 -300 3325 50 
Q 3175 -75 2862 -250 
Q 2550 -425 2325 -550 
Q 2250 -400 1950 -150 
Q 2300 -25 2700 200 
Q 3100 425 3325 625 
L 3325 3225 
L 2975 3225 
Q 2850 2500 2700 2050 
Q 2550 1600 2325 1187 
Q 2100 775 1750 362 
Q 1400 -50 775 -575 
Q 775 -425 300 -150 
Q 725 75 1087 437 
Q 1450 800 1737 1225 
Q 2025 1650 2200 2150 
Q 2375 2650 2450 3225 
L 1475 3225 
Q 1025 3225 550 3200 
L 550 3675 
Q 1050 3650 1475 3650 
L 2525 3650 
Q 2550 3950 2562 4375 
Q 2575 4800 2525 5250 
Q 3050 5125 3200 5100 
z
M 5050 4175 
Q 4925 4075 4650 3825 
Q 4400 4200 3975 4650 
Q 4150 4775 4350 4975 
Q 4675 4675 5050 4175 
z
" transform="scale(0.015625)"/>
       <path id="SimHei-5934" d="M 4175 5100 
Q 4000 4750 4000 4100 
Q 4000 3475 3875 2150 
L 5025 2150 
Q 5500 2150 6100 2175 
L 6100 1650 
Q 5500 1675 5075 1675 
L 3775 1675 
Q 3500 975 3075 575 
Q 2650 175 2162 -112 
Q 1675 -400 950 -700 
Q 825 -450 500 -250 
Q 1125 -175 2050 375 
Q 2975 925 3250 1675 
L 1425 1675 
Q 925 1675 375 1650 
L 375 2175 
Q 925 2150 1275 2150 
L 3400 2150 
Q 3450 2575 3487 3250 
Q 3525 3925 3525 5200 
Q 3800 5150 4175 5100 
z
M 4050 1150 
Q 4500 900 4975 575 
Q 5450 250 6000 -125 
Q 5825 -250 5650 -550 
Q 5200 -225 4750 112 
Q 4300 450 3750 750 
Q 3875 900 4050 1150 
z
M 975 3650 
Q 1850 3175 2325 2850 
Q 2100 2650 1950 2400 
Q 1725 2650 650 3250 
Q 850 3450 975 3650 
z
M 1650 4900 
Q 2375 4475 3000 4050 
Q 2800 3900 2650 3625 
Q 2150 4050 1350 4525 
Q 1525 4700 1650 4900 
z
" transform="scale(0.015625)"/>
       <path id="SimHei-4f4d" d="M 2125 4925 
Q 1950 4750 1625 3750 
L 1625 575 
Q 1625 -225 1650 -650 
L 1100 -650 
Q 1150 -200 1150 550 
L 1150 2950 
Q 775 2275 550 1950 
Q 375 2275 200 2425 
Q 525 2775 912 3575 
Q 1300 4375 1500 5200 
Q 1825 5000 2125 4925 
z
M 5375 3025 
Q 5275 2875 5100 2250 
Q 4925 1625 4600 300 
L 5450 300 
Q 5925 300 6100 325 
L 6100 -175 
Q 5875 -150 5450 -150 
L 2900 -150 
Q 2275 -150 2050 -175 
L 2050 325 
Q 2275 300 2850 300 
L 4075 300 
Q 4400 1400 4700 3175 
Q 5100 3075 5375 3025 
z
M 5250 4025 
Q 5700 4025 5925 4050 
L 5925 3575 
Q 5700 3600 5225 3600 
L 3000 3600 
Q 2650 3600 2275 3575 
L 2275 4050 
Q 2675 4025 3000 4025 
L 5250 4025 
z
M 3050 3050 
Q 3500 1775 3750 725 
Q 3450 625 3250 550 
Q 3125 1125 2962 1675 
Q 2800 2225 2550 2875 
Q 2800 2925 3050 3050 
z
M 3875 5200 
Q 4175 4675 4400 4300 
Q 4200 4250 3875 4075 
Q 3700 4525 3400 4950 
Q 3650 5050 3875 5200 
z
" transform="scale(0.015625)"/>
       <path id="SimHei-7f6e" d="M 3600 3650 
Q 3525 3475 3475 3325 
L 4750 3325 
Q 5100 3325 5675 3350 
L 5675 2925 
Q 5125 2950 4750 2950 
L 3400 2950 
L 3350 2600 
L 5000 2600 
Q 4975 1975 4975 1550 
L 4975 -50 
Q 5575 -50 6025 -25 
L 6025 -400 
Q 5475 -375 5000 -375 
L 1400 -375 
Q 900 -375 400 -400 
L 400 -25 
Q 925 -50 1450 -50 
L 1450 1550 
Q 1450 1975 1425 2600 
L 2875 2600 
L 2925 2950 
L 1600 2950 
Q 1150 2950 650 2925 
L 650 3350 
Q 1150 3325 1600 3325 
L 2975 3325 
Q 3000 3525 3000 3700 
Q 3250 3650 3600 3650 
z
M 5575 4950 
Q 5550 4600 5550 4300 
Q 5550 4000 5575 3775 
L 900 3775 
Q 925 4075 925 4325 
Q 925 4600 900 4950 
L 5575 4950 
z
M 4575 1900 
L 4575 2250 
L 1850 2250 
L 1850 1900 
L 4575 1900 
z
M 4575 1250 
L 4575 1575 
L 1850 1575 
L 1850 1250 
L 4575 1250 
z
M 4575 -50 
L 4575 275 
L 1850 275 
L 1850 -50 
L 4575 -50 
z
M 4575 625 
L 4575 875 
L 1850 875 
L 1850 625 
L 4575 625 
z
M 3700 4100 
L 3700 4625 
L 2700 4625 
L 2700 4100 
L 3700 4100 
z
M 5075 4100 
L 5075 4625 
L 4100 4625 
L 4100 4100 
L 5075 4100 
z
M 2350 4100 
L 2350 4625 
L 1400 4625 
L 1400 4100 
L 2350 4100 
z
" transform="scale(0.015625)"/>
       <path id="SimHei-20" transform="scale(0.015625)"/>
       <path id="SimHei-28" d="M 2975 -200 
L 2700 -475 
Q 2075 125 1762 775 
Q 1450 1425 1450 2250 
Q 1450 3075 1762 3725 
Q 2075 4375 2700 5000 
L 2975 4725 
Q 2400 4175 2112 3587 
Q 1825 3000 1825 2250 
Q 1825 1500 2112 912 
Q 2400 325 2975 -200 
z
" transform="scale(0.015625)"/>
       <path id="SimHei-73" d="M 2750 900 
Q 2750 500 2437 287 
Q 2125 75 1650 75 
Q 1050 75 725 312 
Q 400 550 400 1000 
L 900 1000 
Q 900 700 1112 600 
Q 1325 500 1625 500 
Q 1925 500 2075 612 
Q 2225 725 2225 900 
Q 2225 1025 2100 1150 
Q 1975 1275 1475 1350 
Q 900 1425 687 1637 
Q 475 1850 475 2200 
Q 475 2500 762 2737 
Q 1050 2975 1600 2975 
Q 2100 2975 2387 2750 
Q 2675 2525 2675 2150 
L 2175 2150 
Q 2175 2375 2012 2462 
Q 1850 2550 1600 2550 
Q 1275 2550 1137 2437 
Q 1000 2325 1000 2175 
Q 1000 2000 1125 1900 
Q 1250 1800 1650 1750 
Q 2300 1650 2525 1437 
Q 2750 1225 2750 900 
z
" transform="scale(0.015625)"/>
       <path id="SimHei-29" d="M 1675 2250 
Q 1675 1425 1362 775 
Q 1050 125 425 -475 
L 150 -200 
Q 725 325 1012 912 
Q 1300 1500 1300 2250 
Q 1300 3000 1012 3587 
Q 725 4175 150 4725 
L 425 5000 
Q 1050 4375 1362 3725 
Q 1675 3075 1675 2250 
z
" transform="scale(0.015625)"/>
      </defs>
      <use xlink:href="#SimHei-9f99"/>
      <use xlink:href="#SimHei-5934" transform="translate(100 0)"/>
      <use xlink:href="#SimHei-4f4d" transform="translate(200 0)"/>
      <use xlink:href="#SimHei-7f6e" transform="translate(300 0)"/>
      <use xlink:href="#SimHei-20" transform="translate(400 0)"/>
      <use xlink:href="#SimHei-28" transform="translate(450 0)"/>
      <use xlink:href="#SimHei-73" transform="translate(500 0)"/>
      <use xlink:href="#SimHei-29" transform="translate(550 0)"/>
     </g>
    </g>
   </g>
   <g id="matplotlib.axis_2">
    <g id="ytick_1">
     <g id="line2d_19">
      <path d="M 57.6 295.488 
L 414.72 295.488 
" clip-path="url(#pf721d5ddc3)" style="fill: none; stroke: #ffffff; stroke-width: 0.8; stroke-linecap: square"/>
     </g>
     <g id="line2d_20">
      <defs>
       <path id="m65194bd8a8" d="M 0 0 
L -3.5 0 
" style="stroke: #555555; stroke-width: 0.8"/>
      </defs>
      <g>
       <use xlink:href="#m65194bd8a8" x="57.6" y="295.488" style="fill: #555555; stroke: #555555; stroke-width: 0.8"/>
      </g>
     </g>
     <g id="text_11">
      <!-- 1.0 -->
      <g style="fill: #555555" transform="translate(35.6 298.9255) scale(0.1 -0.1)">
       <use xlink:href="#SimHei-31"/>
       <use xlink:href="#SimHei-2e" transform="translate(50 0)"/>
       <use xlink:href="#SimHei-30" transform="translate(100 0)"/>
      </g>
     </g>
    </g>
    <g id="ytick_2">
     <g id="line2d_21">
      <path d="M 57.6 255.464492 
L 414.72 255.464492 
" clip-path="url(#pf721d5ddc3)" style="fill: none; stroke: #ffffff; stroke-width: 0.8; stroke-linecap: square"/>
     </g>
     <g id="line2d_22">
      <g>
       <use xlink:href="#m65194bd8a8" x="57.6" y="255.464492" style="fill: #555555; stroke: #555555; stroke-width: 0.8"/>
      </g>
     </g>
     <g id="text_12">
      <!-- 1.1 -->
      <g style="fill: #555555" transform="translate(35.6 258.901992) scale(0.1 -0.1)">
       <use xlink:href="#SimHei-31"/>
       <use xlink:href="#SimHei-2e" transform="translate(50 0)"/>
       <use xlink:href="#SimHei-31" transform="translate(100 0)"/>
      </g>
     </g>
    </g>
    <g id="ytick_3">
     <g id="line2d_23">
      <path d="M 57.6 215.440985 
L 414.72 215.440985 
" clip-path="url(#pf721d5ddc3)" style="fill: none; stroke: #ffffff; stroke-width: 0.8; stroke-linecap: square"/>
     </g>
     <g id="line2d_24">
      <g>
       <use xlink:href="#m65194bd8a8" x="57.6" y="215.440985" style="fill: #555555; stroke: #555555; stroke-width: 0.8"/>
      </g>
     </g>
     <g id="text_13">
      <!-- 1.2 -->
      <g style="fill: #555555" transform="translate(35.6 218.878485) scale(0.1 -0.1)">
       <use xlink:href="#SimHei-31"/>
       <use xlink:href="#SimHei-2e" transform="translate(50 0)"/>
       <use xlink:href="#SimHei-32" transform="translate(100 0)"/>
      </g>
     </g>
    </g>
    <g id="ytick_4">
     <g id="line2d_25">
      <path d="M 57.6 175.417477 
L 414.72 175.417477 
" clip-path="url(#pf721d5ddc3)" style="fill: none; stroke: #ffffff; stroke-width: 0.8; stroke-linecap: square"/>
     </g>
     <g id="line2d_26">
      <g>
       <use xlink:href="#m65194bd8a8" x="57.6" y="175.417477" style="fill: #555555; stroke: #555555; stroke-width: 0.8"/>
      </g>
     </g>
     <g id="text_14">
      <!-- 1.3 -->
      <g style="fill: #555555" transform="translate(35.6 178.854977) scale(0.1 -0.1)">
       <defs>
        <path id="SimHei-33" d="M 250 1225 
L 700 1300 
Q 800 975 1025 762 
Q 1250 550 1587 562 
Q 1925 575 2125 837 
Q 2325 1100 2300 1437 
Q 2275 1775 2037 1962 
Q 1800 2150 1275 2225 
L 1275 2550 
Q 1800 2600 2037 2825 
Q 2275 3050 2250 3412 
Q 2225 3775 1925 3937 
Q 1625 4100 1287 3975 
Q 950 3850 750 3275 
L 300 3350 
Q 450 3800 712 4100 
Q 975 4400 1425 4450 
Q 1875 4500 2212 4337 
Q 2550 4175 2687 3837 
Q 2825 3500 2725 3100 
Q 2625 2700 2150 2400 
Q 2500 2250 2687 1950 
Q 2875 1650 2812 1162 
Q 2750 675 2375 375 
Q 2000 75 1525 87 
Q 1050 100 700 387 
Q 350 675 250 1225 
z
" transform="scale(0.015625)"/>
       </defs>
       <use xlink:href="#SimHei-31"/>
       <use xlink:href="#SimHei-2e" transform="translate(50 0)"/>
       <use xlink:href="#SimHei-33" transform="translate(100 0)"/>
      </g>
     </g>
    </g>
    <g id="ytick_5">
     <g id="line2d_27">
      <path d="M 57.6 135.393969 
L 414.72 135.393969 
" clip-path="url(#pf721d5ddc3)" style="fill: none; stroke: #ffffff; stroke-width: 0.8; stroke-linecap: square"/>
     </g>
     <g id="line2d_28">
      <g>
       <use xlink:href="#m65194bd8a8" x="57.6" y="135.393969" style="fill: #555555; stroke: #555555; stroke-width: 0.8"/>
      </g>
     </g>
     <g id="text_15">
      <!-- 1.4 -->
      <g style="fill: #555555" transform="translate(35.6 138.831469) scale(0.1 -0.1)">
       <defs>
        <path id="SimHei-34" d="M 2000 1100 
L 75 1100 
L 75 1525 
L 2100 4450 
L 2475 4450 
L 2475 1525 
L 3075 1525 
L 3075 1100 
L 2475 1100 
L 2475 150 
L 2000 150 
L 2000 1100 
z
M 2000 1525 
L 2000 3500 
L 600 1525 
L 2000 1525 
z
" transform="scale(0.015625)"/>
       </defs>
       <use xlink:href="#SimHei-31"/>
       <use xlink:href="#SimHei-2e" transform="translate(50 0)"/>
       <use xlink:href="#SimHei-34" transform="translate(100 0)"/>
      </g>
     </g>
    </g>
    <g id="ytick_6">
     <g id="line2d_29">
      <path d="M 57.6 95.370461 
L 414.72 95.370461 
" clip-path="url(#pf721d5ddc3)" style="fill: none; stroke: #ffffff; stroke-width: 0.8; stroke-linecap: square"/>
     </g>
     <g id="line2d_30">
      <g>
       <use xlink:href="#m65194bd8a8" x="57.6" y="95.370461" style="fill: #555555; stroke: #555555; stroke-width: 0.8"/>
      </g>
     </g>
     <g id="text_16">
      <!-- 1.5 -->
      <g style="fill: #555555" transform="translate(35.6 98.807961) scale(0.1 -0.1)">
       <use xlink:href="#SimHei-31"/>
       <use xlink:href="#SimHei-2e" transform="translate(50 0)"/>
       <use xlink:href="#SimHei-35" transform="translate(100 0)"/>
      </g>
     </g>
    </g>
    <g id="ytick_7">
     <g id="line2d_31">
      <path d="M 57.6 55.346954 
L 414.72 55.346954 
" clip-path="url(#pf721d5ddc3)" style="fill: none; stroke: #ffffff; stroke-width: 0.8; stroke-linecap: square"/>
     </g>
     <g id="line2d_32">
      <g>
       <use xlink:href="#m65194bd8a8" x="57.6" y="55.346954" style="fill: #555555; stroke: #555555; stroke-width: 0.8"/>
      </g>
     </g>
     <g id="text_17">
      <!-- 1.6 -->
      <g style="fill: #555555" transform="translate(35.6 58.784454) scale(0.1 -0.1)">
       <defs>
        <path id="SimHei-36" d="M 250 1612 
Q 275 1975 387 2225 
Q 500 2475 725 2850 
L 1750 4450 
L 2325 4450 
L 1275 2800 
Q 1950 2975 2350 2750 
Q 2750 2525 2887 2237 
Q 3025 1950 3037 1612 
Q 3050 1275 2937 950 
Q 2825 625 2537 362 
Q 2250 100 1737 75 
Q 1225 50 862 262 
Q 500 475 362 862 
Q 225 1250 250 1612 
z
M 1025 787 
Q 1250 550 1625 525 
Q 2000 500 2250 775 
Q 2500 1050 2500 1575 
Q 2500 2100 2187 2300 
Q 1875 2500 1487 2450 
Q 1100 2400 925 2075 
Q 750 1750 775 1387 
Q 800 1025 1025 787 
z
" transform="scale(0.015625)"/>
       </defs>
       <use xlink:href="#SimHei-31"/>
       <use xlink:href="#SimHei-2e" transform="translate(50 0)"/>
       <use xlink:href="#SimHei-36" transform="translate(100 0)"/>
      </g>
     </g>
    </g>
    <g id="text_18">
     <!-- 队列最大速度 (m/s) -->
     <g style="fill: #555555" transform="translate(30.1 228.528) rotate(-90) scale(0.12 -0.12)">
      <defs>
       <path id="SimHei-961f" d="M 1050 4425 
L 1050 -625 
L 550 -625 
Q 575 -50 575 425 
L 575 3675 
Q 575 4175 550 4850 
L 2750 4850 
Q 2525 4100 2400 3737 
Q 2275 3375 2100 2900 
Q 2475 2375 2600 2037 
Q 2725 1700 2700 1387 
Q 2675 1075 2475 825 
Q 2275 575 1525 450 
Q 1450 775 1300 1025 
Q 1750 1025 1950 1100 
Q 2150 1175 2187 1437 
Q 2225 1700 2037 2075 
Q 1850 2450 1575 2875 
Q 1775 3275 2100 4425 
L 1050 4425 
z
M 4300 5075 
Q 4250 4750 4237 4375 
Q 4225 4000 4275 3400 
Q 4325 2800 4575 2162 
Q 4825 1525 5112 1062 
Q 5400 600 5662 325 
Q 5925 50 6175 -125 
Q 5925 -325 5775 -550 
Q 5350 -175 4887 512 
Q 4425 1200 4050 2400 
Q 3875 1550 3687 1137 
Q 3500 725 3162 250 
Q 2825 -225 2350 -625 
Q 2200 -375 1925 -225 
Q 2550 175 2912 700 
Q 3275 1225 3450 1825 
Q 3625 2425 3675 3000 
Q 3725 3575 3725 4050 
Q 3725 4550 3675 5125 
Q 4100 5075 4300 5075 
z
" transform="scale(0.015625)"/>
       <path id="SimHei-5217" d="M 2950 4800 
Q 3525 4800 3825 4825 
L 3825 4400 
Q 3525 4425 2800 4425 
L 2125 4425 
Q 2075 4125 1925 3500 
L 3425 3500 
Q 3300 2500 3100 1862 
Q 2900 1225 2575 762 
Q 2250 300 1850 -12 
Q 1450 -325 925 -675 
Q 725 -375 475 -150 
Q 1125 125 1550 437 
Q 1975 750 2250 1225 
Q 2100 1350 1862 1550 
Q 1625 1750 1400 1925 
L 1750 2325 
Q 1925 2200 2100 2037 
Q 2275 1875 2500 1650 
Q 2650 2025 2737 2337 
Q 2825 2650 2875 3100 
L 1775 3100 
Q 1600 2650 1350 2237 
Q 1100 1825 775 1525 
Q 600 1675 325 1850 
Q 600 2125 825 2462 
Q 1050 2800 1200 3125 
Q 1350 3450 1425 3775 
Q 1500 4100 1550 4425 
L 1100 4425 
Q 575 4425 375 4400 
L 375 4825 
Q 575 4800 1125 4800 
L 2950 4800 
z
M 5975 5050 
Q 5925 4675 5925 4250 
L 5925 50 
Q 5925 -275 5737 -400 
Q 5550 -525 4900 -625 
Q 4825 -250 4650 25 
Q 5150 0 5287 25 
Q 5425 50 5425 325 
L 5425 4250 
Q 5425 4650 5400 5050 
L 5975 5050 
z
M 4725 4300 
Q 4675 4000 4675 3450 
L 4675 1650 
Q 4675 1200 4700 850 
L 4100 850 
Q 4150 1200 4150 1650 
L 4150 3550 
Q 4150 3975 4100 4300 
L 4725 4300 
z
" transform="scale(0.015625)"/>
       <path id="SimHei-6700" d="M 475 275 
Q 675 300 1100 350 
L 1100 2450 
Q 775 2450 425 2425 
L 425 2850 
Q 775 2825 1125 2825 
L 5025 2825 
Q 5475 2825 5900 2850 
L 5900 2425 
Q 5475 2450 5025 2450 
L 3050 2450 
L 3050 675 
L 3400 775 
Q 3400 550 3425 400 
Q 3225 350 3050 325 
Q 3050 -125 3075 -550 
L 2600 -550 
Q 2625 -125 2625 250 
Q 2350 200 1812 87 
Q 1275 -25 650 -175 
Q 575 100 475 275 
z
M 5100 4925 
Q 5075 4600 5075 4325 
L 5075 3875 
Q 5075 3600 5100 3250 
L 1275 3250 
Q 1300 3600 1300 3875 
L 1300 4325 
Q 1300 4600 1275 4925 
L 5100 4925 
z
M 3300 2050 
Q 3750 2025 4125 2025 
L 5375 2025 
Q 5100 975 4725 400 
Q 5350 0 5925 -100 
Q 5700 -275 5650 -500 
Q 5025 -300 4475 150 
Q 4150 -200 3600 -575 
Q 3500 -425 3250 -275 
Q 3775 -100 4150 350 
Q 3725 775 3500 1675 
L 3300 1675 
L 3300 2050 
z
M 4600 4250 
L 4600 4600 
L 1750 4600 
L 1750 4250 
L 4600 4250 
z
M 4600 3575 
L 4600 3900 
L 1750 3900 
L 1750 3575 
L 4600 3575 
z
M 3900 1675 
Q 4000 1075 4400 625 
Q 4700 1050 4850 1675 
L 3900 1675 
z
M 2625 1250 
L 2625 1675 
L 1525 1675 
L 1525 1250 
L 2625 1250 
z
M 2625 575 
L 2625 925 
L 1525 925 
L 1525 425 
L 2625 575 
z
M 2625 2025 
L 2625 2450 
L 1525 2450 
L 1525 2025 
L 2625 2025 
z
" transform="scale(0.015625)"/>
       <path id="SimHei-5927" d="M 2900 3400 
Q 2925 4275 2912 4575 
Q 2900 4875 2875 5150 
Q 3175 5100 3550 5075 
Q 3475 4825 3437 4350 
Q 3400 3875 3400 3400 
L 4675 3400 
Q 5350 3400 5925 3450 
L 5925 2900 
Q 5425 2925 4900 2925 
L 3425 2925 
Q 3525 2500 3775 2062 
Q 4025 1625 4287 1287 
Q 4550 950 5012 575 
Q 5475 200 6025 -50 
Q 5825 -200 5625 -550 
Q 5175 -300 4737 75 
Q 4300 450 3862 1062 
Q 3425 1675 3200 2200 
Q 3000 1650 2775 1287 
Q 2550 925 2287 625 
Q 2025 325 1612 25 
Q 1200 -275 675 -575 
Q 475 -275 225 -50 
Q 750 125 1262 450 
Q 1775 775 2100 1187 
Q 2425 1600 2625 2050 
Q 2825 2500 2875 2925 
L 1500 2925 
Q 900 2925 550 2900 
L 550 3450 
Q 900 3425 1500 3400 
L 2900 3400 
z
" transform="scale(0.015625)"/>
       <path id="SimHei-901f" d="M 3725 4600 
Q 3725 4975 3700 5250 
L 4175 5250 
Q 4150 5000 4150 4600 
L 5175 4600 
Q 5550 4600 5925 4625 
L 5925 4175 
Q 5550 4200 5175 4200 
L 4150 4200 
L 4150 3725 
L 5700 3725 
Q 5675 3325 5675 2950 
Q 5675 2575 5700 2200 
L 4150 2200 
Q 4150 725 4175 225 
L 3700 225 
Q 3725 725 3725 1925 
Q 3425 1475 3100 1125 
Q 2775 775 2300 425 
Q 2125 625 1825 775 
Q 2275 950 2712 1387 
Q 3150 1825 3325 2200 
L 2200 2200 
Q 2225 2625 2225 2950 
Q 2225 3300 2200 3725 
L 3725 3725 
L 3725 4200 
L 2675 4200 
Q 2325 4200 1925 4175 
L 1925 4625 
Q 2325 4600 2675 4600 
L 3725 4600 
z
M 1500 2875 
Q 1475 2400 1475 1925 
L 1475 550 
Q 2150 -25 3725 -37 
Q 5300 -50 6200 100 
Q 6025 -175 6000 -525 
Q 3925 -550 3087 -475 
Q 2250 -400 1800 -137 
Q 1350 125 1112 -62 
Q 875 -250 600 -600 
Q 475 -375 200 -200 
Q 475 25 1000 400 
L 1000 2450 
Q 675 2450 275 2425 
L 275 2900 
Q 700 2875 1000 2875 
L 1500 2875 
z
M 4550 2050 
Q 4950 1700 5925 925 
Q 5725 775 5550 550 
Q 5075 1000 4250 1675 
Q 4400 1825 4550 2050 
z
M 3725 2575 
L 3725 3325 
L 2675 3325 
L 2675 2575 
L 3725 2575 
z
M 5200 2575 
L 5200 3325 
L 4150 3325 
L 4150 2575 
L 5200 2575 
z
M 1100 4950 
Q 1425 4350 1600 3850 
Q 1350 3750 1050 3625 
Q 975 4050 650 4800 
Q 900 4850 1100 4950 
z
" transform="scale(0.015625)"/>
       <path id="SimHei-5ea6" d="M 1750 1675 
Q 2450 1650 2875 1650 
L 5200 1650 
Q 4975 1250 4650 850 
Q 4325 450 4025 200 
Q 4350 50 4950 -50 
Q 5550 -150 6100 -150 
Q 5950 -300 5825 -650 
Q 5100 -550 4550 -412 
Q 4000 -275 3625 -100 
Q 3100 -325 2587 -462 
Q 2075 -600 1525 -675 
Q 1450 -475 1225 -250 
Q 1675 -250 2250 -125 
Q 2825 0 3250 200 
Q 2825 550 2400 1275 
L 1750 1250 
L 1750 1675 
z
M 2975 5075 
Q 3250 5150 3475 5250 
Q 3625 4975 3775 4525 
L 4700 4525 
Q 4975 4525 5700 4550 
L 5700 4100 
Q 5000 4125 4650 4125 
L 1375 4125 
Q 1375 3000 1350 2312 
Q 1325 1625 1212 950 
Q 1100 275 725 -525 
Q 500 -375 250 -300 
Q 650 400 762 1075 
Q 875 1750 887 2800 
Q 900 3850 875 4525 
L 3200 4525 
Q 3100 4850 2975 5075 
z
M 2475 3300 
Q 2475 3700 2450 3925 
L 2975 3925 
Q 2950 3725 2950 3300 
L 4300 3300 
Q 4300 3700 4275 3950 
L 4800 3950 
Q 4775 3650 4775 3300 
Q 5325 3300 5725 3325 
L 5725 2900 
Q 5350 2925 4775 2925 
Q 4775 2250 4800 1950 
L 2450 1950 
Q 2475 2350 2475 2925 
Q 2175 2925 1600 2900 
L 1600 3325 
Q 2175 3300 2475 3300 
z
M 4300 2350 
L 4300 2925 
L 2950 2925 
L 2950 2350 
L 4300 2350 
z
M 2875 1275 
Q 3200 775 3650 425 
Q 4025 700 4425 1275 
L 2900 1275 
L 2875 1275 
z
" transform="scale(0.015625)"/>
       <path id="SimHei-6d" d="M 3050 125 
L 2550 125 
L 2550 2150 
Q 2550 2300 2500 2400 
Q 2450 2500 2300 2500 
Q 2125 2500 1975 2312 
Q 1825 2125 1825 1825 
L 1825 125 
L 1325 125 
L 1325 2150 
Q 1325 2300 1275 2400 
Q 1225 2500 1075 2500 
Q 900 2500 750 2312 
Q 600 2125 600 1825 
L 600 125 
L 100 125 
L 100 2925 
L 600 2925 
L 600 2550 
Q 725 2750 900 2862 
Q 1075 2975 1275 2975 
Q 1475 2975 1612 2862 
Q 1750 2750 1800 2550 
Q 1925 2750 2087 2862 
Q 2250 2975 2450 2975 
Q 2750 2975 2900 2812 
Q 3050 2650 3050 2350 
L 3050 125 
z
" transform="scale(0.015625)"/>
       <path id="SimHei-2f" d="M 3000 4550 
L 350 -175 
L 100 -25 
L 2750 4700 
L 3000 4550 
z
" transform="scale(0.015625)"/>
      </defs>
      <use xlink:href="#SimHei-961f"/>
      <use xlink:href="#SimHei-5217" transform="translate(100 0)"/>
      <use xlink:href="#SimHei-6700" transform="translate(200 0)"/>
      <use xlink:href="#SimHei-5927" transform="translate(300 0)"/>
      <use xlink:href="#SimHei-901f" transform="translate(400 0)"/>
      <use xlink:href="#SimHei-5ea6" transform="translate(500 0)"/>
      <use xlink:href="#SimHei-20" transform="translate(600 0)"/>
      <use xlink:href="#SimHei-28" transform="translate(650 0)"/>
      <use xlink:href="#SimHei-6d" transform="translate(700 0)"/>
      <use xlink:href="#SimHei-2f" transform="translate(750 0)"/>
      <use xlink:href="#SimHei-73" transform="translate(800 0)"/>
      <use xlink:href="#SimHei-29" transform="translate(850 0)"/>
     </g>
    </g>
   </g>
   <g id="line2d_33">
    <path d="M 73.832727 295.488 
L 220.922772 295.488 
L 221.329098 294.301396 
L 222.548076 279.804207 
L 223.767054 268.342355 
L 224.579706 262.372468 
L 225.392359 257.70901 
L 226.205011 254.311491 
L 227.017663 252.128246 
L 227.423989 251.473156 
L 227.830315 251.097994 
L 228.236641 250.993873 
L 228.642967 251.151521 
L 229.049293 251.561333 
L 229.45562 252.213428 
L 230.268272 254.203875 
L 231.080924 257.040257 
L 231.893576 260.638768 
L 233.112554 267.283042 
L 234.331533 275.179511 
L 235.956837 287.209312 
L 236.769489 293.708935 
L 237.175815 295.488 
L 282.278011 295.488 
L 282.684337 295.138313 
L 283.496989 290.166097 
L 284.309642 286.462152 
L 285.122294 283.953585 
L 285.52862 283.121714 
L 285.934946 282.556468 
L 286.341272 282.245986 
L 286.747598 282.177992 
L 287.153924 282.339867 
L 287.56025 282.718721 
L 288.372902 284.074831 
L 289.185555 286.140247 
L 289.998207 288.808596 
L 291.217185 293.712755 
L 291.623511 295.488 
L 294.87412 295.488 
L 295.686772 270.583361 
L 297.718403 207.087795 
L 299.343707 163.715319 
L 300.562685 136.67095 
L 301.781663 114.659215 
L 303.000642 97.641228 
L 303.813294 88.94426 
L 304.625946 82.230474 
L 305.438598 77.360598 
L 306.25125 74.183934 
L 306.657577 73.181988 
L 307.470229 61.43303 
L 307.876555 57.403502 
L 308.282881 54.808132 
L 308.689207 53.568 
L 309.095533 53.594816 
L 309.501859 54.793107 
L 309.908185 57.062346 
L 310.720837 64.398289 
L 311.53349 74.770037 
L 312.752468 91.839806 
L 314.377772 103.523748 
L 316.409403 119.946647 
L 320.472664 155.287683 
L 324.535924 189.972454 
L 326.567555 206.202117 
L 326.973881 206.392021 
L 327.380207 206.045338 
L 327.786533 206.2763 
L 328.192859 207.043676 
L 328.599185 208.306456 
L 329.411838 212.156862 
L 330.22449 217.513364 
L 331.443468 227.730013 
L 333.068772 244.05478 
L 334.694077 260.626414 
L 336.725707 271.436321 
L 338.757338 281.139081 
L 340.788968 289.755712 
L 342.007946 294.413003 
L 342.414272 293.146938 
L 344.039577 282.782037 
L 345.258555 276.353073 
L 346.477533 271.080951 
L 347.696512 266.944489 
L 348.509164 264.797588 
L 349.321816 263.119576 
L 350.134468 261.889812 
L 350.94712 261.084818 
L 351.759772 260.678755 
L 352.572425 260.643918 
L 352.978751 259.791626 
L 353.791403 254.609599 
L 354.604055 251.355281 
L 355.010381 250.407839 
L 355.416707 249.887304 
L 355.823033 249.772388 
L 356.229359 250.040794 
L 356.635686 250.669439 
L 357.042012 251.634671 
L 357.854664 254.478673 
L 358.667316 258.379744 
L 359.886294 265.798761 
L 361.511599 276.262147 
L 366.793838 289.881778 
L 368.825468 294.429808 
L 369.231794 293.67013 
L 370.857099 283.200308 
L 372.076077 276.691863 
L 373.295055 271.34134 
L 374.514033 267.129045 
L 375.326686 264.93368 
L 376.139338 263.209284 
L 376.95199 261.935516 
L 377.764642 261.089145 
L 378.577294 260.644532 
L 379.796273 260.358813 
L 380.608925 254.977468 
L 381.421577 251.537068 
L 381.827903 250.502407 
L 382.234229 249.898898 
L 382.640555 249.70547 
L 383.046881 249.899996 
L 383.453207 250.459519 
L 383.859534 251.360468 
L 384.672186 254.090562 
L 385.484838 257.897133 
L 386.703816 265.209418 
L 388.32912 275.999625 
L 394.017686 290.603854 
L 395.64299 294.214691 
L 396.049316 294.176308 
L 397.674621 283.606193 
L 398.487273 279.087491 
L 398.487273 279.087491 
" clip-path="url(#pf721d5ddc3)" style="fill: none; stroke: #e24a33; stroke-width: 1.5; stroke-linecap: square"/>
   </g>
   <g id="patch_3">
    <path d="M 57.6 307.584 
L 57.6 41.472 
" style="fill: none; stroke: #ffffff; stroke-linejoin: miter; stroke-linecap: square"/>
   </g>
   <g id="patch_4">
    <path d="M 414.72 307.584 
L 414.72 41.472 
" style="fill: none; stroke: #ffffff; stroke-linejoin: miter; stroke-linecap: square"/>
   </g>
   <g id="patch_5">
    <path d="M 57.6 307.584 
L 414.72 307.584 
" style="fill: none; stroke: #ffffff; stroke-linejoin: miter; stroke-linecap: square"/>
   </g>
   <g id="patch_6">
    <path d="M 57.6 41.472 
L 414.72 41.472 
" style="fill: none; stroke: #ffffff; stroke-linejoin: miter; stroke-linecap: square"/>
   </g>
   <g id="text_19">
    <!-- 队列最大速度与龙头位置关系图 -->
    <g transform="translate(135.36 35.472) scale(0.144 -0.144)">
     <defs>
      <path id="SimHei-4e0e" d="M 5350 100 
Q 5275 -300 4925 -425 
Q 4575 -550 3900 -600 
Q 3875 -375 3650 -25 
Q 4375 -50 4575 0 
Q 4775 50 4837 225 
Q 4900 400 5100 2350 
L 1125 2350 
Q 1450 4350 1475 5200 
Q 1800 5150 2075 5125 
Q 1975 4825 1900 4275 
L 4900 4275 
Q 5400 4275 5800 4300 
L 5800 3825 
Q 5400 3850 4950 3850 
L 1850 3850 
L 1700 2750 
L 5675 2750 
Q 5625 2450 5575 2050 
L 5350 100 
z
M 3675 1350 
Q 4125 1350 4500 1375 
L 4500 875 
Q 4125 900 3850 900 
L 1450 900 
Q 1000 900 500 875 
L 500 1375 
Q 1000 1350 1450 1350 
L 3675 1350 
z
" transform="scale(0.015625)"/>
      <path id="SimHei-5173" d="M 4675 4850 
Q 4525 4675 4362 4375 
Q 4200 4075 4075 3825 
L 4625 3825 
Q 5150 3825 5550 3850 
L 5550 3375 
Q 5225 3400 4700 3400 
L 3400 3400 
L 3400 2150 
L 4975 2150 
Q 5475 2150 5875 2175 
L 5875 1700 
Q 5475 1725 5025 1725 
L 3500 1725 
Q 4250 450 6000 75 
Q 5775 -175 5600 -525 
Q 4025 0 3225 1300 
Q 2800 200 875 -600 
Q 775 -350 500 -150 
Q 2425 375 2875 1725 
L 1550 1725 
Q 975 1725 600 1700 
L 600 2150 
Q 875 2125 1450 2125 
L 2925 2125 
L 2925 3400 
L 1750 3400 
Q 1275 3400 900 3375 
L 900 3850 
Q 1275 3825 1775 3825 
L 3575 3825 
Q 3925 4625 4075 5150 
Q 4325 5000 4675 4850 
z
M 2125 5125 
Q 2450 4725 2800 4175 
Q 2500 4025 2325 3875 
Q 2025 4450 1725 4825 
Q 1950 4975 2125 5125 
z
" transform="scale(0.015625)"/>
      <path id="SimHei-7cfb" d="M 5300 5200 
Q 5450 4950 5725 4675 
Q 4975 4650 4437 4587 
Q 3900 4525 3125 4450 
Q 3250 4325 3475 4225 
Q 3150 4025 2837 3762 
Q 2525 3500 2225 3275 
L 3475 3275 
Q 4100 3700 4525 4050 
Q 4775 3850 5125 3700 
Q 4775 3550 4450 3375 
Q 4125 3200 3387 2737 
Q 2650 2275 2125 1975 
Q 3600 2050 4875 2100 
Q 4750 2225 4225 2625 
Q 4475 2725 4650 2875 
Q 4950 2650 5337 2312 
Q 5725 1975 6075 1650 
Q 5775 1475 5600 1325 
Q 5400 1575 5225 1725 
Q 4550 1700 3625 1650 
L 3625 150 
Q 3625 -325 3387 -412 
Q 3150 -500 2525 -600 
Q 2475 -300 2300 -25 
Q 2875 -25 3012 12 
Q 3150 50 3150 300 
L 3150 1650 
Q 1625 1625 1075 1525 
Q 1000 1775 900 2050 
Q 1450 2100 1875 2300 
Q 2300 2500 2900 2900 
Q 2325 2900 2037 2875 
Q 1750 2850 1400 2800 
Q 1325 3075 1250 3325 
Q 1675 3325 2100 3662 
Q 2525 4000 2750 4400 
Q 1350 4350 925 4300 
Q 850 4550 750 4750 
Q 2150 4750 3250 4850 
Q 4350 4950 5300 5200 
z
M 4625 1250 
Q 4925 1025 5325 737 
Q 5725 450 6000 175 
Q 5800 0 5600 -225 
Q 5275 125 4925 400 
Q 4575 675 4275 875 
Q 4500 1050 4625 1250 
z
M 2200 875 
Q 1900 725 1537 375 
Q 1175 25 800 -300 
Q 575 -75 375 25 
Q 1075 450 1675 1225 
Q 1900 1050 2200 875 
z
" transform="scale(0.015625)"/>
      <path id="SimHei-56fe" d="M 5800 4975 
Q 5775 4350 5775 3600 
L 5775 925 
Q 5775 150 5800 -600 
L 5300 -600 
L 5300 -275 
L 1125 -275 
L 1125 -650 
L 625 -650 
Q 650 125 650 950 
L 650 3600 
Q 650 4325 625 4975 
L 5800 4975 
z
M 5300 150 
L 5300 4575 
L 1125 4575 
L 1125 150 
L 5300 150 
z
M 3225 4250 
Q 3075 4100 2950 3925 
L 4625 3925 
Q 4525 3700 4300 3375 
Q 4075 3050 3600 2600 
Q 4350 2225 5075 2150 
Q 4900 1925 4775 1675 
Q 3850 1950 3225 2350 
Q 2500 1875 1675 1650 
Q 1600 1875 1400 2075 
Q 2200 2200 2875 2600 
Q 2525 2925 2375 3150 
Q 2150 2900 1900 2650 
Q 1725 2850 1525 2950 
Q 1950 3300 2250 3737 
Q 2550 4175 2675 4475 
Q 2925 4350 3225 4250 
z
M 2450 1275 
Q 3550 950 4100 725 
Q 3975 525 3850 300 
Q 2825 725 2275 850 
Q 2375 1050 2450 1275 
z
M 2925 2050 
Q 3775 1700 4075 1600 
Q 3950 1400 3850 1150 
Q 3000 1550 2700 1650 
Q 2825 1825 2925 2050 
z
M 2625 3450 
Q 3000 3025 3275 2850 
Q 3600 3100 3875 3525 
L 2675 3525 
L 2625 3450 
z
" transform="scale(0.015625)"/>
     </defs>
     <use xlink:href="#SimHei-961f"/>
     <use xlink:href="#SimHei-5217" transform="translate(100 0)"/>
     <use xlink:href="#SimHei-6700" transform="translate(200 0)"/>
     <use xlink:href="#SimHei-5927" transform="translate(300 0)"/>
     <use xlink:href="#SimHei-901f" transform="translate(400 0)"/>
     <use xlink:href="#SimHei-5ea6" transform="translate(500 0)"/>
     <use xlink:href="#SimHei-4e0e" transform="translate(600 0)"/>
     <use xlink:href="#SimHei-9f99" transform="translate(700 0)"/>
     <use xlink:href="#SimHei-5934" transform="translate(800 0)"/>
     <use xlink:href="#SimHei-4f4d" transform="translate(900 0)"/>
     <use xlink:href="#SimHei-7f6e" transform="translate(1000 0)"/>
     <use xlink:href="#SimHei-5173" transform="translate(1100 0)"/>
     <use xlink:href="#SimHei-7cfb" transform="translate(1200 0)"/>
     <use xlink:href="#SimHei-56fe" transform="translate(1300 0)"/>
    </g>
   </g>
  </g>
 </g>
 <defs>
  <clipPath id="pf721d5ddc3">
   <rect x="57.6" y="41.472" width="357.12" height="266.112"/>
  </clipPath>
 </defs>
</svg>
